<svg width="70" height="37" viewBox="0 0 70 37" fill="none" xmlns="http://www.w3.org/2000/svg">
<g clip-path="url(#clip0)">
<path d="M28.2832 4.23765C26.5744 5.06739 25.4001 6.04964 24.4619 7.45497C22.315 10.6571 22.5739 15.8084 25.0822 19.9415C26.2874 21.9344 27.499 23.1299 29.5824 24.4212C32.3091 26.1053 35.4751 27.0724 39.607 27.4874C41.2033 27.6388 40.6379 27.6738 38.2754 27.5614C34.1599 27.3548 30.5326 26.6429 26.9437 25.3171C25.4471 24.7712 24.6077 24.4025 21.3932 22.9054C20.4769 22.4801 19.4132 22.0147 19.0315 21.8799C18.6475 21.7351 18.3132 21.6213 18.2984 21.6035C18.2759 21.598 18.2927 21.2121 18.3435 20.744C18.419 20.0155 18.3956 19.7768 18.1809 18.9879C17.9616 18.1789 17.8793 18.0068 17.3902 17.4087C17.0385 16.9911 16.2919 16.3356 15.3405 15.6214C12.546 13.5072 12.161 13.1291 11.8005 12.2147C11.6995 11.9621 11.5411 11.6909 11.4495 11.6165C11.3012 11.4809 11.2733 11.498 11.1704 11.7871C11.0674 12.0762 11.1026 12.3653 11.5367 14.2391C11.9748 16.1757 12.058 16.443 12.4354 17.1094C13.1996 18.4825 14.4299 19.7585 15.9337 20.7485C16.3109 21.0011 16.5732 21.2165 16.5127 21.2304C16.4522 21.2444 15.9124 21.2523 15.3051 21.2439C13.9299 21.2219 12.6185 21.4292 11.4841 21.8503C11.0065 22.0349 10.5389 22.2171 10.4552 22.2683C10.3234 22.3412 10.2682 22.1947 10.0185 21.1168C9.70568 19.7669 9.47033 19.3011 8.83938 18.7782C8.20843 18.2553 6.92166 18.2022 6.75218 18.7083C6.67322 18.9175 6.66314 18.9199 6.47681 18.6657C6.33472 18.465 6.21524 18.4077 6.0237 18.452C5.85232 18.4915 5.71267 18.4389 5.59234 18.2862C5.39359 18.0243 5.08182 18.0539 4.99904 18.3383C4.9534 18.5081 4.90533 18.5298 4.70828 18.4585C4.31883 18.3362 4.26227 18.4129 4.36964 18.8764C4.428 19.1282 4.43128 19.3716 4.38788 19.4134C4.25767 19.539 4.35093 19.804 4.56507 19.9032C4.71713 19.9636 4.80881 20.1759 4.97762 20.8586C5.12308 21.4406 5.23577 21.7436 5.3405 21.7831C5.4429 21.8125 5.43133 21.9001 5.28955 22.1132C5.13228 22.3512 5.13079 22.4365 5.26364 22.7348C5.5495 23.3268 6.28423 23.656 7.33054 23.6797L7.81995 23.6834L7.13315 24.2029C6.51532 24.6533 6.05338 25.089 6.52858 24.7564C7.60304 24.0307 8.49072 23.5073 8.80324 23.4352C9.00486 23.3886 9.44759 23.1909 9.7825 22.9862C10.2213 22.7256 10.7594 22.5271 11.7404 22.2687L13.0897 21.9041L12.4633 22.4096C11.6053 23.1065 11.1667 23.643 10.9933 24.2243C10.7751 24.9327 10.8111 25.317 11.152 25.9176C11.3951 26.3709 11.472 26.4274 11.6837 26.3785C11.9659 26.3134 12.0514 26.4528 11.8304 26.5994C11.711 26.68 11.7119 26.7753 11.8377 27.0434C11.9511 27.3038 11.9536 27.4518 11.8552 27.6231C11.7049 27.8913 11.8486 28.1447 12.1309 28.0795C12.2922 28.0423 12.3488 28.1035 12.4025 28.3352C12.4819 28.6777 12.5672 28.6792 12.9517 28.3676C13.092 28.2397 13.2641 28.1575 13.3215 28.1761C13.5186 28.2473 13.8116 27.9992 13.7695 27.8179C13.7392 27.6869 13.9314 27.4621 14.3972 27.0892C14.7639 26.7923 15.0809 26.4644 15.118 26.3497C15.166 26.19 15.2241 26.166 15.4972 26.1984C15.7826 26.2386 15.8485 26.2022 16.0624 25.8875C16.387 25.4092 16.4215 24.8706 16.1759 24.1313C15.9085 23.344 15.3774 22.5645 14.8249 22.1508C14.5696 21.9657 14.3817 21.7968 14.4073 21.7696C14.4228 21.7448 14.8626 21.7176 15.3822 21.7143C17.2025 21.6867 18.9201 22.2241 24.7893 24.6365C31.972 27.5841 33.3242 27.9193 38.0771 27.9892C42.0498 28.0377 45.3009 27.7221 53.3997 26.51C63.8366 24.9385 65.2846 24.8164 74.0256 24.7721C80.7206 24.7438 82.9008 24.6649 82.3538 24.5046C81.7472 24.3157 71.9162 24.1023 68.4982 24.2017C64.6885 24.3066 61.7469 24.5826 55.3767 25.4167C50.604 26.0412 48.5217 26.2673 46.2074 26.409C38.6363 26.8731 33.477 25.9205 29.4459 23.3278C28.2967 22.5849 27.6742 22.0069 26.7457 20.8416C24.3143 17.7733 23.0784 14.0893 23.5013 11.1473C23.8531 8.67808 25.447 6.52702 27.9148 5.21425C28.8878 4.6924 30.9877 4.17566 32.155 4.17146C35.2853 4.15971 38.229 5.49651 39.9702 7.69468C42.0011 10.2717 42.1848 13.2647 40.4977 16.159C40.0607 16.8861 39.9562 17.1225 40.1895 16.8457C40.6513 16.2721 41.2733 15.1521 41.545 14.3995C42.2811 12.351 41.9101 9.87883 40.5963 7.92157C38.8268 5.32662 35.6044 3.56598 32.391 3.44832C31.2749 3.39826 29.1718 3.80961 28.2832 4.23765Z" fill="#495E3D"/>
<path d="M3.2871 25.4565C2.26292 25.8946 1.79411 26.438 1.69624 27.2989C1.63234 27.9398 1.70777 28.2195 1.98938 28.3349C2.22367 28.4293 2.226 28.4394 1.94534 28.5573C1.72516 28.6612 1.67093 28.748 1.69204 28.9765C1.71623 29.1726 1.64577 29.3268 1.48532 29.4594C1.18768 29.6873 1.20879 29.9159 1.52605 30.0018C1.74092 30.0583 1.74792 30.0885 1.65347 30.3225C1.50406 30.686 1.54831 30.7395 1.93136 30.651C2.11281 30.6091 2.4114 30.6145 2.59136 30.6578C2.87372 30.7306 2.92412 30.7189 3.06047 30.5283C3.179 30.3523 3.36353 30.2779 4.0056 30.1615C4.4414 30.0715 4.87793 29.9388 4.9849 29.8505C5.12518 29.7226 5.19033 29.7287 5.36105 29.8697C5.52403 30.0231 5.62176 30.0324 5.9125 29.9122C6.11719 29.8331 6.36602 29.6695 6.47839 29.5587C6.91314 29.0975 7.13231 27.6143 6.90591 26.6372C6.80321 26.194 6.32003 25.117 6.1858 25.0419C5.93518 24.8769 3.98488 25.1681 3.2871 25.4565Z" fill="#495E3D"/>
</g>
<defs>
<clipPath id="clip0">
<rect width="70" height="37" fill="white"/>
</clipPath>
</defs>
</svg>
