<svg width="1280" height="211" viewBox="0 0 1280 211" fill="none" xmlns="http://www.w3.org/2000/svg">
<g clip-path="url(#clip0)">
<g clip-path="url(#clip1)">
<path d="M566.8 4C563.9 6.9 563.8 7.4 564.2 13.4C564.8 22.9 567.6 26.6 578.9 32.4C587.1 36.6 590.5 37.3 586.4 34C585.6 33.2 583.7 30.7 582.3 28.3C580 24.3 579.8 23.4 580.5 16.1C581.3 7.2 580.5 4.8 576 2.5C571.8 0.299996 570.2 0.599996 566.8 4Z" fill="#495E3D"/>
<path d="M703.3 2.9C699.2 5.4 698.7 7.4 699.5 16.8C700.3 25.5 699.4 28.5 694.6 32.9C689.9 37.3 691.9 37.2 701.1 32.4C712.4 26.6 715.2 22.9 715.8 13.4C716.2 7.4 716.1 6.9 713.2 4C709.7 0.500002 707.7 0.300002 703.3 2.9Z" fill="#495E3D"/>
<path d="M593 24.2C590.8 26.6 590.2 33.9 591.9 38.2C593.3 41.9 598.1 46 605.2 49.6C612 53 613.8 53 609.9 49.4C605.8 45.7 604.7 42.2 605.4 34.5C606 27.8 605.9 27.2 603.6 24.7C600.5 21.3 595.9 21.1 593 24.2Z" fill="#495E3D"/>
<path d="M678.2 22.7C675.4 23.8 674.1 28.5 674.7 36.1C675.2 43.5 675.2 43.5 671.6 47.7C669.6 49.9 668 52.1 668 52.4C668 53.9 681.8 45.8 685 42.6C688 39.4 688.5 38.2 688.8 32.7C689.1 27.4 688.9 26.2 687 24.2C685 22.1 681.3 21.4 678.2 22.7Z" fill="#495E3D"/>
<path d="M495.5 25.3C489 28.4 481.8 36.2 479.6 42.5C478.6 45.3 477.5 48.4 477 49.6C476.3 51.3 474.7 51.8 466.9 52.8C445.7 55.6 410.3 63.6 379.5 72.5C371 75 363.6 77 363.1 77C361.6 77 364.7 65.4 368 59C372 51.1 377.2 45.5 383.4 42.2C387.6 40 389.8 39.5 396 39.6C402.4 39.6 404.5 40 410 42.7C413.6 44.4 418 46.8 419.8 48C424.6 51.3 423.7 48.8 418.3 44C409.9 36.6 404.8 34.5 395 34.5C387.4 34.5 385.7 34.9 379.9 37.7C366.5 44.3 356 59.5 355.2 73.2C355 77 354.7 80 354.6 80C354.5 80 347 82.5 337.9 85.6C322.8 90.7 307 94.9 302.8 95C301.3 95 301 94 301 88.6C301 81.4 298.8 77.1 293.1 73.3C288.6 70.2 279.9 70.1 275.2 73C269.9 76.2 267.1 86 270.3 90C274.6 95.5 283.3 96.8 287.5 92.5C290.8 89.3 290.8 84.7 287.5 81.5C285 79 279 78 279 80.1C279 80.6 279.5 80.8 280.1 80.5C281.5 79.6 285.6 80.7 287.4 82.6C291.4 86.5 287.3 94 281.2 94C276.5 94 271.2 90.8 270.4 87.4C269.5 83.8 271.5 77.9 274.5 75C276.3 73.3 278.5 72.5 282.4 72.2C292.2 71.4 298.9 76.7 299.8 86.1C300.6 95.1 300.3 95.5 289.8 97.4C284.7 98.3 276 99.7 270.5 100.5L260.6 101.9L257 99.3C255.1 97.8 249.9 93.7 245.5 90.2C231.6 79 218.8 74.4 209.1 77C203.2 78.6 196.8 85.1 195.1 91.3C193.9 95.4 193.9 103.5 195.1 108C195.4 109.3 193.8 109.5 185 109.5C179.2 109.5 168.2 109.2 160.5 108.9C152.6 108.5 149.3 108.6 153 109C156.6 109.4 162.7 109.8 166.5 109.9C179.8 110.2 176.2 111.7 159.3 112.9C121.7 115.6 94.4 116.9 75.5 117C60.8 117 55.9 117.3 56.7 118.1C58.4 119.8 146 116 164.8 113.5C167.1 113.1 169 113.1 169 113.3C169 113.6 166.6 115.5 163.7 117.6C159.1 121 157.9 121.4 153.5 121.2C149.8 121 146.9 121.6 143 123.4C135.4 126.8 121.8 130.6 114 131.4C108.1 132 99.4 131.2 93.3 129.4C90 128.5 90.2 132 93.6 135.4C97.1 138.8 102.2 140.3 109.7 139.8C113.1 139.7 115.6 139.8 115.4 140.1C115.2 140.5 110.5 142.7 105 145C96.1 148.8 94.3 150 89 155.8C85.7 159.4 83 162.7 83 163.1C83 164.4 98.3 164.2 101.6 163C103.1 162.4 107.3 159.7 110.9 157.1C114.5 154.4 118.8 151.4 120.5 150.4C123.3 148.6 123.3 148.7 119.3 154C112.8 162.6 111.6 167.4 114.5 173C116.1 176.2 118 177 118 174.6C118 171.8 121.8 164.4 126.5 158.2C129.1 154.8 137 146.9 144.1 140.7C154.4 131.7 157.1 128.9 157.6 126.2C158.1 123.7 159.7 121.9 165.1 118L172 113L184 111.8L195.9 110.6L199.7 114.7C207.8 123.3 222 127.7 245.3 128.7L260.1 129.3L248.5 132.7C233.6 136.9 224.6 140.7 217 145.9C213.2 148.5 209.9 150 208 150C201.4 150 196 154.9 196 160.7C196 163 195.5 164 194.5 164C193.5 164 193 163 193 161.2C193 157.8 189.3 154 186.1 154C184.8 154 181 155.8 177.6 158.1C171.6 162.1 171.4 162.2 164.8 161.7C160.9 161.4 158 161.5 158 162C158 162.6 159.3 164.4 160.9 166.2C163.7 169.3 164.3 169.5 172.2 170C180.3 170.5 180.5 170.6 180.5 173C180.5 175.3 180 175.6 175.5 176.1C169 176.9 167.9 177.4 165.4 181.3C163.8 183.7 163.1 186.7 162.7 193C162.4 197.7 161.8 202.6 161.4 203.9C160.8 206 160.9 206.1 162.8 205.1C164 204.5 168.7 203.6 173.2 203.1C177.8 202.7 182.6 201.8 183.8 201.1C186.5 199.7 188.6 195.7 189.5 190.5C190.6 183.9 191.1 182.9 192.8 183.2C194.2 183.5 194.5 184.9 194.5 191.3V199.1L198.7 203.1C201 205.2 203.4 207 204 207C204.6 207 205 203.6 205 198.2C205 190.4 205.3 189.1 207.1 187.4C210.4 184.5 212.2 179.6 211.1 176.6C209.9 173.6 206.3 171 203.3 171C199.7 171 200.6 169.4 205 168.1C210.4 166.5 213 162.3 213 155.3C213 150.6 213.3 149.9 216.2 147.7C226.8 139.7 243.1 134.4 288.1 124.1C316 117.7 325 115.1 344.6 107.9C353.5 104.7 361.2 102 361.7 102C362.2 102 364.3 104.2 366.5 107C368.7 109.7 370.7 112 371 112C371.3 112.1 373.4 113.8 375.7 115.8L380 119.5L371 128.6C363.3 136.5 361.5 137.8 358 138.3C354.9 138.7 352.6 140.1 347.9 144.4C334 157.3 316.4 166 304.3 166C301.2 166 301 166.2 302 168C304.8 173.3 314 174.4 323.4 170.5L329.4 168.1L319.8 177.3C311.1 185.7 310.1 187.1 307.6 193.9C306.1 197.9 305.1 201.5 305.4 201.7C306.1 202.4 312.7 200.1 318.1 197.4C323.2 194.9 325 192.9 332.5 182.2C337.5 175 340.3 172.6 337.6 177.7C335.6 181.8 333.9 190.5 334.6 193.9C334.9 195.5 336.7 198.3 338.6 200.1L342 203.4V197.4C342 194.2 342.5 189.5 343.1 187C344.2 182.2 351.2 167.4 358.5 154.5C361.6 148.8 363 145.4 363 142.6C363 138.4 365.9 134.6 376.7 124.7L381.9 119.9L386.7 122.3C401.9 130 425.6 130.8 448.3 124.6C456.9 122.2 474.6 115.5 476.8 113.8C478.8 112.1 478.2 113.5 474.4 119.1C467.8 129 458.3 150.4 459.3 153.4C459.5 154 460.7 151.3 462 147.5C465.5 136.7 469.5 128.5 475.5 119.4C481.4 110.6 485.9 106.3 495.3 100.7L501 97.2L507.2 99.7C516.8 103.6 528.7 105.3 542 104.7C551.8 104.3 555.3 103.6 566 100.2C579 96.1 590.8 93.4 599.8 92.7C602.6 92.5 605 92.4 605 92.5C605 92.6 602.2 93.8 598.8 95C587.8 99 577.8 106.7 574 114C571 119.8 559.6 129.4 553.2 131.4C551.6 132 550.2 131.5 548 129.7C542.8 125.3 537.4 125.4 530.8 130.2C528.2 132.1 527.5 130.5 529.9 128.1C534.9 123.1 530.6 115 523.1 115C517.2 115 514 113.4 508.8 107.8L504.1 102.7L503.5 106.4C502.4 111.9 503.6 114.7 509 119.9C514.2 124.9 515.2 127.3 512.4 128.4C510.6 129.1 509 128.3 507.2 125.9C506.6 124.9 504.4 123.6 502.6 123C497.5 121.3 491.9 123.4 486.7 128.7C484.4 131.1 481 134 479.2 135.2L475.8 137.3L478.7 138.6C480.3 139.4 484 142.1 487 144.5C495.4 151.5 499.2 151.7 508.1 145.5C516.5 139.7 517.8 143.3 510 150.8C505.1 155.6 505 155.7 505 161.8C505 165.2 505.4 168 505.8 168C506.3 168 507.9 166.6 509.6 164.9C514 160.2 520 156 521.5 156.6C523.7 157.5 529.8 155.1 531.5 152.7C533.6 149.7 533.4 145.7 531 142.7C528.7 139.8 530.1 137.9 532.8 140.3C535.9 143 538.8 143.2 543.4 141.2C545.8 140.1 548.6 138 549.5 136.6C550.5 135.2 553.8 132.6 556.9 131C560 129.3 564.4 126.2 566.6 124L570.8 120.1L570.7 127.3C570.5 144.8 580.8 157 595.6 157C600.2 157 608.6 153.3 611.7 149.9C621.3 139.4 616.8 121 604.2 119.3C596.2 118.2 587 125.2 587 132.3C587 137.8 592.3 144 597 144C599.4 144 605.1 140.7 606.2 138.6C607.3 136.5 607.3 136.5 604.9 138.7C599.4 143.7 594.2 143.6 590.1 138.4C585.5 132.5 588.9 124.7 597.6 121.4C605.6 118.4 612.5 122.1 615.1 131C618 140.6 611.8 151.5 601.7 154.5C598.9 155.3 595.7 156 594.6 156C587.2 156 578.7 150.2 574.8 142.6C571.9 136.9 571.2 124.9 573.4 118.3C576.5 109 585 101.5 598 96.6C606.9 93.3 612.7 92.6 619.5 94C624.7 95.1 625.3 95.5 626.7 98.8C628.3 102.8 638.9 118 640 118C641.1 118 651.7 102.8 653.3 98.7C654.2 96.7 655.1 95 655.3 95C655.5 95 658.1 94.6 661 94C676.4 91.1 699 101.9 705.3 115.2C714 133.7 702.9 156 684.9 156C677.6 156 668.2 149.9 665.4 143.3C662.3 136.1 665.1 125.7 671.2 122C675.3 119.5 678.3 119.5 683.6 121.9C691.5 125.5 694.3 132.8 689.9 138.4C685.8 143.6 680.5 143.7 675.3 138.8C674 137.6 673 137.1 673 137.8C673 139.2 678 142.7 681.2 143.5C686.7 144.9 693 138.8 693 132.3C693 125.2 683.8 118.2 675.8 119.3C665.6 120.7 659.7 134.6 664.9 144.8C667.4 149.6 670.4 152.4 676 154.9C684.8 158.9 694 157.1 701.1 150C706.9 144.2 709.4 137.3 709.3 127.3L709.2 120.1L713.4 124C715.6 126.2 720 129.3 723.1 131C726.2 132.6 729.5 135.2 730.5 136.6C731.4 138 734.2 140.1 736.6 141.2C741.2 143.2 744.1 143 747.2 140.3C749.9 137.9 751.3 139.8 749 142.7C746.6 145.7 746.4 149.7 748.5 152.7C750.2 155.1 756.3 157.5 758.5 156.6C760 156 766 160.2 770.4 164.9C772.1 166.6 773.7 168 774.2 168C774.6 168 775 165.2 775 161.8C775 155.7 774.9 155.6 770 150.8C765.3 146.2 764 143.7 765.8 142.6C766.6 142.1 768.2 143.1 775.9 148.2C781.2 151.8 786.2 150.5 794.4 143.2C796.5 141.4 799.6 139.2 801.3 138.5L804.3 137.2L801.9 136C800.6 135.2 797 132.3 794 129.5C787.4 123.2 782.6 121.3 777.5 123C775.6 123.6 773.4 124.9 772.8 125.9C771 128.3 769.4 129.1 767.6 128.4C764.8 127.3 765.8 124.9 771 119.9C776.4 114.7 777.6 111.9 776.5 106.4L775.9 102.7L771.2 107.8C766 113.4 762.8 115 756.9 115C749.4 115 745.1 123.1 750.1 128.1C752.5 130.5 751.8 132.1 749.2 130.2C748.3 129.5 745.9 128.2 744 127.4C740 125.5 734.5 126.7 731.5 130C729 132.8 727.3 132.5 721 128.4C713.9 123.8 708.3 118.4 706 114C702.2 106.6 690.7 97.9 680.3 94.5C677.4 93.6 675 92.7 675 92.5C675 91.8 686.5 93.1 693.5 94.6C697.4 95.4 705.4 97.6 711.5 99.5C717.5 101.4 723.1 103 724 102.9C726.3 102.8 712.8 98.3 699.5 94.7C689 91.9 686 91.5 675.5 91.6C668.9 91.7 661.8 92.2 659.8 92.8C655.4 94 655.4 93.9 657.3 85.5L658.5 80.5L665.5 78.7C669.4 77.7 677.9 76.4 684.5 75.8C709.9 73.4 746.2 80.9 771.6 93.8L777.5 96.8L773.5 98.4C764.6 102.2 756.8 103.4 741.1 103.4C732.1 103.5 727.3 103.8 729.6 104.2C741.5 106.3 761.7 104.2 772.8 99.7L779 97.2L784.7 100.7C794.1 106.3 798.6 110.6 804.4 119.3C810.3 128.2 814.4 136.6 817.9 147.3C819.2 151.1 820.4 153.9 820.7 153.7C821.4 152.9 816.2 138.4 812.6 131.2C810.7 127.5 807.6 122.1 805.6 119.1C803.6 116.2 802 113.7 802 113.5C802 113.3 804.3 114.3 807.2 115.7C816.1 120 835 125.8 845.5 127.6C862.5 130.4 881.4 128.3 893.3 122.3C896 121 898.4 120 898.6 120.2C898.8 120.4 903 124.5 908 129.5C916.3 137.7 917 138.6 916.4 141.5C915.9 144.2 917.1 146.8 923.4 158C934.2 177 937.1 184.6 937.8 194.8L938.3 203.1L941.5 200C943.3 198.2 945.1 195.5 945.4 193.9C946.1 190.5 944.4 181.8 942.4 177.7C939.7 172.6 942.5 175 947.5 182.2C955.7 194.2 958.2 196.5 966.6 199.6C970.7 201.1 974.3 202.1 974.6 201.8C975.3 201 971.1 190.2 968.5 186C967.3 184.1 962.8 179.4 958.6 175.6C954.4 171.8 951.1 168.6 951.3 168.4C951.5 168.2 953.6 168.9 956 170.1C964.8 174.4 975.1 173.4 978 168C979 166.2 978.8 166 975.7 166C973.9 166 969.7 165.3 966.5 164.5C954.4 161.3 943.9 155.3 932.6 144.9C927.4 140.1 925.1 138.7 922 138.3C918.5 137.8 916.7 136.4 909 128.6L900 119.5L904.3 115.8C906.6 113.8 908.7 112.1 909 112C909.3 112 911.3 109.7 913.5 107C915.7 104.2 917.8 102 918.3 102C918.8 102 926.5 104.7 935.4 107.9C955 115.1 964 117.7 991.9 124.1C1037.1 134.4 1053.2 139.7 1063.8 147.8C1066.7 150 1067 150.8 1067 155.4C1067 162.3 1069.6 166.5 1075 168.1C1079.4 169.4 1080.3 171 1076.7 171C1073.7 171 1070.1 173.6 1069 176.6C1067.9 179.5 1069.1 183.1 1072.5 187.2C1074.7 189.8 1075 191.1 1075 198.6C1075 203.2 1075.4 207 1075.9 207C1077.6 207 1083 201.9 1084.6 198.9C1085.6 197 1086 193.8 1085.8 189.7C1085.5 184.1 1085.7 183.5 1087.4 183.5C1089 183.5 1089.6 184.6 1090.5 189.5C1092.5 200.4 1094.9 202.4 1107 203.3C1111.1 203.6 1115.6 204.2 1116.9 204.6C1119 205.2 1119.2 205.1 1118.5 203.4C1118.1 202.4 1117.5 197.7 1117.3 193C1116.9 186.5 1116.3 183.7 1114.7 181.3C1112.1 177.4 1111 176.9 1104.5 176.1C1100 175.6 1099.5 175.3 1099.5 173C1099.5 170.6 1099.7 170.5 1107.8 170C1115.7 169.5 1116.3 169.3 1119.1 166.2C1120.7 164.4 1122 162.6 1122 162C1122 161.5 1119.1 161.4 1115.3 161.7C1108.6 162.2 1108.4 162.1 1102.4 158.1C1099 155.8 1095.1 154 1093.8 154C1090.6 154 1087 157.9 1087 161.3C1087 163 1086.5 164 1085.5 164C1084.6 164 1084 163.1 1084 161.6C1084 155.2 1078.7 150 1072.2 150C1070.1 150 1067 148.6 1063 145.9C1055.4 140.7 1046.4 136.9 1031.5 132.7L1019.9 129.3L1034.7 128.7C1057.9 127.7 1072.2 123.3 1080.3 114.7L1084 110.7L1096 111.8L1108 113L1114.7 117.8C1119.7 121.3 1121.7 123.5 1122.4 125.9C1123 128.1 1126.2 131.7 1132.4 137.3C1151.6 154.6 1158.4 162.8 1161.2 171.7C1161.9 174.1 1162.8 176 1163.2 176C1164.4 176 1167 170.3 1167 167.6C1167 163.8 1165.3 160 1160.7 154C1156.7 148.7 1156.7 148.6 1159.5 150.4C1161.2 151.4 1165.5 154.4 1169.1 157.1C1172.7 159.7 1176.9 162.4 1178.4 163C1181.7 164.2 1197 164.4 1197 163.1C1197 162.7 1194.3 159.4 1191 155.8C1185.7 150 1183.9 148.8 1175 145C1169.5 142.7 1164.8 140.5 1164.6 140.1C1164.4 139.8 1166.9 139.7 1170.3 139.8C1177.8 140.3 1182.9 138.8 1186.4 135.4C1189.8 132 1190 128.5 1186.8 129.4C1180.6 131.2 1171.9 132 1166 131.4C1158.2 130.6 1144.6 126.8 1137 123.4C1133.1 121.6 1130.2 121 1126.5 121.2C1122.1 121.4 1120.9 121 1116.3 117.6C1113.4 115.5 1111 113.6 1111 113.3C1111 113.1 1112.9 113.1 1115.3 113.5C1123.2 114.5 1162.4 116.9 1192.3 118.1C1214.8 119 1222.4 119 1223.2 118.2C1224.1 117.3 1219.5 117 1204.4 117C1177.2 116.9 1102.4 112.4 1105.2 111C1105.9 110.6 1112.1 109.9 1119 109.6C1150.6 107.8 1178.6 101.9 1189.6 94.7C1199.2 88.3 1201.9 79.3 1196.1 72.8C1193.6 70 1192.5 69.5 1188.9 69.6C1185.4 69.7 1184.1 70.4 1181.8 72.9C1178.3 76.8 1178.2 80.3 1181.6 83.6C1183.5 85.6 1184.7 86 1186.8 85.5C1192.6 84.1 1194.6 79.8 1191 76.5C1188.9 74.6 1184 75.1 1184 77.2C1184 78.1 1184.3 78.1 1185.2 77.2C1187 75.4 1189.8 75.8 1191 77.9C1192.4 80.6 1191.3 82.7 1187.8 83.9C1185.2 84.8 1184.5 84.6 1182.3 82.4C1177.7 77.8 1181.7 71 1189.1 71C1195.4 71 1199 76.1 1197.6 83.3C1196.9 87.2 1191.3 92.9 1185.3 95.9C1171.4 102.8 1140.4 107.8 1099.6 109.6C1084.2 110.3 1083.7 110.3 1084.5 108.4C1086 104.7 1086.2 95.9 1084.9 91.3C1083.3 85.6 1077 78.8 1071.5 77C1060.5 73.4 1048 79 1023.5 98.7L1019.5 101.9L1009.5 100.5C991.5 97.9 981.5 95.8 980.8 94.7C979.2 92.2 980 83.8 982.1 80C988 69.6 1004.3 69.4 1008.6 79.7C1010.5 84 1009.8 89 1007 91.5C1006 92.4 1003.1 93.5 1000.6 93.7C996.8 94.2 995.8 93.9 993.6 91.7C992.2 90.3 991 88 991 86.6C991 83.5 995.6 79.7 998.7 80.3C1000 80.5 1001 80.3 1001 79.9C1001 77.9 994.8 79.1 992.5 81.5C987.1 86.8 991 95 999.1 95C1011.7 95 1015.2 82.2 1005 73.6C1000.7 70.1 991.9 69.9 986.9 73.3C981.2 77.1 979 81.4 979 88.6C979 94 978.7 95 977.3 95C972.7 94.9 956.2 90.5 941.5 85.4L925.2 79.8L924.8 73.2C924 59.5 913.5 44.3 900.1 37.7C894.3 34.9 892.6 34.5 885 34.5C877.3 34.5 875.9 34.8 870.4 37.8C864.7 40.9 856.1 48.4 857.1 49.4C857.3 49.6 860.4 48 864 45.9C872.1 41 876.8 39.5 885 39.6C896.4 39.6 905.5 46.2 912 59C915.3 65.4 918.4 77 916.9 77C916.4 77 909 75 900.5 72.5C869.7 63.6 834.3 55.6 813.1 52.8C805.3 51.8 803.7 51.3 803 49.6C802.5 48.4 801.4 45.4 800.5 42.8C798.3 36.5 790.8 28.3 784.5 25.4C768.6 17.9 748.6 27.5 745.6 44.1L745 47.7L732.3 48.4C708.8 49.6 683.4 54.7 666 61.5C661 63.5 656.8 65 656.7 64.8C656.6 64.7 655.4 62.3 654.1 59.7C651.9 55.3 642 45 640 45C638 45 628.1 55.3 625.9 59.7C624.6 62.3 623.4 64.7 623.3 64.9C623.2 65.1 620 64 616.3 62.5C596.2 54.5 573.2 49.7 547.7 48.4L535.1 47.7L534 42.9C533.4 40.3 532.2 37.3 531.4 36.3C530.3 34.8 530.3 35.2 531.5 38.2C532.3 40.3 533 43.2 533 44.8V47.7L516.8 48.2C507.8 48.5 500.4 48.6 500.2 48.5C499.4 47.8 503.2 41.9 505.2 40.9C508.1 39.3 514.7 40.4 518.3 43C519.9 44.3 521.1 44.7 520.8 44C520.1 41.9 513.8 39 509.9 39C505.8 39 501.7 41.7 499.5 46C498 49 496.7 49.4 484.8 50.6L478.2 51.2L479.1 47C480.6 40.6 483.5 35.6 488.4 31.3C499 22 515.3 21.7 526 30.7C529.3 33.4 529.8 33.6 528 31.6C523.1 26.1 517.4 23.7 508.6 23.3C501.6 22.9 499.8 23.2 495.5 25.3ZM781.2 25C789.5 27.3 798.9 38.1 801.1 47.7L801.8 51.2L795.2 50.6C783.3 49.4 782 49 780.5 46C778.3 41.7 774.2 39 770.1 39C766.2 39 759.9 41.9 759.2 44C758.9 44.7 760.1 44.3 761.7 43C765.3 40.4 771.9 39.3 774.8 40.9C776.8 41.9 780.6 47.8 779.8 48.5C779.6 48.6 772.1 48.5 763.1 48.2L746.8 47.7L747.3 43.3C748.8 30 765.9 20.8 781.2 25ZM646.7 51.8C649.4 54.5 652.4 58.5 653.5 60.9L655.4 65.2L653.2 66.8C652 67.8 648.5 69.8 645.5 71.4L640 74.2L634.5 71.4C631.5 69.8 628 67.8 626.8 66.8L624.6 65.2L626.5 60.9C628.9 55.8 637.3 47 640 47C641 47 644.1 49.2 646.7 51.8ZM532.8 52.2C532.5 55.9 534.3 55.3 512.5 58.5C502.2 60 501.5 60 500.3 58.4C499.6 57.4 499 55.2 499 53.4C499 50.1 499 50.1 504.8 49.7C507.9 49.5 515.6 49.3 521.8 49.2L533.1 49L532.8 52.2ZM569 51.6C588.1 54.1 587.2 54.5 562.2 54.6C549.2 54.7 537.5 55 536.3 55.4C534.4 56 534 55.8 534 54.1C534 48.9 534.5 48.7 546.2 49.4C552.3 49.7 562.5 50.7 569 51.6ZM745.4 50.6C745.7 51.5 746 53.1 746 54.1C746 55.8 745.6 56 743.8 55.4C742.5 55 730.8 54.7 717.8 54.6C692.7 54.5 691.7 54 711.9 51.5C736.9 48.5 744.5 48.3 745.4 50.6ZM772.8 49.7L781 50.3V53.5C781 55.2 780.4 57.4 779.7 58.4C778.5 60 777.8 60 767.5 58.5C745.7 55.3 747.5 55.9 747.2 52.2L746.9 49H755.7C760.5 49 768.2 49.3 772.8 49.7ZM498 53.9C498 56.1 498.5 58.2 499 58.5C499.6 58.8 500 59.4 500 59.8C500 60.7 480.1 64.4 479.4 63.7C479.1 63.4 478.6 60.7 478.3 57.7L477.7 52.2L487.1 51.3C492.3 50.7 496.8 50.2 497.3 50.1C497.7 50.1 498 51.8 498 53.9ZM793.9 51.5L802.3 52.2L801.7 57.7C801.4 60.7 800.9 63.4 800.6 63.7C799.9 64.4 780 60.7 780 59.8C780 59.4 780.5 58.8 781 58.5C781.6 58.2 782 56.1 782 53.9C782 50.5 782.3 49.9 783.8 50.4C784.7 50.6 789.3 51.2 793.9 51.5ZM477.3 58.7C477.6 61.9 477.8 64.6 477.6 64.7C477.5 64.9 471.8 66.4 464.9 68.1C439.6 74.3 402.8 85.6 375.4 95.5L365.9 99L364.4 95.4C363.6 93.4 362.6 89 362.3 85.6L361.7 79.3L368.1 77.2C397.4 67.7 458.7 53.7 473.6 53.1C476.7 53 476.7 53.1 477.3 58.7ZM822.4 55.5C851.2 60.4 886.8 69 911.9 77.2L918.3 79.3L917.7 85.6C917.4 89 916.4 93.4 915.6 95.4L914.1 99L904.6 95.5C877.2 85.6 840.4 74.3 815.1 68.1C808.2 66.4 802.5 64.9 802.4 64.7C802.2 64.6 802.4 61.9 802.7 58.7C803.4 51.9 802 52.1 822.4 55.5ZM586 56.2C594.7 56.3 600.9 57.8 613.7 62.7L623 66.3L622.4 70.4C622 72.6 621.6 74.6 621.5 74.8C621.4 74.9 619.7 74.4 617.8 73.6C610.1 70.3 594.5 68 580.7 68C552.8 68 526.7 75.3 502.6 89.8L496.6 93.4L492.4 88.6C488 83.8 479.6 68.6 480.3 66.6C480.8 65.2 500.9 61.1 501.7 62.3C502.9 64.2 512.7 68 516.5 68C522.2 68 528.3 64.9 530.9 60.7C532.9 57.4 533.5 57.1 539.3 56.6C550.6 55.5 557.4 55.3 568 55.6C573.8 55.8 581.9 56.1 586 56.2ZM741.2 56.6C746.4 57.1 747.1 57.5 749.1 60.7C751.7 64.9 757.8 68 763.5 68C767.3 68 777.1 64.2 778.3 62.3C779.1 61.1 799.2 65.2 799.7 66.6C800.4 68.6 792 83.8 787.6 88.6L783.4 93.4L777.4 89.8C762.3 80.7 747.4 74.8 729.9 70.8C720.8 68.8 717 68.5 699 68.6C680.1 68.7 677.8 68.9 670 71.2C665.3 72.6 660.7 74 659.8 74.5C658.4 75.1 658 74.7 658 72.9C658 71.6 657.7 69.6 657.4 68.4C656.9 66.6 657.9 65.9 666.2 62.8C680.3 57.4 685.7 56.2 698.6 56.1C705.1 56 710.7 55.7 711 55.4C711.5 54.8 731.1 55.6 741.2 56.6ZM531 58.1C531 58.7 529.5 60.7 527.7 62.5C523.6 66.6 518.4 67.8 512 66.1C507.4 64.9 502.5 62.2 503.3 61.4C503.7 61 526.1 57.3 529.8 57.1C530.4 57 531 57.5 531 58.1ZM767 59.6C772.1 60.4 776.6 61.2 776.8 61.5C777.5 62.2 772.4 64.9 768 66.1C761.6 67.8 756.4 66.6 752.3 62.5C750.5 60.7 749 58.7 749 58.1C749 56.9 749.6 57 767 59.6ZM480.4 71C482.6 77 488.4 86.3 492.8 90.7L496 93.9L490 99.6C486.7 102.7 483.8 106 483.5 107C482.8 109.1 474.3 113.8 463.5 118C440.3 126.9 411.3 127.7 390.5 119.9L384.7 117.7L387.1 115.8C392.3 111.7 418.1 94.9 427.5 89.5C445.9 78.9 472.4 66.6 478.1 66.1C478.4 66 479.4 68.3 480.4 71ZM813 69.8C821.3 73 839.9 82.3 852.6 89.5C861.9 94.9 887.6 111.6 892.9 115.8L895.3 117.7L889.5 119.9C868.8 127.7 839.6 126.9 816.5 118C805.7 113.8 797.2 109.1 796.5 107C796.2 106 793.3 102.7 790 99.6L784 93.9L787.2 90.7C791.6 86.3 797.4 77 799.6 71C801.6 65.3 801.6 65.3 813 69.8ZM636.2 73.6L639.8 75.9L647.6 71.5C656 66.7 657 66.8 657 72.6C657 75.2 656.4 76 654 77C652.3 77.7 648.5 79.8 645.5 81.6L640 84.9L634.5 81.6C631.5 79.8 627.7 77.7 626 77C623.7 76 623 75.1 623 73C623 67.3 623.7 66.8 628.3 69.2C630.6 70.3 634.1 72.3 636.2 73.6ZM461 70.6C461 70.9 459.4 71.8 457.4 72.6C444.4 78.1 408.9 98.7 393.8 109.6L383.7 116.9L379.4 114C374.7 110.7 367 102.4 367 100.5C367 98.7 434.5 76.7 458.5 70.7C459.6 70.5 460.6 70.2 460.8 70.1C460.9 70.1 461 70.2 461 70.6ZM844.5 77.1C863.2 82.4 913 99.4 913 100.5C913 102.4 905.3 110.7 900.6 114L896.3 116.9L886.2 109.6C871.1 98.7 835.6 78.1 822.6 72.6C814 69 821.7 70.6 844.5 77.1ZM599.3 76.1C604.2 76.7 611.2 77.9 614.8 78.8L621.5 80.5L622.7 85.5C624.6 93.9 624.6 94 620.3 92.7C614.4 91 595.6 91.4 586 93.4C581.4 94.4 571.9 97.1 565 99.3C552.7 103.3 552.3 103.4 538 103.4C523.3 103.4 514.9 102.1 506.3 98.4L502.5 96.8L508.5 93.8C523.6 86.1 547.3 79 566.2 76.5C579.4 74.9 588.3 74.7 599.3 76.1ZM225 79.6C231.3 81.6 237.4 85.3 248.4 94C254.2 98.5 257.4 101.7 256.7 102.1C256 102.4 252.8 103 249.5 103.4C246.2 103.8 234.3 105.2 223 106.6C196.5 109.7 197.4 109.7 196.1 105.9C193 96.8 196.6 85.5 204.3 80.5C209.7 77 215.9 76.8 225 79.6ZM1071.8 78.6C1082.2 82.9 1087.6 95.2 1083.9 105.9C1082.6 109.7 1083.5 109.7 1057 106.6C1045.7 105.2 1033.8 103.8 1030.5 103.4C1027.2 103 1023.9 102.4 1023.2 102.1C1022.4 101.6 1024.8 99.1 1030.3 94.8C1040.5 86.6 1046.9 82.7 1054.6 79.5C1061.5 76.7 1066.6 76.4 1071.8 78.6ZM360.6 99.1C361 100.3 357.7 101.9 344.3 106.8C324.1 114.1 319.7 115.4 292 122.1L270.5 127.2L251.5 127.3C226 127.3 212.3 124.2 203.2 116.4C197.2 111.3 197.6 110.4 206.8 109.5C211 109.1 224.8 107.6 237.3 106L260.2 103.2L265 106C270.8 109.4 278 112 281.7 112C287.9 112 294.4 107.1 299.5 98.6C300.2 97.4 304.2 96.1 311.5 94.5C317.6 93.2 329.7 89.7 338.5 86.7L354.5 81.3L357.3 89.4C358.8 93.9 360.3 98.2 360.6 99.1ZM968.3 94.5C979.9 96.8 979.8 96.8 981.9 100.8C985.2 107.2 992.3 112 998.4 112C1002.1 112 1009.8 109.2 1015.1 106L1019.8 103.2L1042.6 106C1055.2 107.6 1069 109.1 1073.3 109.5C1082.4 110.4 1082.8 111.3 1076.8 116.4C1067.7 124.3 1054 127.3 1028.5 127.3C1010.1 127.2 1009 127.1 994.5 123.6C986.3 121.6 976.6 119.2 973 118.4C961.1 115.5 952.7 112.9 935.7 106.8C922.2 101.9 919 100.4 919.4 99.1C919.7 98.2 921.2 93.9 922.7 89.4L925.4 81.3L942.8 87.1C952.3 90.3 963.8 93.6 968.3 94.5ZM632.9 85.6L640 89.1L647.1 85.6C654.1 82.1 657 81.2 657 82.7C657 83.2 656.4 85.7 655.7 88.4C654.3 93.7 654.4 93.6 645.8 97.4L640 99.9L634.3 97.4C625.6 93.6 625.7 93.7 624.3 88.4C623.6 85.7 623 83.2 623 82.7C623 81.2 625.9 82.1 632.9 85.6ZM635.7 99C639.8 100.8 639.9 100.8 646 98.3C649.4 97 652.4 96.1 652.7 96.3C653.8 97.5 641.9 116 640 116C638.5 116 627 99 627 96.7C627 95.7 629.8 96.5 635.7 99ZM298 98.3C298 101 291 107.9 286.5 109.5C282.7 111 281.3 111.1 277.3 110C272.2 108.8 262.7 104 263.5 103.2C263.9 102.8 279.3 100 297.3 97.1C297.7 97.1 298 97.6 298 98.3ZM999 100C1019.2 103.1 1018.3 102.7 1013.5 105.6C1002.2 112.5 993.7 112.1 986.3 104.4C981.8 99.8 980.6 96.5 983.8 97.4C984.7 97.6 991.6 98.8 999 100Z" fill="#495E3D"/>
<path d="M86.4 70.6C77.8 74.8 79.5 87.5 89.5 94.1C98.5 100.1 121 106.1 139 107.4C145 107.9 144 107.6 134 106C108.4 102 92.9 96.7 86 89.5C82.9 86.3 82.5 85.3 82.5 80.4C82.5 75.7 82.9 74.5 84.9 72.9C87.5 70.8 93 70.4 96.1 72.1C99.1 73.6 100.3 77.8 98.9 81.2C98 83.5 97.1 84 94.5 84C92.6 84 90.4 83.3 89.6 82.4C87.7 80.6 87.7 80.4 89 77.9C90.2 75.8 93 75.4 94.8 77.2C95.7 78.1 96 78.1 96 77.2C96 75.1 91.1 74.6 89 76.5C85.4 79.8 87.4 84.1 93.2 85.5C95.3 86 96.5 85.6 98.4 83.6C101.8 80.3 101.7 76.8 98.3 73.1C94.8 69.4 90.5 68.5 86.4 70.6Z" fill="#495E3D"/>
<path d="M31.3 94.7C30.6 95 30 96.5 30 98.1C30 105.7 38.4 113.7 48.3 115.5C51.4 116.1 52 115.9 52 114.6C52 112.6 48.6 105.7 45.6 101.7C42.2 97.1 34.6 93.4 31.3 94.7Z" fill="#495E3D"/>
<path d="M1239.5 97C1237.9 98 1235.7 100 1234.7 101.2C1231.8 104.8 1226.9 115.5 1228 115.8C1228.5 116 1231.4 115.4 1234.5 114.6C1243.3 112 1250 104.9 1250 98C1250 95.2 1249.8 95 1246.3 95C1244.2 95 1241.2 95.9 1239.5 97Z" fill="#495E3D"/>
<path d="M7.29999 113.1C1.79999 114.7 -1.30001 120.5 0.599987 125.5C1.49999 127.9 6.39999 130 10.8 130C18.2 130 37.7 122.2 37.3 119.5C37.1 118 22.3 113.2 16 112.6C13 112.3 9.09999 112.5 7.29999 113.1Z" fill="#495E3D"/>
<path d="M1260.3 113.1C1254.1 114.1 1242.9 118.2 1242.7 119.5C1242.2 122.2 1261.9 130 1269.2 130C1273.6 130 1278.5 127.9 1279.4 125.5C1281.6 119.7 1278.7 114.4 1272.5 113C1267.9 111.9 1267.4 111.9 1260.3 113.1Z" fill="#495E3D"/>
<path d="M45.2 123.6C39.3 126.5 35.7 130.7 34.2 136.3C33.1 140.4 34.1 145 36 145C38.8 145 44 141.8 46.4 138.7C49.4 134.8 53 126.2 53 123C53 120.4 51.4 120.5 45.2 123.6Z" fill="#495E3D"/>
<path d="M1227 123C1227 126.4 1230.9 135.4 1234 139.2C1237.3 143.1 1243.5 145.9 1245.2 144.2C1248.3 141.1 1245 130.7 1239.7 126.7C1232.4 121.2 1227 119.6 1227 123Z" fill="#495E3D"/>
<path d="M814.9 158.5C804.1 162.3 797 168.7 797 174.7C797 178.8 799.7 179.8 805.6 177.5C810.8 175.5 815.1 170.8 817.5 164.7C819.9 158.3 819.4 157 814.9 158.5Z" fill="#495E3D"/>
<path d="M448.5 159.8C441.3 162.8 437 166.1 434.9 170.2C432 175.9 432.6 178.4 437 178.8C442.7 179.3 449.1 174.5 452.9 166.9C454.6 163.5 456 160.1 456 159.3C456 157.6 453.4 157.7 448.5 159.8Z" fill="#495E3D"/>
<path d="M461 159.7C461 162.5 465.5 171.3 468.1 173.7C471.5 176.8 477.8 179.3 480.6 178.6C483.6 177.8 483.8 173.8 481.1 169.4C476.5 161.9 461 154.5 461 159.7Z" fill="#495E3D"/>
<path d="M824.6 160.7C826 166.6 830.1 173 833.9 175.6C838.9 178.9 845.7 180 846.6 177.6C848.5 172.6 840.1 162.6 831.5 159.6C824.7 157.3 823.8 157.5 824.6 160.7Z" fill="#495E3D"/>
<path d="M455.1 178C451.8 185 449 194.8 449 199.1C449 209.4 459.5 214.9 464.7 207.2C468.3 201.8 466.1 186.3 460 175L458.2 171.5L455.1 178Z" fill="#495E3D"/>
<path d="M818.3 178.6C809.4 198.6 813.1 214.8 825.4 209.6C832 206.8 832.5 197.5 826.9 183C822.2 170.7 821.9 170.6 818.3 178.6Z" fill="#495E3D"/>
</g>
</g>
<defs>
<clipPath id="clip0">
<rect width="1280" height="211" fill="white"/>
</clipPath>
<clipPath id="clip1">
<rect width="1280" height="640" fill="white" transform="translate(0 -214)"/>
</clipPath>
</defs>
</svg>
