<?xml version="1.0" standalone="no"?>
<!DOCTYPE svg PUBLIC "-//W3C//DTD SVG 20010904//EN"
 "http://www.w3.org/TR/2001/REC-SVG-20010904/DTD/svg10.dtd">
<svg version="1.0" xmlns="http://www.w3.org/2000/svg"
 width="1280.000000pt" height="893.000000pt" viewBox="0 0 1280.000000 893.000000"
 preserveAspectRatio="xMidYMid meet">
<metadata>
Created by potrace 1.15, written by Peter Selinger 2001-2017
</metadata>
<g transform="translate(0.000000,893.000000) scale(0.100000,-0.100000)"
fill="#000000" stroke="none">
<path d="M3430 8894 c-127 -71 -270 -196 -270 -236 0 -24 -90 -107 -230 -213
-191 -145 -339 -275 -531 -465 -156 -156 -272 -290 -250 -290 15 0 138 100
306 250 247 219 428 346 650 458 295 147 815 336 815 294 0 -5 -18 -22 -40
-37 -90 -62 -31 -56 140 15 134 56 304 110 554 176 179 46 253 71 243 80 -10
10 -211 -27 -442 -81 -132 -31 -406 -94 -610 -140 -203 -46 -412 -95 -464
-110 -51 -14 -95 -24 -97 -22 -10 9 163 112 356 212 201 104 240 128 228 141
-17 16 -161 -47 -360 -158 -147 -82 -255 -118 -218 -73 7 8 71 55 144 104 137
93 181 131 155 131 -8 0 -43 -16 -79 -36z"/>
<path d="M5946 8922 c-8 -13 60 -41 209 -87 159 -49 299 -103 442 -169 72 -34
121 -52 127 -46 15 15 -9 35 -107 83 -252 124 -649 254 -671 219z"/>
<path d="M7140 8922 c0 -13 35 -42 140 -115 52 -36 147 -104 210 -151 63 -47
120 -86 125 -85 6 0 -17 25 -50 56 -170 157 -425 335 -425 295z"/>
<path d="M7867 8923 c-9 -15 22 -113 92 -291 74 -188 124 -343 166 -509 77
-309 202 -494 438 -647 239 -157 685 -311 1167 -406 336 -66 636 -198 980
-431 255 -173 519 -413 670 -613 144 -189 190 -246 200 -246 25 0 -99 220
-223 395 -82 114 -265 308 -382 402 -188 152 -481 318 -837 474 -42 18 -75 35
-74 37 6 5 252 -27 376 -49 299 -52 793 -202 1039 -315 393 -181 731 -613 856
-1093 9 -34 27 -129 40 -210 28 -173 29 -152 11 159 -8 129 -13 236 -12 238 7
7 100 -222 117 -288 50 -193 48 -423 -5 -577 -14 -40 -23 -73 -22 -73 9 0 90
135 106 177 93 245 2 645 -218 958 -27 39 -85 112 -129 163 -86 101 -121 152
-103 152 29 0 232 -222 377 -414 139 -182 209 -348 268 -636 l34 -165 -5 145
c-9 237 -30 323 -121 501 -169 329 -588 730 -1143 1094 -239 157 -388 231
-413 206 -16 -16 11 -40 106 -99 100 -61 166 -112 144 -112 -8 0 -80 23 -159
51 -398 143 -779 219 -1197 239 -317 16 -505 44 -762 114 -356 98 -658 252
-853 436 -124 118 -130 134 -131 350 0 96 4 294 9 440 10 316 4 364 -52 420
-34 33 -37 34 -40 13 -2 -12 8 -59 22 -105 14 -45 31 -119 37 -163 22 -156
-13 -420 -55 -420 -30 0 -51 45 -96 210 -44 162 -92 291 -147 397 -35 67 -67
106 -76 91z"/>
<path d="M7746 8827 c-3 -12 -22 -94 -42 -182 -53 -239 -86 -347 -155 -511
-77 -183 -106 -352 -96 -568 14 -307 76 -467 251 -641 103 -102 200 -164 352
-227 246 -101 628 -158 1066 -158 532 0 830 -48 1258 -199 132 -47 165 -51
157 -21 -4 14 11 6 50 -30 30 -27 63 -50 74 -50 37 0 122 -55 304 -194 168
-129 184 -121 33 14 -358 319 -776 564 -1218 713 -330 111 -613 166 -1070 207
-257 23 -436 55 -575 101 -264 88 -451 254 -582 517 -61 122 -54 184 62 539
72 224 101 326 126 447 25 122 36 251 21 259 -5 4 -13 -3 -16 -16z m-146
-1412 c145 -188 249 -280 411 -361 180 -90 362 -130 658 -144 255 -12 355 -24
546 -61 332 -65 625 -161 935 -304 200 -92 326 -163 313 -176 -6 -6 -69 15
-164 55 -265 111 -349 125 -944 156 -601 31 -829 53 -1053 101 -327 71 -540
211 -678 446 -70 119 -134 276 -141 350 -6 50 -4 55 13 51 10 -2 57 -53 104
-113z"/>
<path d="M6970 8721 c0 -11 20 -48 45 -83 103 -145 134 -238 136 -403 0 -55 4
-111 8 -125 7 -24 8 -24 18 -5 24 45 56 186 60 271 5 84 3 96 -22 153 -15 34
-25 64 -22 67 11 12 65 -36 100 -89 19 -29 58 -95 87 -147 28 -52 60 -104 70
-115 20 -19 20 -19 20 10 -1 70 -82 221 -173 320 -63 70 -115 104 -212 140
-81 31 -115 32 -115 6z"/>
<path d="M5005 8689 c-55 -5 -145 -18 -200 -29 -143 -28 -322 -47 -620 -65
-374 -22 -498 -42 -628 -99 -70 -32 -169 -87 -164 -92 2 -3 35 3 73 12 86 20
401 77 554 101 163 25 643 25 815 0 665 -97 1262 -384 1719 -826 174 -169 283
-319 376 -516 65 -136 98 -232 169 -490 168 -604 412 -1124 710 -1513 268
-349 290 -384 268 -411 -10 -12 -9 -14 6 -8 11 4 17 2 17 -8 0 -11 12 -15 40
-15 45 0 98 -19 136 -49 20 -16 21 -20 8 -25 -39 -15 -137 32 -278 133 -93 66
-123 83 -114 63 2 -4 21 -42 43 -84 48 -93 43 -108 -30 -88 -25 7 -49 10 -53
6 -4 -4 -7 -29 -7 -54 l0 -47 -64 -32 c-35 -17 -125 -46 -200 -63 -298 -70
-294 -68 -305 -201 -10 -127 -28 -171 -103 -248 -76 -79 -88 -98 -102 -175 -6
-32 -31 -102 -55 -155 -103 -225 -215 -550 -223 -647 -6 -68 11 -112 69 -175
122 -134 387 -290 548 -324 41 -8 83 -18 94 -21 45 -14 0 22 -161 130 -429
286 -483 351 -438 525 8 31 33 101 55 156 46 112 80 226 80 267 0 48 37 77
108 85 34 3 65 10 68 15 3 5 -8 38 -25 74 -17 37 -31 73 -31 81 0 28 32 76
100 148 72 78 130 179 130 227 0 41 26 87 53 92 104 19 185 42 257 72 121 51
253 104 259 104 2 0 -14 -16 -37 -36 -74 -63 -53 -99 64 -106 92 -5 145 -30
290 -134 164 -119 201 -143 272 -178 121 -61 202 -78 392 -79 131 0 173 3 202
16 l37 16 -15 31 c-19 37 -62 60 -200 105 -279 92 -544 265 -544 356 0 30 1
31 32 25 18 -3 109 -41 203 -82 435 -195 577 -222 1175 -231 378 -5 491 2 248
17 l-123 7 144 1 c79 1 142 4 140 6 -2 2 -85 9 -184 15 -548 34 -857 70 -1043
122 -211 59 -454 185 -685 356 -133 99 -391 359 -493 495 -170 231 -427 687
-440 783 l-5 40 42 -45 c23 -25 99 -126 170 -225 249 -349 495 -615 784 -846
347 -278 594 -382 970 -408 359 -25 387 -20 100 19 -472 65 -877 266 -1272
632 -189 175 -320 325 -538 618 -160 214 -272 335 -299 324 -16 -6 -17 -4 -7
14 21 39 12 83 -38 181 -58 115 -79 171 -172 468 -89 287 -164 474 -289 728
-100 201 -121 255 -102 255 32 0 136 -119 369 -420 234 -303 278 -342 176
-157 -115 207 -216 324 -698 802 -462 459 -518 523 -471 541 34 13 334 -133
504 -245 335 -221 630 -626 743 -1018 10 -38 31 -140 44 -228 32 -201 58 -311
106 -451 119 -345 292 -628 537 -878 209 -213 391 -336 678 -456 247 -105 584
-201 698 -200 30 1 30 1 11 16 -11 8 -65 28 -120 45 -374 112 -564 186 -757
294 -411 231 -677 514 -873 928 -68 143 -110 275 -196 616 -83 327 -141 505
-212 655 -101 215 -194 353 -336 500 -342 353 -779 519 -1486 566 -173 11
-308 11 -450 -1z m565 -99 c190 -24 296 -69 463 -194 198 -149 398 -342 514
-496 48 -64 129 -210 116 -210 -5 0 -40 28 -78 63 -278 251 -428 357 -694 491
-239 119 -450 198 -868 326 -57 17 -103 34 -103 37 0 10 558 -5 650 -17z"/>
<path d="M3195 8356 c-61 -29 -156 -96 -135 -96 24 0 220 98 220 109 0 17 -31
13 -85 -13z"/>
<path d="M7298 8314 c-11 -11 -10 -232 1 -239 14 -8 25 120 15 187 -5 33 -12
57 -16 52z"/>
<path d="M6195 7669 c-417 -63 -1046 -177 -1435 -260 -989 -211 -1527 -418
-2135 -822 -277 -184 -499 -363 -728 -586 -159 -156 -235 -246 -244 -295 -4
-20 -26 -49 -62 -81 -118 -108 -134 -126 -124 -136 17 -17 73 13 144 76 118
105 523 360 904 568 583 318 1252 553 1915 673 280 50 592 87 985 116 l180 13
-190 7 c-644 22 -1242 -63 -1865 -267 -242 -79 -440 -137 -532 -155 -95 -19
-240 -99 -498 -275 -519 -356 -726 -485 -751 -469 -47 29 369 398 756 671 419
295 912 532 1443 694 356 108 695 185 1212 274 582 100 1047 198 1185 249 l40
15 -70 -1 c-38 0 -97 -4 -130 -9z"/>
<path d="M5115 7263 c-461 -28 -959 -138 -1368 -302 -359 -144 -704 -325 -738
-388 -7 -12 -10 -25 -8 -27 2 -3 56 18 119 45 1006 439 1363 535 2408 648 95
11 176 22 179 25 6 6 -495 5 -592 -1z"/>
<path d="M5540 6567 c-106 -58 -154 -87 -550 -327 -929 -563 -1418 -810 -1852
-934 -163 -47 -379 -99 -384 -93 -3 3 86 58 198 122 376 218 527 325 816 578
101 88 133 123 70 75 -221 -167 -385 -278 -559 -378 -439 -254 -1013 -465
-1459 -539 -124 -20 -421 -54 -426 -48 -2 2 81 36 184 77 303 120 506 231 737
402 162 120 415 374 415 417 0 14 -52 -24 -231 -173 -409 -337 -878 -573
-1325 -665 -87 -18 -400 -62 -429 -60 -11 0 -9 1 255 105 434 170 932 447
1296 720 109 81 300 262 289 272 -3 3 -65 -36 -138 -86 -275 -191 -536 -362
-652 -427 -420 -239 -898 -419 -1498 -564 -261 -63 -335 -94 -279 -116 128
-49 955 -52 1457 -5 208 19 397 44 755 100 102 15 210 31 240 35 30 3 64 9 75
12 46 13 -17 -36 -215 -165 -261 -171 -430 -298 -605 -454 -505 -450 -912
-1021 -1158 -1623 -103 -253 -213 -663 -205 -762 l3 -38 23 43 c12 23 50 127
83 230 78 241 152 444 201 557 41 93 139 277 145 272 1 -2 -6 -44 -17 -93 -30
-142 -68 -379 -81 -509 -13 -130 -7 -393 11 -535 39 -301 132 -614 256 -861
84 -168 197 -326 226 -317 23 8 19 94 -11 244 -29 141 -46 253 -54 354 -17
195 132 826 216 919 43 46 166 85 377 118 176 27 565 25 759 -6 343 -53 687
-167 1011 -335 188 -97 284 -144 310 -151 22 -6 19 -1 -20 40 -118 123 -461
307 -773 415 -103 35 -187 67 -187 71 0 12 228 -22 349 -52 223 -55 554 -183
736 -284 110 -61 306 -157 311 -152 8 8 -80 74 -173 131 -108 65 -348 187
-488 246 -214 91 -428 157 -625 192 -195 34 -1214 -2 -1434 -52 -27 -6 -51 -9
-53 -7 -2 3 14 19 37 37 38 30 39 33 23 45 -17 13 -17 15 3 57 51 102 256 333
370 414 315 225 1549 554 2409 643 302 32 594 36 907 14 l88 -6 -173 -82
c-438 -211 -924 -371 -1467 -484 -200 -42 -320 -73 -320 -83 0 -13 211 -9 337
7 495 64 1003 244 1508 535 99 57 198 114 220 126 l40 23 266 -39 c337 -49
508 -80 739 -135 223 -52 260 -59 260 -46 0 31 -552 182 -881 240 -63 12 -161
25 -219 31 -172 17 -750 23 -1134 11 -198 -6 -361 -9 -363 -8 -1 2 93 32 210
67 566 168 926 311 1277 506 399 221 694 439 1155 849 301 268 310 279 75 93
-498 -395 -868 -649 -1237 -847 -281 -151 -810 -378 -831 -356 -3 3 -2 9 3 13
6 4 75 50 155 103 340 224 629 491 997 919 208 243 313 354 498 527 251 234
565 571 565 604 0 29 -209 -159 -500 -451 -264 -264 -408 -419 -580 -625 -367
-442 -894 -862 -1399 -1114 -204 -103 -454 -201 -470 -185 -10 10 41 45 255
175 113 68 261 166 330 217 163 122 354 308 518 504 135 162 175 218 156 218
-15 0 -291 -282 -337 -345 -46 -64 -162 -157 -393 -316 -335 -230 -497 -314
-823 -425 -200 -68 -352 -110 -627 -174 -352 -82 -512 -136 -730 -245 -290
-145 -509 -330 -765 -645 -131 -162 -227 -269 -369 -413 -110 -111 -129 -147
-80 -147 42 0 64 -17 64 -51 0 -17 -18 -99 -40 -182 -70 -269 -99 -507 -101
-842 l-1 -140 -25 55 c-132 288 -214 551 -255 825 -21 142 -18 608 5 760 76
497 255 905 535 1220 312 351 718 624 1222 820 333 130 622 207 1110 299 96
17 52 20 -130 6 -357 -27 -749 -114 -1019 -224 -117 -48 -166 -62 -175 -48
-36 58 530 300 1194 511 402 127 661 216 997 342 428 160 713 284 713 309 0
19 -27 10 -300 -102 -208 -85 -741 -262 -823 -274 l-42 -5 30 25 c16 14 79 53
140 87 268 150 595 357 970 613 251 172 429 307 404 306 -2 0 -47 -24 -99 -53z
m-1895 -2849 c18 -8 22 -14 13 -20 -18 -11 -80 -10 -98 2 -13 9 -13 11 0 20
20 13 54 12 85 -2z m-355 -104 c-113 -36 -423 -135 -689 -220 -266 -85 -486
-152 -490 -149 -24 25 375 249 594 334 204 80 311 98 595 99 l195 1 -205 -65z"/>
<path d="M7868 6390 c366 -351 1173 -705 1880 -824 151 -26 293 -35 262 -17
-8 5 -103 28 -210 50 -248 53 -386 90 -580 153 -459 150 -873 348 -1205 577
-247 170 -271 180 -147 61z"/>
<path d="M9625 5051 c-16 -7 -14 -9 14 -14 44 -9 141 -8 165 2 18 7 18 8 -5
14 -32 9 -149 7 -174 -2z"/>
<path d="M9787 4593 c-17 -17 -2 -23 56 -23 57 1 60 2 43 15 -20 15 -87 21
-99 8z"/>
<path d="M10448 4323 c-20 -5 -23 -18 -8 -28 6 -4 8 -10 5 -15 -3 -5 8 -11 25
-15 37 -8 99 4 80 15 -7 4 -10 13 -6 18 5 9 -56 35 -74 31 -3 -1 -13 -3 -22
-6z"/>
<path d="M10388 4143 c-59 -52 -121 -123 -114 -130 3 -3 20 5 38 18 l33 22
-29 -31 c-46 -50 -25 -46 36 6 62 53 123 120 116 127 -3 3 -18 -5 -34 -17
l-29 -23 29 38 c39 51 17 47 -46 -10z"/>
<path d="M11289 4013 c-45 -40 -77 -93 -58 -93 15 0 119 103 119 118 0 21 -19
13 -61 -25z"/>
<path d="M10155 3868 c-493 -434 -880 -702 -1350 -933 -476 -234 -936 -382
-1465 -469 -165 -28 -446 -61 -595 -71 -49 -4 -97 -9 -105 -12 -8 -3 132 -26
312 -52 180 -26 330 -49 332 -52 7 -6 -413 -256 -509 -303 -135 -66 -152 -69
-460 -74 -315 -4 -453 5 -710 48 -490 83 -999 272 -1495 556 -454 259 -780
344 -1327 344 -554 0 -819 -45 -1111 -187 -100 -49 -113 -57 -88 -61 16 -2 75
12 135 32 335 111 688 163 1044 153 218 -6 335 -21 522 -67 302 -73 533 -171
928 -392 97 -55 216 -118 263 -140 48 -22 139 -74 203 -116 212 -138 402 -228
677 -322 282 -97 462 -133 739 -151 369 -23 756 16 1050 106 108 33 167 55
105 41 -173 -42 -664 -63 -1065 -47 -292 11 -412 25 -580 66 -216 51 -586 172
-600 196 -8 12 27 5 221 -42 89 -21 216 -45 283 -54 195 -24 689 -38 1071 -31
484 9 566 19 862 107 364 108 748 266 748 309 0 5 -13 10 -30 10 -16 0 -30 5
-30 10 0 16 89 69 126 76 47 9 57 -1 39 -37 -20 -37 -10 -38 76 -4 35 14 192
57 349 96 157 38 337 83 400 100 634 170 1465 538 1745 773 54 45 13 28 -140
-60 -576 -329 -1319 -599 -2053 -743 -197 -39 -549 -89 -677 -96 -96 -5 -99
-4 -67 10 19 9 122 35 230 60 250 56 371 89 606 165 801 262 1630 680 2141
1081 221 173 210 176 -40 12 -695 -455 -1377 -790 -2071 -1016 -494 -161 -985
-278 -1329 -317 -108 -12 -386 -13 -365 -1 8 4 62 14 120 20 981 114 1937 546
2661 1204 123 112 366 346 359 346 -3 0 -41 -32 -85 -71z m-2342 -1568 c247
-21 284 -56 136 -130 -167 -85 -553 -186 -977 -255 -154 -26 -152 -17 26 90
155 94 261 174 303 227 18 22 44 44 58 50 67 26 266 34 454 18z"/>
<path d="M3079 2975 c98 -47 434 -128 741 -179 531 -88 1418 -87 1972 3 273
45 577 113 701 158 96 35 104 44 21 27 -133 -28 -356 -64 -546 -88 -691 -88
-1292 -100 -1953 -40 -312 28 -857 106 -970 139 -11 3 4 -6 34 -20z"/>
<path d="M12003 2226 c-40 -45 -75 -112 -71 -134 4 -22 47 24 83 90 37 68 30
93 -12 44z"/>
<path d="M12746 2023 c-21 -21 -81 -93 -133 -161 -307 -399 -754 -758 -1253
-1008 -333 -166 -613 -261 -930 -314 -69 -11 -138 -23 -155 -26 -18 -3 50 43
165 113 292 177 487 322 756 565 266 239 558 576 669 773 l28 50 -32 -30 c-19
-16 -115 -124 -215 -240 -304 -352 -485 -533 -721 -724 -392 -315 -777 -514
-1445 -746 -303 -105 -523 -197 -575 -240 -19 -16 -18 -16 23 -11 23 4 187 54
365 112 403 132 673 210 1086 314 500 126 766 218 1076 375 329 165 584 353
876 645 218 217 398 432 452 537 33 64 17 70 -37 16z"/>
<path d="M3975 1854 c46 -38 132 -94 145 -94 6 0 10 8 8 18 -2 10 -37 35 -83
59 -91 48 -114 54 -70 17z"/>
<path d="M8925 1820 c-712 -321 -1043 -445 -1470 -550 -630 -155 -1132 -188
-1625 -104 -412 69 -786 192 -1335 436 -228 102 -275 121 -275 109 0 -18 373
-209 813 -417 193 -91 198 -79 -44 -110 -107 -13 -169 -15 -309 -9 -227 9
-281 8 -360 -12 -250 -61 -524 -260 -673 -489 -120 -183 -236 -445 -253 -568
-14 -96 30 -37 97 131 151 381 358 622 651 758 157 72 260 81 362 31 70 -34
100 -67 92 -100 -4 -15 -57 -71 -134 -139 -70 -63 -155 -145 -188 -183 -146
-166 -263 -339 -271 -404 -10 -74 17 -50 125 110 152 226 500 570 577 570 71
0 705 -392 1139 -704 139 -100 231 -156 256 -156 24 0 6 28 -57 90 -179 173
-707 520 -1192 781 -194 104 -255 144 -245 161 22 36 467 -65 813 -184 413
-142 817 -326 1146 -523 88 -52 161 -95 163 -95 5 0 -132 114 -200 166 -238
183 -998 545 -1321 629 -124 33 -177 55 -177 75 0 5 12 18 27 27 23 15 47 18
148 16 134 -1 263 -22 526 -82 405 -94 619 -115 1134 -115 521 0 705 19 1106
115 263 63 333 78 338 74 6 -7 -80 -116 -136 -172 -77 -76 -132 -93 -318 -101
l-150 -7 222 -73 c121 -39 226 -72 232 -72 21 0 10 -18 -56 -91 -265 -291
-423 -489 -459 -574 -39 -93 56 -1 272 265 194 240 580 618 879 861 200 163
354 270 662 463 151 94 197 126 180 126 -3 0 -121 -56 -263 -124 -143 -68
-338 -155 -434 -194 -517 -206 -1138 -363 -1652 -417 -161 -16 -538 -21 -522
-6 5 5 126 32 269 61 432 85 761 176 1014 280 347 143 921 421 921 446 0 7
-24 3 -45 -6z m-222 -633 c-266 -229 -409 -345 -455 -368 -69 -35 -116 -3 -84
58 29 57 178 182 328 275 74 46 360 187 381 188 5 0 -72 -69 -170 -153z"/>
<path d="M8966 769 c-199 -141 -405 -309 -688 -562 -269 -240 -260 -233 387
292 221 179 356 290 380 312 27 26 -18 1 -79 -42z"/>
<path d="M4721 415 c-29 -92 -71 -298 -71 -345 0 -54 23 -53 45 2 24 62 53
210 61 316 8 111 -6 123 -35 27z"/>
<path d="M6978 377 c-142 -98 -421 -347 -405 -363 10 -10 101 49 219 143 113
90 258 226 258 243 0 18 -24 10 -72 -23z"/>
<path d="M5356 99 c-14 -17 -26 -37 -26 -44 0 -20 28 -45 50 -45 39 0 67 79
38 108 -19 19 -34 14 -62 -19z"/>
</g>
</svg>
