<?xml version="1.0" standalone="no"?>
<!DOCTYPE svg PUBLIC "-//W3C//DTD SVG 20010904//EN"
 "http://www.w3.org/TR/2001/REC-SVG-20010904/DTD/svg10.dtd">
<svg version="1.0" xmlns="http://www.w3.org/2000/svg"
 width="1280.000000pt" height="1280.000000pt" viewBox="0 0 1280.000000 1280.000000"
 preserveAspectRatio="xMidYMid meet">
<metadata>
Created by potrace 1.15, written by Peter Selinger 2001-2017
</metadata>
<g transform="translate(0.000000,1280.000000) scale(0.100000,-0.100000)"
fill="#000000" stroke="none">
<path d="M3720 12737 c-23 -11 -25 -19 -28 -87 -2 -41 1 -113 8 -160 9 -68 8
-119 -5 -253 -19 -208 -19 -294 0 -391 40 -209 176 -353 410 -432 62 -21 105
-28 195 -31 111 -5 129 -3 288 34 47 11 177 -157 280 -363 22 -44 63 -120 91
-169 29 -49 54 -100 58 -114 8 -35 70 -158 83 -166 5 -3 10 -10 10 -15 0 -5
-21 4 -47 19 -92 55 -267 151 -274 151 -20 0 -31 -47 -26 -108 13 -162 204
-431 401 -564 58 -40 148 -78 185 -78 14 0 21 -10 26 -37 13 -70 75 -245 179
-506 98 -246 176 -474 176 -517 0 -13 -24 -35 -72 -66 -40 -25 -77 -48 -84
-51 -7 -3 -35 55 -74 154 -76 193 -125 288 -193 373 -44 55 -73 77 -182 142
-83 50 -147 96 -177 128 -46 50 -98 80 -139 80 -12 0 -41 -11 -63 -24 -46 -27
-311 -304 -385 -403 -149 -199 -235 -406 -248 -595 l-6 -87 -26 5 c-14 3 -80
15 -147 28 l-121 23 -164 -29 c-137 -25 -195 -31 -354 -33 l-190 -3 -38 -43
c-34 -40 -38 -48 -33 -86 21 -165 228 -533 402 -713 74 -77 97 -93 237 -169
145 -78 227 -132 227 -150 0 -14 -145 -41 -215 -40 -88 1 -137 -12 -245 -66
-202 -102 -492 -354 -561 -487 -19 -37 -19 -37 2 -56 11 -11 48 -25 82 -32 37
-7 130 -44 227 -91 187 -89 310 -126 447 -136 156 -10 270 12 680 132 l162 47
28 -20 c45 -32 144 -79 202 -96 108 -32 188 -20 267 40 30 24 30 24 129 9 146
-22 219 -19 311 11 83 28 161 64 205 95 l27 19 24 -33 c42 -56 76 -121 124
-238 26 -63 75 -171 110 -241 233 -465 354 -967 395 -1633 11 -178 7 -692 -7
-820 -3 -27 -12 -108 -20 -180 -104 -919 -116 -986 -237 -1295 -25 -63 -66
-187 -92 -275 l-46 -160 -200 -225 c-223 -250 -290 -322 -296 -316 -2 2 23 77
57 167 53 145 65 193 105 413 26 140 43 262 40 277 -3 15 1 96 11 181 18 170
15 290 -11 383 -27 95 -29 90 46 87 l67 -4 11 35 c12 35 7 69 -22 166 -12 40
-12 48 10 102 92 227 23 481 -191 707 -43 45 -130 116 -228 185 -87 61 -158
116 -158 123 0 7 28 37 62 66 155 131 159 138 221 311 63 174 69 221 41 317
-8 30 -19 102 -23 160 -8 116 -33 185 -87 249 -57 68 -179 132 -335 176 l-57
16 -41 85 c-74 154 -205 335 -365 502 -99 103 -165 153 -286 217 -64 33 -114
68 -152 107 -69 70 -123 90 -150 57 -10 -12 -19 -29 -19 -38 -1 -9 -2 -40 -4
-69 -2 -46 -12 -68 -82 -185 -71 -117 -85 -148 -122 -273 -25 -87 -45 -182
-52 -245 -10 -101 -10 -110 26 -294 20 -104 48 -224 61 -265 13 -41 24 -78 24
-82 0 -9 -74 1 -140 18 -30 9 -121 49 -202 90 -184 92 -274 119 -378 111 -41
-3 -172 -27 -290 -53 -207 -44 -224 -46 -445 -54 -255 -9 -428 -19 -462 -26
-20 -4 -23 -11 -23 -55 0 -116 78 -304 191 -464 73 -103 275 -309 366 -375
157 -113 317 -193 445 -223 27 -7 48 -15 48 -18 0 -4 -17 -10 -37 -14 -20 -3
-70 -20 -112 -36 -256 -101 -553 -335 -738 -579 -105 -139 -200 -352 -180
-403 4 -12 45 -16 214 -22 114 -4 287 -8 383 -8 191 -1 257 11 422 74 l77 30
48 -25 c66 -33 112 -44 233 -56 241 -25 632 43 850 148 61 30 93 55 167 132
51 52 93 102 93 110 0 8 13 49 29 90 16 41 48 155 71 253 24 97 45 175 47 173
3 -2 15 -80 28 -173 38 -270 68 -375 144 -495 109 -173 331 -299 531 -302 47
-1 97 2 111 6 37 11 42 -4 45 -149 2 -92 7 -131 20 -155 83 -158 -79 -886
-292 -1310 -52 -105 -137 -232 -197 -296 -93 -99 -278 -203 -666 -376 -106
-48 -211 -96 -233 -107 -22 -11 -102 -38 -179 -60 -77 -21 -189 -55 -249 -75
-94 -30 -111 -38 -116 -59 -13 -51 -4 -55 123 -55 69 1 170 9 243 21 69 11
186 24 260 29 173 10 353 41 605 103 55 14 130 28 167 31 160 15 847 244 1268
423 388 165 625 303 913 531 343 273 610 532 743 722 45 63 99 133 121 155 39
41 363 551 443 700 371 685 840 1149 1375 1360 184 73 436 115 684 115 225 0
306 -16 456 -90 141 -70 212 -85 233 -50 11 18 10 25 -8 49 -23 34 -116 115
-180 158 -149 101 -436 206 -680 249 -115 21 -366 23 -490 5 -545 -79 -1155
-412 -1587 -866 -57 -60 -111 -110 -120 -111 -8 -1 -16 -4 -17 -6 -16 -22
-240 -277 -242 -275 -2 2 24 65 57 142 241 560 419 1127 419 1336 0 26 7 80
15 120 8 41 37 189 64 329 39 200 75 340 165 645 63 215 119 402 125 415 6 14
33 84 60 155 104 273 314 707 449 925 107 175 389 577 496 710 56 69 115 143
131 165 75 104 309 323 495 465 236 180 508 334 696 396 74 24 106 29 189 29
91 0 106 -3 165 -31 36 -17 92 -50 124 -72 33 -23 67 -42 77 -42 17 0 79 54
79 69 0 4 -16 34 -36 67 -94 156 -240 244 -407 244 -40 0 -142 -14 -227 -30
-85 -17 -205 -39 -267 -50 -131 -23 -224 -55 -463 -157 -296 -126 -550 -267
-792 -440 -227 -163 -640 -507 -709 -591 -25 -32 -129 -158 -230 -282 -262
-322 -399 -515 -450 -635 -7 -16 -48 -91 -90 -165 -51 -90 -124 -247 -217
-470 -117 -279 -148 -364 -186 -510 -58 -222 -301 -1319 -316 -1425 -46 -327
-82 -481 -135 -585 -18 -36 -44 -112 -58 -170 -20 -83 -77 -224 -272 -675
-136 -313 -252 -574 -257 -580 -14 -15 1 39 30 110 19 47 26 88 33 191 4 72
15 151 23 175 11 31 21 168 36 466 l22 422 -22 408 -21 408 -65 344 c-35 189
-67 347 -70 352 -2 4 -50 135 -105 291 -109 308 -185 506 -248 638 l-40 85
173 12 c309 20 431 67 628 240 171 150 167 148 287 188 154 51 151 46 91 188
-65 152 -85 192 -128 249 -105 139 -242 177 -669 185 -150 3 -273 9 -273 12 0
4 14 20 31 37 46 43 133 180 162 254 29 73 74 294 84 405 4 54 -2 127 -22 272
l-27 198 50 145 c28 80 112 287 187 460 196 454 277 600 406 732 62 63 69 68
110 68 24 0 91 -12 149 -27 l105 -27 236 32 c275 37 396 65 513 120 109 52
164 90 255 176 133 129 200 249 305 547 30 85 65 180 79 211 14 31 23 59 19
62 -12 13 -67 5 -128 -20 -36 -14 -67 -24 -69 -22 -3 2 0 31 5 64 6 36 6 88 1
134 -5 41 -15 120 -21 175 -14 114 -31 165 -57 165 -10 0 -54 -12 -98 -26 -57
-19 -99 -26 -146 -25 -37 1 -101 -6 -144 -14 -42 -9 -79 -15 -81 -13 -2 2 2
21 8 41 6 20 8 40 4 44 -4 5 -75 10 -157 11 l-149 4 6 41 c4 23 19 73 35 111
31 74 36 106 17 106 -7 0 -51 -12 -97 -25 -47 -14 -91 -25 -99 -25 -20 0 -10
56 19 114 38 76 12 91 -106 61 -135 -35 -391 -185 -518 -305 -152 -142 -296
-426 -354 -700 -28 -130 -25 -404 5 -523 28 -112 70 -213 126 -301 l44 -69
-44 -54 c-66 -81 -138 -209 -308 -553 -136 -274 -160 -331 -187 -435 -34 -129
-47 -161 -76 -187 -17 -16 -23 -16 -68 -2 -63 19 -101 12 -141 -27 -30 -29
-33 -30 -42 -12 -28 51 -272 692 -317 831 l-17 52 58 152 58 151 -16 139 c-14
116 -20 144 -40 171 -39 52 -67 104 -135 252 -93 205 -141 285 -170 285 -22 0
-23 -2 -23 -94 0 -84 -4 -104 -36 -190 l-37 -96 -22 32 c-83 124 -405 734
-405 768 0 6 23 56 51 111 38 77 47 104 39 114 -6 8 -20 61 -30 119 -44 245
-86 337 -189 423 -155 128 -299 197 -681 328 -140 48 -259 89 -265 91 -5 2
-21 -2 -35 -9z m365 -162 c123 -41 291 -126 388 -195 169 -122 270 -254 326
-430 39 -122 46 -169 32 -213 -14 -40 -61 -91 -61 -64 0 8 -8 18 -18 21 -14 5
-17 14 -14 41 4 30 7 34 19 24 11 -9 17 -9 26 0 16 16 -3 45 -32 49 -14 2 -21
11 -21 25 0 12 -9 42 -20 66 -11 24 -20 55 -20 70 -1 123 -276 397 -527 525
-59 29 -83 33 -83 12 0 -20 47 -54 147 -106 167 -88 358 -291 394 -420 7 -25
16 -49 21 -54 4 -6 8 -21 8 -36 0 -14 7 -56 15 -95 9 -45 11 -73 5 -79 -6 -6
-10 -25 -10 -43 0 -31 7 -38 37 -34 13 2 4 -19 -30 -70 -16 -24 -23 -26 -57
-22 -24 3 -40 2 -40 -4 0 -12 -55 -27 -85 -24 -10 1 -37 -6 -58 -14 -22 -9
-47 -13 -58 -10 -12 4 -23 -1 -31 -14 -15 -24 -61 -30 -52 -7 3 8 19 20 35 26
37 16 35 44 -4 48 -18 2 -29 -2 -33 -12 -3 -9 -12 -16 -18 -16 -7 0 -21 -6
-31 -14 -16 -12 -17 -16 -6 -30 12 -14 11 -16 -7 -16 -24 0 -37 16 -22 25 17
11 -9 35 -36 35 -13 0 -29 -9 -36 -19 -9 -15 -17 -17 -37 -10 -158 57 -255
175 -298 359 -20 87 -24 310 -9 611 l9 186 106 -23 c58 -12 142 -34 186 -49z
m3420 -414 c-3 -6 -11 -8 -17 -5 -6 4 -5 9 3 15 16 10 23 4 14 -10z m-45 -51
c3 0 -2 -4 -10 -9 -18 -10 -82 -2 -75 10 4 6 46 6 85 -1z m-130 -41 c0 -6 -4
-7 -10 -4 -5 3 -10 11 -10 16 0 6 5 7 10 4 6 -3 10 -11 10 -16z m317 -61 c-3
-13 -9 -44 -12 -71 -9 -56 -23 -69 -43 -39 -19 28 -30 28 -42 -2 -5 -13 -19
-25 -33 -28 -18 -4 -24 -1 -20 8 6 17 -40 39 -62 30 -10 -4 -15 -12 -11 -21 3
-8 9 -21 12 -29 3 -9 -4 -16 -23 -21 -44 -10 -187 -80 -237 -114 -39 -27 -46
-29 -46 -14 0 10 -10 31 -23 47 l-23 29 -48 -54 c-78 -88 -186 -256 -186 -289
0 -35 15 -46 37 -28 15 11 16 11 9 -7 -23 -58 -52 -149 -75 -241 -26 -99 -28
-103 -44 -84 -21 25 -33 25 -46 2 -14 -27 2 -46 34 -40 25 5 27 4 21 -24 -3
-17 -6 -48 -6 -69 0 -37 -2 -39 -30 -39 -35 0 -37 5 -43 141 -6 119 6 286 28
376 39 160 143 319 271 414 119 88 202 115 419 138 55 6 125 19 155 30 71 25
73 25 67 -1z m261 -203 c4 -3 -15 -221 -23 -272 -5 -26 -12 -34 -42 -44 -22
-7 -38 -8 -42 -2 -3 6 -16 15 -27 21 -23 12 -35 5 -47 -28 -4 -12 -6 -11 -6 3
-1 18 -46 41 -62 31 -5 -3 -9 -12 -9 -20 0 -25 -45 -35 -81 -17 l-32 16 24 19
c78 62 154 112 213 139 36 17 68 34 71 39 2 4 -5 16 -16 26 -18 16 -23 16 -42
4 -12 -7 -71 -42 -132 -78 -60 -35 -133 -80 -162 -99 -65 -43 -161 -145 -170
-181 -3 -15 -13 -33 -20 -41 -8 -8 -12 -23 -9 -35 6 -29 -87 -104 -109 -86
-32 26 -115 -19 -101 -56 5 -13 14 -15 39 -10 30 6 31 6 11 -8 -17 -12 -29
-13 -59 -5 -44 13 -65 6 -65 -20 0 -12 11 -23 31 -30 17 -6 28 -15 24 -21 -7
-11 -39 2 -50 19 -7 12 -83 12 -91 0 -3 -5 0 -18 7 -30 9 -17 17 -20 44 -16
24 4 35 1 39 -9 4 -11 1 -14 -13 -9 -11 3 -22 1 -26 -5 -5 -8 -11 -7 -22 2
-12 10 -18 9 -29 -7 -21 -28 -12 -40 29 -40 42 -1 50 -6 41 -29 -4 -10 -11
-13 -18 -8 -22 17 -71 8 -81 -15 -5 -13 -15 -23 -21 -23 -6 0 -11 -21 -12 -51
-1 -46 1 -50 21 -47 16 2 22 10 23 28 2 55 4 60 24 60 33 0 34 -26 5 -76 -20
-34 -31 -44 -43 -39 -10 4 -25 10 -36 13 -17 5 -18 14 -13 146 4 112 10 160
31 231 55 186 156 347 307 489 55 52 88 76 105 76 14 0 43 9 66 21 23 12 101
32 174 45 73 13 143 29 156 34 20 8 216 4 226 -5z m529 -81 c1 -48 -1 -55 -15
-48 -38 15 -62 16 -62 2 0 -21 47 -61 64 -55 11 4 16 -7 21 -53 4 -32 4 -73 0
-91 -4 -18 -3 -34 3 -38 17 -11 19 -66 2 -66 -8 0 -17 9 -20 20 -4 12 -16 21
-32 23 -20 2 -30 -4 -44 -27 -23 -38 -37 -40 -23 -3 45 112 20 189 -49 153 -9
-4 -29 -11 -44 -15 -22 -5 -25 -3 -21 14 5 17 0 20 -28 21 l-34 1 30 7 c38 8
49 49 15 58 -19 5 -15 10 29 35 28 16 51 36 51 44 0 22 -30 29 -54 14 -52 -33
-206 -107 -206 -99 0 5 -9 9 -20 9 -28 0 -27 45 2 61 18 9 20 9 15 -4 -3 -9 1
-21 10 -28 12 -11 18 -9 34 11 10 14 19 30 19 37 0 14 24 19 162 33 53 5 113
16 135 24 57 21 58 20 60 -40z m-1328 -41 c-1 -5 -24 -28 -51 -53 l-51 -45 27
53 c21 42 31 52 51 52 14 0 25 -3 24 -7z m1034 -87 c4 -10 -4 -15 -24 -18 -45
-7 -39 5 17 31 1 1 4 -5 7 -13z m-65 -74 c9 -14 10 -22 3 -22 -6 0 -11 7 -11
15 0 7 -8 19 -17 25 -10 6 -12 10 -4 8 8 -2 21 -14 29 -26z m-85 -12 c-3 -11
-7 -20 -9 -20 -2 0 -4 9 -4 20 0 11 4 20 9 20 5 0 7 -9 4 -20z m-473 -52 c0
-19 -31 -47 -46 -41 -12 4 -11 10 7 29 24 26 39 31 39 12z m698 -74 c-10 -30
-28 -114 -38 -187 -26 -171 -50 -244 -121 -372 -74 -133 -126 -204 -209 -285
-180 -175 -429 -239 -774 -200 l-89 11 -34 -33 c-87 -84 -249 -354 -409 -683
-122 -250 -187 -413 -222 -553 l-26 -103 -28 28 -28 28 95 244 c186 477 268
644 358 734 44 44 57 62 52 77 -5 15 -2 20 12 20 22 0 45 34 37 55 -5 11 -2
14 10 9 22 -8 49 15 43 37 -3 11 2 19 15 22 18 5 19 11 13 75 -36 362 356 911
765 1072 91 36 152 43 252 29 l90 -12 -55 -17 c-31 -10 -73 -31 -94 -48 -21
-16 -81 -55 -133 -87 -87 -53 -126 -82 -206 -157 -57 -54 -71 -74 -113 -173
-99 -227 -220 -388 -334 -444 -50 -24 -63 -40 -53 -66 5 -14 11 -13 48 6 122
62 343 343 405 513 10 27 28 60 41 72 12 13 22 28 22 34 0 6 11 15 25 20 14 5
25 15 25 22 0 7 26 28 58 46 31 18 98 64 147 102 102 79 107 82 190 107 47 14
61 23 63 40 3 18 12 22 60 28 31 4 77 15 102 25 25 10 48 18 51 19 3 1 -3 -24
-13 -55z m-3222 -309 c63 -126 150 -297 194 -380 140 -264 249 -526 444 -1069
53 -148 95 -270 94 -272 -10 -10 -26 19 -47 86 -13 41 -48 127 -78 190 -73
154 -140 327 -159 414 -9 39 -31 107 -49 151 -62 150 -325 657 -410 790 -107
168 -145 247 -145 303 0 23 -3 42 -7 42 -20 1 -33 18 -27 35 14 36 73 -54 190
-290z m2424 298 c0 -10 -42 -53 -52 -53 -16 0 -8 22 15 41 23 19 37 24 37 12z
m1000 -23 c0 -5 -7 -10 -15 -10 -8 0 -15 5 -15 10 0 6 7 10 15 10 8 0 15 -4
15 -10z m-45 -69 c-8 -13 -42 -14 -50 -2 -3 5 7 11 22 13 33 4 37 3 28 -11z
m225 -68 c-16 -32 -43 -111 -59 -175 -35 -138 -51 -172 -129 -269 -105 -132
-261 -262 -395 -330 l-58 -30 6 35 c5 25 3 36 -8 43 -14 7 -13 11 4 33 l19 25
6 -22 c6 -23 30 -37 46 -27 11 7 1 76 -13 85 -5 3 25 63 68 133 59 99 78 124
85 112 18 -32 68 -12 68 26 0 13 -8 18 -25 18 -29 0 -32 8 -8 25 15 11 16 17
4 53 -13 38 -10 62 9 62 5 0 10 -10 12 -22 2 -15 11 -24 26 -26 24 -4 30 16
11 35 -7 7 -8 17 -3 25 5 7 9 33 9 57 0 56 13 65 190 125 70 25 132 49 138 55
26 26 25 7 -3 -46z m-313 25 c-3 -8 -6 -5 -6 6 -1 11 2 17 5 13 3 -3 4 -12 1
-19z m-2766 -523 c56 -115 72 -188 73 -330 0 -116 -18 -250 -35 -260 -11 -8
-36 43 -49 99 -7 32 -7 68 1 122 9 59 9 78 -1 84 -9 6 -9 12 1 29 11 16 11 25
3 39 -7 10 -15 50 -19 90 -7 71 -7 72 -36 72 -22 0 -29 -5 -29 -19 0 -11 4
-22 9 -25 4 -3 11 -38 15 -77 3 -40 11 -78 17 -85 7 -9 7 -19 0 -33 -6 -11
-11 -31 -11 -45 0 -14 -4 -26 -9 -26 -19 0 -70 71 -87 122 -28 80 -25 240 5
337 l22 74 45 -44 c27 -26 61 -77 85 -124z m1256 109 c-2 -3 -17 1 -33 8 -28
11 -28 12 -6 16 13 2 26 11 30 20 5 13 8 10 10 -11 2 -16 2 -31 -1 -33z m-18
-52 c-9 -14 -7 -29 5 -66 9 -27 14 -51 12 -54 -3 -2 -8 9 -12 24 -4 16 -14 42
-23 57 -15 27 -15 29 3 43 26 18 28 18 15 -4z m-1690 -278 c3 -3 -1 -10 -7
-16 -18 -18 -14 -66 8 -88 11 -11 55 -37 98 -59 43 -22 83 -45 89 -53 5 -7 23
-46 38 -86 22 -57 26 -75 16 -85 -27 -27 -205 98 -296 210 -58 70 -115 185
-115 230 l0 33 83 -41 c45 -23 84 -43 86 -45z m119 -103 c7 -22 -42 15 -68 51
l-24 33 44 -36 c24 -20 46 -41 48 -48z m2736 9 c-10 -4 -31 -10 -46 -14 -26
-6 -26 -6 -12 23 14 29 15 29 46 13 28 -13 29 -16 12 -22z m-99 -20 c3 -6 -4
-10 -17 -10 -18 0 -20 2 -8 10 19 12 18 12 25 0z m-2885 -839 c219 -163 339
-299 430 -484 28 -56 50 -105 50 -108 0 -3 -10 -4 -23 -2 -31 6 -55 -21 -37
-42 14 -17 46 -20 55 -5 13 21 22 8 44 -61 23 -70 23 -72 4 -91 -23 -23 -56
-15 -48 12 3 10 1 21 -5 25 -8 5 -4 12 9 22 25 17 27 36 6 53 -20 17 -37 1
-37 -33 0 -16 -6 -24 -17 -23 -10 1 -17 -8 -19 -24 -2 -13 -10 -29 -18 -35 -7
-5 -17 -25 -20 -42 -6 -32 -5 -33 25 -33 17 0 31 -2 31 -4 0 -3 -13 -19 -30
-37 -16 -18 -44 -60 -62 -94 -31 -57 -35 -60 -55 -50 l-22 12 19 36 c30 56 27
69 -17 65 -37 -3 -41 -7 -29 -38 4 -10 -2 -19 -16 -25 -30 -13 -35 -41 -9 -50
12 -4 18 -12 14 -21 -3 -8 1 -21 8 -30 12 -14 11 -16 -6 -13 -10 2 -27 18 -37
35 -15 25 -16 37 -8 59 6 15 8 31 4 36 -9 15 -40 10 -59 -11 -20 -22 -14 -50
10 -50 9 0 13 -5 10 -10 -4 -6 -12 -7 -18 -3 -7 4 -25 7 -42 8 -35 0 -47 29
-19 49 23 17 11 46 -19 46 -14 0 -35 -13 -53 -33 l-29 -34 -33 20 c-27 16 -40
18 -75 10 -38 -8 -47 -6 -95 24 -29 18 -59 33 -67 33 -25 0 -17 -34 16 -68 44
-45 31 -50 -15 -7 -43 40 -56 43 -63 15 -4 -15 -14 -20 -42 -20 l-36 1 33 14
c20 9 32 21 32 33 0 23 -21 34 -41 21 -8 -4 -24 -6 -35 -3 -30 8 -67 -13 -60
-33 8 -20 -1 -33 -19 -26 -19 7 -19 27 0 43 18 15 20 50 3 50 -9 0 -9 3 0 12
15 15 16 164 1 174 -20 12 -30 -13 -36 -89 -5 -63 -9 -78 -24 -82 -20 -7 -35
-47 -24 -64 3 -6 2 -11 -4 -11 -16 0 -22 33 -12 67 5 17 7 34 4 37 -12 11 -8
92 5 105 16 17 12 45 -8 48 -26 5 -41 -12 -46 -51 -2 -20 -14 -46 -26 -58
l-21 -21 21 -18 c27 -21 27 -25 3 -55 -16 -20 -20 -21 -25 -8 -17 45 0 211 34
319 72 233 166 370 372 537 53 43 116 100 140 128 23 27 47 46 52 43 6 -4 63
-45 126 -92z m6203 -145 c118 -25 198 -58 232 -95 l19 -22 -29 11 c-154 59
-156 60 -257 60 -97 0 -106 -2 -292 -66 -105 -36 -235 -89 -290 -116 -333
-171 -709 -504 -1037 -918 -42 -52 -130 -179 -197 -282 -66 -103 -142 -213
-168 -245 -93 -113 -167 -242 -336 -583 -156 -315 -179 -369 -269 -625 -115
-332 -246 -764 -247 -820 -1 -22 -22 -101 -47 -175 -40 -115 -48 -152 -55
-254 -19 -250 -81 -547 -174 -835 -30 -91 -59 -195 -66 -231 -6 -35 -29 -112
-50 -170 -77 -218 -291 -689 -387 -855 -22 -38 -43 -81 -46 -95 -12 -50 -272
-443 -439 -662 -32 -42 -58 -84 -58 -92 0 -8 -9 -20 -19 -26 -24 -12 -127
-138 -233 -282 -159 -217 -599 -634 -937 -888 -193 -145 -436 -304 -541 -353
-52 -25 -144 -68 -205 -97 -60 -28 -117 -58 -126 -66 -9 -8 -151 -60 -315
-115 -239 -80 -334 -107 -472 -133 -95 -18 -169 -30 -165 -26 5 3 87 37 183
75 319 125 680 322 922 503 301 224 773 685 917 893 338 492 406 599 506 799
119 237 385 795 385 806 0 5 16 45 35 89 19 45 53 150 75 233 22 84 45 162 51
174 6 12 32 76 56 142 58 157 275 1092 343 1477 35 198 59 304 84 373 20 53
42 132 50 176 101 530 394 1137 822 1700 345 455 784 869 1174 1106 212 129
517 273 805 381 92 35 183 57 390 98 149 30 276 54 282 54 7 1 64 -10 126 -23z
m-5393 -85 c0 -5 3 -16 6 -25 4 -12 0 -16 -15 -16 -22 0 -25 8 -15 34 7 17 24
22 24 7z m39 -111 c1 -3 -8 -6 -19 -6 -23 0 -24 1 -8 29 11 21 11 21 19 2 4
-11 8 -22 8 -25z m340 -166 c127 -114 196 -398 171 -705 -15 -180 -43 -294
-102 -415 -37 -76 -77 -115 -148 -145 -30 -13 -101 -52 -158 -87 -127 -79
-169 -92 -289 -91 -77 1 -92 3 -83 14 9 10 6 19 -10 35 -28 28 -22 32 19 13
31 -16 35 -15 89 11 77 38 168 104 218 158 73 79 121 181 94 198 -22 14 -39 0
-71 -59 -34 -65 -97 -131 -178 -185 -60 -40 -69 -43 -67 -20 0 9 -7 21 -17 28
-15 9 -20 8 -28 -6 -6 -11 -22 -18 -39 -18 -17 0 -33 -7 -39 -17 -9 -16 -10
-15 -11 5 0 13 4 21 10 17 12 -7 53 33 45 45 -3 5 3 18 15 30 26 26 25 38 -2
50 -22 8 -22 9 4 9 22 1 45 24 137 143 60 78 127 175 148 216 34 67 38 83 38
148 0 40 -4 76 -8 80 -21 21 -45 -23 -93 -163 -27 -82 -62 -170 -77 -195 -37
-64 -93 -115 -159 -146 -53 -25 -58 -30 -58 -59 0 -23 5 -33 15 -33 13 0 13
-3 3 -20 -10 -16 -10 -22 -1 -28 9 -6 7 -11 -7 -20 -18 -11 -20 -10 -20 10 0
12 -5 50 -11 85 -9 53 -15 66 -35 73 -15 6 -22 15 -18 25 4 9 -1 17 -11 21 -9
4 -27 17 -40 29 l-22 23 23 11 c13 6 24 15 24 20 0 15 -40 24 -55 11 -9 -7
-15 -7 -19 -1 -4 6 -13 8 -21 5 -12 -5 -14 0 -9 25 6 27 4 31 -16 31 -18 0
-20 3 -10 15 6 8 9 23 6 33 -4 12 1 25 14 37 11 10 20 14 21 9 2 -43 10 -98
15 -105 8 -14 51 -10 57 5 3 8 0 20 -7 26 -18 14 -26 56 -14 68 14 14 0 52
-18 52 -18 0 -19 -9 15 93 68 200 118 250 400 398 58 30 122 77 205 151 67 59
124 108 127 108 4 0 30 -21 58 -46z m-285 -34 c-12 -13 -16 -13 -23 -1 -6 8
-3 19 8 30 14 15 17 15 22 1 4 -8 0 -22 -7 -30z m-1592 -442 c-11 -11 -32 -3
-32 12 0 4 9 6 21 3 13 -4 17 -9 11 -15z m-431 -3 c57 -5 66 -9 62 -24 -7 -26
22 -45 158 -103 139 -60 207 -107 339 -235 61 -60 81 -85 72 -91 -17 -11 -5
-40 20 -48 21 -6 68 29 68 51 0 15 -138 147 -220 211 -96 75 -152 111 -254
165 -50 27 -86 49 -80 49 6 0 58 -13 116 -30 200 -56 336 -121 426 -203 42
-40 53 -59 30 -54 -19 3 -24 -113 -6 -124 21 -13 26 -11 42 19 19 33 20 11 3
-44 -8 -27 -17 -39 -26 -36 -7 2 -17 -2 -22 -9 -12 -19 -11 -49 1 -49 6 0 20
-8 31 -19 17 -16 18 -19 5 -24 -21 -8 -20 -41 0 -61 14 -15 13 -16 -9 -16 -16
0 -28 8 -35 25 -13 28 -37 33 -46 9 -3 -8 -10 -13 -15 -10 -12 8 -41 -21 -41
-41 0 -9 8 -22 17 -29 27 -19 12 -24 -34 -12 -37 9 -41 12 -30 28 8 14 8 25
-1 45 -16 34 -34 28 -47 -14 -9 -29 -12 -32 -39 -27 -39 8 -42 13 -23 34 22
24 21 39 -3 47 -28 9 -63 -13 -57 -35 4 -17 2 -17 -31 -3 -46 19 -72 36 -167
108 -198 151 -378 250 -475 262 -46 5 -50 4 -50 -15 0 -15 40 -43 178 -124
226 -134 326 -190 487 -275 122 -64 130 -70 127 -95 -4 -32 12 -37 39 -12 15
13 23 14 58 3 40 -12 50 -22 33 -33 -5 -3 -8 -22 -7 -43 1 -39 3 -40 73 -59 9
-3 10 -9 3 -22 -6 -11 -6 -24 0 -35 7 -12 6 -17 -3 -17 -46 0 -170 28 -341 76
-144 41 -202 53 -210 45 -16 -16 16 -46 79 -76 75 -35 270 -84 369 -91 57 -5
86 -11 89 -20 8 -20 30 -17 51 6 25 28 63 26 67 -2 2 -14 10 -23 21 -23 10 0
21 -6 26 -13 4 -7 26 -13 48 -15 27 -1 39 -6 36 -14 -3 -7 -10 -10 -16 -6 -5
3 -130 9 -276 13 -265 7 -266 7 -361 39 -344 117 -652 391 -834 741 -70 135
-114 259 -97 270 7 4 54 13 105 20 50 6 129 18 175 26 107 19 117 11 14 -11
-98 -20 -155 -41 -187 -66 -23 -18 -26 -28 -26 -84 0 -35 4 -66 9 -69 26 -17
54 22 55 79 1 16 18 24 96 46 109 30 179 59 198 82 17 20 8 37 -21 38 -12 0 7
9 43 19 37 10 84 17 110 15 25 -2 75 -7 111 -10z m525 -42 c-6 -6 -36 9 -36
18 0 5 9 4 20 -3 10 -7 18 -14 16 -15z m559 -103 c26 -26 27 -30 10 -30 -11 0
-39 9 -62 20 -42 18 -42 18 -67 -1 -13 -11 -34 -35 -45 -53 -22 -35 -46 -50
-62 -40 -15 9 18 61 73 113 l52 50 35 -15 c20 -8 49 -28 66 -44z m-405 40 c0
-5 -4 -10 -9 -10 -6 0 -13 5 -16 10 -3 6 1 10 9 10 9 0 16 -4 16 -10z m550
-34 c0 -3 -4 -8 -10 -11 -5 -3 -10 -1 -10 4 0 6 5 11 10 11 6 0 10 -2 10 -4z
m175 -6 c-3 -5 -12 -7 -20 -3 -21 7 -19 13 6 13 11 0 18 -4 14 -10z m-158
-132 c30 -28 29 -38 -6 -72 l-30 -28 -58 33 c-71 40 -113 70 -113 81 0 4 41 8
92 8 80 0 95 -3 115 -22z m-287 -79 c0 -25 -61 -102 -72 -91 -13 13 6 72 34
107 16 21 23 24 29 13 5 -7 9 -20 9 -29z m131 -69 c15 -12 42 -25 58 -31 27
-10 31 -17 47 -87 9 -42 18 -80 21 -84 6 -12 -54 -38 -87 -38 -63 0 -124 50
-124 103 0 31 41 157 51 157 3 0 18 -9 34 -20z m414 -211 c121 -180 83 -310
-120 -406 -145 -69 -263 -56 -388 43 -32 25 -76 72 -97 105 -66 103 -63 190 8
231 l30 18 21 -83 c31 -117 60 -192 84 -217 19 -22 25 -22 116 -16 193 13 202
15 216 50 21 51 38 175 31 229 -9 66 -24 92 -85 150 -28 26 -51 52 -51 58 0 6
8 21 18 34 l17 24 78 -77 c43 -42 98 -107 122 -143z m-642 66 c-3 -9 -8 -14
-10 -11 -3 3 -2 9 2 15 9 16 15 13 8 -4z m-164 -125 c-1 -3 3 -15 9 -26 14
-27 3 -39 -14 -16 -16 21 -18 55 -3 50 6 -2 9 -6 8 -8z m566 -30 c-3 -5 -14
-10 -23 -9 -14 0 -13 2 3 9 27 11 27 11 20 0z m55 -100 c0 -26 -5 -31 -42 -41
-57 -17 -164 -17 -179 -2 -7 7 -11 15 -8 17 2 2 39 9 82 15 43 6 90 18 105 26
38 20 42 19 42 -15z m440 -4 c0 -3 -4 -8 -10 -11 -5 -3 -10 -1 -10 4 0 6 5 11
10 11 6 0 10 -2 10 -4z m-1040 -26 c-17 -17 -60 -28 -60 -16 0 23 17 36 46 36
l34 0 -20 -20z m1605 -79 c66 -6 210 -13 320 -16 217 -7 274 -15 350 -51 91
-42 193 -164 265 -315 l29 -62 -97 -48 c-61 -30 -163 -97 -272 -179 -182 -135
-297 -203 -384 -226 -82 -22 -309 -19 -389 6 -58 18 -64 22 -60 43 6 32 -22
55 -47 39 -11 -7 -33 -9 -50 -6 -29 6 -30 8 -14 25 9 11 30 19 46 19 32 0 37
19 12 44 -18 19 -26 20 -42 6 -8 -7 -9 -7 -3 1 5 6 20 17 33 23 15 8 22 20 21
34 -4 30 11 29 162 -19 144 -45 255 -69 319 -69 54 0 136 24 169 50 14 11 32
17 41 14 21 -8 46 13 46 37 0 30 -42 41 -91 24 -83 -30 -210 -40 -326 -26 -92
10 -257 40 -314 57 -18 5 -34 40 -38 82 -2 24 -39 13 -45 -14 -13 -50 -56 -97
-56 -61 0 7 9 18 20 25 23 14 26 40 6 48 -8 3 -12 13 -9 24 3 10 0 21 -6 24
-6 4 -8 18 -5 32 4 16 1 29 -9 37 -8 7 -17 32 -20 57 -3 25 -14 51 -24 60 -10
8 -18 24 -18 35 0 30 -50 33 -65 5 -9 -16 -8 -25 0 -35 10 -12 7 -17 -13 -24
-14 -5 -27 -16 -30 -23 -3 -7 -3 2 0 21 l6 34 -41 -5 -41 -6 17 23 c9 13 19
19 20 14 11 -30 72 15 72 54 0 23 21 37 40 27 23 -12 44 12 37 40 -4 17 0 20
24 20 19 0 29 -5 29 -15 0 -8 7 -15 16 -15 14 0 14 -2 0 -22 -21 -30 -20 -48
3 -48 30 0 47 28 33 51 -10 16 -10 23 0 34 7 8 19 21 26 30 19 23 42 19 39 -7
-3 -28 33 -37 53 -13 11 13 11 21 2 36 -11 17 -9 21 12 30 20 10 28 8 42 -5
22 -22 39 -15 37 15 -3 37 5 51 24 45 10 -3 72 -10 138 -15z m-1547 -45 c10
-22 8 -24 -20 -30 -57 -11 -61 -8 -36 23 28 37 42 38 56 7z m75 -83 c-7 -2
-19 -2 -25 0 -7 3 -2 5 12 5 14 0 19 -2 13 -5z m608 -115 c8 -16 8 -19 -2 -16
-6 2 -16 14 -20 27 -11 27 6 19 22 -11z m-91 -3 c0 -15 7 -28 18 -32 9 -4 23
-15 30 -25 17 -23 27 -23 51 3 l20 22 7 -29 c9 -37 20 -44 69 -44 154 -2 298
-210 255 -371 -17 -63 -100 -142 -171 -163 -66 -20 -100 -20 -252 0 -66 8
-136 13 -154 9 -19 -3 -75 -26 -126 -51 -82 -40 -98 -45 -147 -42 -30 2 -77
14 -103 27 -46 22 -167 124 -167 141 0 4 28 1 63 -7 93 -22 185 -12 322 35
l116 40 82 -19 82 -20 75 27 c187 66 300 149 300 222 0 12 -8 26 -17 29 -10 4
-24 15 -31 25 -18 25 -41 22 -52 -7 -5 -14 -16 -25 -24 -25 -21 0 -29 -17 -22
-46 4 -14 14 -24 24 -24 14 0 15 -2 2 -10 -10 -6 -17 -5 -23 5 -10 19 -41 19
-57 1 -6 -8 -10 -27 -8 -42 4 -34 -14 -42 -27 -12 -7 17 -17 22 -37 20 -14 -2
-29 2 -33 7 -11 19 -55 13 -55 -7 0 -20 38 -42 70 -42 27 0 34 -17 9 -25 -14
-5 -27 0 -40 14 -24 25 -23 25 -54 5 -14 -9 -21 -22 -18 -30 4 -10 0 -12 -11
-8 -10 4 -15 13 -12 20 3 7 1 16 -5 20 -6 3 -8 12 -5 20 7 19 -21 44 -50 44
-25 0 -32 -18 -13 -37 7 -7 8 -17 2 -27 -8 -15 -11 -15 -28 4 -26 29 -46 25
-78 -15 -34 -43 -94 -74 -155 -82 l-47 -5 0 63 c0 58 -2 64 -22 67 -26 4 -51
-34 -34 -51 6 -6 11 -21 11 -34 0 -12 8 -27 18 -32 14 -9 10 -10 -19 -11 -21
0 -36 5 -37 13 -1 6 -3 32 -4 57 -3 39 -7 46 -31 54 -39 14 -59 -1 -76 -57
-13 -43 -16 -45 -42 -40 -24 4 -28 2 -31 -21 l-3 -25 -22 33 -22 34 183 181
c101 99 188 181 193 181 6 0 13 -9 16 -20 7 -28 37 -37 52 -17 14 19 40 22 50
7 11 -17 33 -11 41 12 4 14 1 25 -8 32 -13 10 -12 13 2 29 17 17 18 17 28 -12
12 -35 11 -35 46 -21 27 10 35 35 14 44 -9 3 -7 10 7 21 19 15 20 15 23 -5 5
-28 49 -57 64 -42 8 8 9 21 1 46 -8 26 -8 36 1 40 22 9 26 6 26 -19z m-1170
-15 c0 -5 -9 -19 -21 -31 -16 -16 -18 -23 -8 -35 10 -13 15 -12 37 2 13 9 42
17 63 18 32 2 39 -1 44 -21 3 -13 12 -23 21 -23 11 0 13 -6 9 -20 -5 -15 0
-23 19 -32 24 -10 35 -28 19 -28 -5 0 -17 -3 -29 -6 -15 -4 -23 1 -32 20 -6
14 -18 26 -27 26 -20 0 -32 -50 -14 -61 11 -6 11 -9 -1 -13 -41 -14 -110 -27
-267 -51 -211 -32 -269 -46 -353 -89 -46 -23 -66 -39 -68 -54 -4 -29 1 -29
198 13 237 51 392 90 493 124 66 23 87 26 87 16 0 -16 35 -29 51 -19 6 3 9 18
6 33 -4 22 1 30 38 54 23 15 47 27 52 27 6 0 18 9 28 20 27 30 37 24 17 -9
-20 -35 -13 -46 23 -37 26 7 35 39 15 51 -8 5 -7 11 1 21 6 8 9 23 6 34 -4 15
0 20 13 20 15 0 18 -7 15 -36 -2 -24 2 -37 11 -41 21 -8 17 -17 -16 -36 -37
-22 -43 -62 -7 -51 12 3 34 13 50 21 24 12 28 12 33 -2 3 -8 16 -15 27 -15 15
0 18 -3 10 -11 -8 -8 -17 -7 -32 3 -18 11 -23 11 -31 -2 -5 -8 -8 -21 -5 -28
6 -17 -66 -81 -84 -74 -10 4 -7 10 13 24 21 16 24 23 16 39 -15 28 -47 24 -54
-6 -4 -14 -4 -30 -1 -35 3 -5 -4 -11 -15 -15 -27 -8 -28 -55 -1 -62 17 -4 18
-9 9 -41 -5 -19 -7 -48 -4 -64 3 -15 1 -28 -4 -28 -6 0 -10 9 -10 20 0 10 -10
25 -22 31 l-22 12 22 8 c28 10 30 49 3 49 -10 0 -21 9 -24 20 -11 42 -62 5
-72 -53 -5 -33 -3 -39 14 -44 15 -4 21 -13 21 -34 0 -16 -4 -29 -10 -29 -6 0
-9 3 -9 8 4 21 -3 30 -27 36 -33 9 -50 -5 -36 -30 7 -13 6 -24 -5 -40 -21 -32
-9 -44 44 -44 32 0 50 5 59 18 7 9 14 12 14 5 0 -6 -4 -15 -10 -18 -5 -3 -10
-17 -10 -30 0 -17 -9 -27 -39 -38 -60 -25 -213 -67 -236 -66 -17 1 -17 2 4 8
28 8 35 20 21 41 -8 12 -17 13 -67 1 -32 -8 -95 -16 -140 -18 -105 -6 -159 9
-338 97 -157 77 -261 112 -338 114 -46 1 -52 -1 -55 -21 -3 -23 -5 -23 124
-43 61 -10 94 -24 220 -96 160 -91 156 -94 -36 -29 -243 83 -425 154 -422 166
6 25 85 130 132 176 102 99 227 157 485 224 132 34 157 38 175 27 19 -11 24
-10 42 12 12 15 50 35 97 52 85 30 101 32 101 18z m274 -68 c4 -21 -1 -33 -21
-51 l-27 -23 -19 26 c-10 14 -26 26 -34 26 -14 0 -14 3 1 19 10 11 24 17 32
14 8 -3 16 2 20 10 8 23 41 8 48 -21z m80 3 c-6 -16 -24 -21 -24 -7 0 11 11
22 21 22 5 0 6 -7 3 -15z m1286 -23 c0 -13 -12 -22 -22 -16 -10 6 -1 24 13 24
5 0 9 -4 9 -8z m-1000 -26 c0 -3 -4 -8 -10 -11 -5 -3 -10 -1 -10 4 0 6 5 11
10 11 6 0 10 -2 10 -4z m-80 -30 c0 -3 -4 -8 -10 -11 -5 -3 -10 -1 -10 4 0 6
5 11 10 11 6 0 10 -2 10 -4z m1122 -87 c6 -37 2 -37 -17 1 -19 36 -19 41 -1
34 8 -3 16 -19 18 -35z m-202 -33 c0 -3 -4 -8 -10 -11 -5 -3 -10 -1 -10 4 0 6
5 11 10 11 6 0 10 -2 10 -4z m-869 -179 c-1 -4 -1 -14 -1 -22 0 -12 -3 -12
-18 3 -12 11 -14 20 -8 24 13 9 28 6 27 -5z m-231 -146 c0 -10 -9 -21 -19 -24
-13 -3 -18 0 -15 9 2 8 6 21 9 30 6 20 25 8 25 -15z m1487 -201 c-9 -34 -8
-42 5 -52 9 -7 18 -29 20 -48 3 -30 7 -35 31 -38 23 -3 27 0 27 22 0 14 -8 31
-17 38 -18 13 -27 58 -11 58 4 0 24 -25 44 -55 94 -148 163 -338 259 -710 31
-121 76 -285 101 -365 24 -80 55 -195 69 -255 148 -649 115 -1598 -82 -2413
-15 -62 -31 -111 -36 -109 -5 1 -8 7 -8 12 0 6 -7 17 -15 27 -11 12 -12 18 -4
23 7 4 10 19 6 36 -3 15 -1 31 4 34 15 9 12 42 -5 49 -8 3 -15 12 -15 20 0 12
7 14 29 10 21 -4 30 -2 35 11 8 22 -10 45 -36 45 -27 0 -17 24 11 28 27 4 51
49 32 61 -10 6 -9 10 3 14 20 8 21 50 2 66 -11 9 -18 8 -30 -4 -15 -15 -16
-15 -16 0 0 68 27 286 50 410 52 273 64 412 64 730 -1 580 -98 1155 -297 1754
l-64 194 30 27 c32 28 30 50 -5 50 -14 0 -18 5 -15 15 4 8 1 17 -4 21 -6 3 -8
17 -5 29 4 17 0 28 -16 39 -30 21 -58 20 -58 -1 0 -15 -2 -16 -9 -3 -7 10 -4
18 10 28 28 19 25 52 -5 52 -18 0 -26 -6 -29 -22 -3 -17 -15 1 -50 73 -26 53
-47 99 -47 101 0 3 9 8 21 11 17 4 19 10 13 29 -6 20 -5 21 8 10 12 -10 13
-19 5 -52z m-1705 -332 c249 -167 541 -470 629 -654 l31 -66 -21 -14 c-12 -9
-21 -24 -21 -36 0 -16 5 -19 25 -16 30 6 33 -12 6 -36 -16 -15 -19 -15 -24 -1
-4 8 -13 15 -21 15 -16 0 -31 -40 -23 -62 2 -7 -7 -25 -21 -40 -23 -25 -26
-26 -37 -11 -7 10 -19 14 -29 10 -18 -7 -22 -42 -6 -52 6 -4 2 -18 -11 -37
-19 -26 -23 -28 -31 -14 -12 21 -47 21 -55 0 -3 -8 4 -28 16 -44 17 -24 19
-34 10 -57 -14 -36 -49 -201 -49 -231 0 -21 -3 -23 -29 -17 -24 5 -32 2 -42
-16 -10 -20 -9 -25 11 -41 12 -10 26 -15 31 -12 5 3 9 -8 9 -25 0 -18 7 -34
18 -40 16 -9 16 -11 -1 -40 -25 -43 -77 -92 -89 -85 -5 4 2 18 17 34 15 16 24
33 21 39 -10 16 -56 13 -62 -3 -4 -12 -13 -10 -41 10 -19 13 -39 21 -44 18
-14 -8 -10 -42 7 -69 23 -35 11 -31 -49 18 -28 23 -66 52 -82 65 -29 21 -29
22 -4 13 29 -11 54 0 47 20 -3 8 1 22 10 31 16 19 10 45 -13 54 -21 8 -67 -35
-60 -55 4 -13 -4 -16 -45 -15 -71 2 -81 6 -35 13 32 5 41 11 43 29 2 15 -2 22
-13 22 -8 0 -18 7 -21 15 -3 8 -21 17 -40 21 -19 3 -32 10 -29 14 8 13 -36 62
-51 56 -10 -4 -14 3 -14 23 0 33 -16 49 -51 53 -22 3 -24 0 -21 -31 1 -19 7
-40 12 -46 5 -7 6 -15 2 -19 -4 -4 1 -13 10 -20 10 -8 14 -17 8 -25 -11 -19
-23 6 -55 119 -15 52 -30 102 -35 111 -7 13 -5 18 11 22 19 5 20 10 14 48 -9
53 -25 80 -45 77 -21 -4 -25 -40 -6 -54 12 -8 14 -18 8 -34 -8 -22 -10 -20
-25 19 -32 79 -50 219 -51 386 0 220 16 288 90 387 68 92 129 213 150 300 l17
67 46 -26 c25 -15 72 -44 103 -65z m1858 -2 c0 -3 -4 -8 -10 -11 -5 -3 -10 -1
-10 4 0 6 5 11 10 11 6 0 10 -2 10 -4z m-913 -911 c170 -85 258 -247 257 -475
0 -142 -19 -223 -81 -350 -37 -77 -60 -109 -122 -170 -75 -75 -163 -132 -178
-116 -4 4 -8 116 -9 249 -1 149 -6 261 -13 292 -16 69 -49 161 -77 217 l-24
46 19 44 c11 24 29 81 41 128 27 107 62 170 94 170 13 0 55 -16 93 -35z m-267
-71 c-29 -59 -31 -68 -16 -76 24 -14 19 -24 -11 -23 -23 0 -29 -5 -31 -27 -2
-20 1 -28 12 -28 10 0 13 -6 9 -16 -6 -15 -7 -15 -19 1 -23 31 -72 -2 -58 -40
4 -8 12 -15 19 -15 17 0 26 -40 19 -79 -5 -23 -3 -31 7 -31 11 0 11 -2 0 -9
-21 -14 2 -61 29 -61 20 0 28 26 13 46 -5 5 0 1 10 -10 16 -17 16 -21 2 -36
-19 -21 -19 -39 -1 -46 10 -4 13 -18 10 -46 -5 -57 10 -81 47 -73 28 6 29 5
29 -30 0 -31 -3 -35 -19 -30 -28 9 -37 -14 -14 -36 19 -19 19 -21 1 -107 -18
-86 -19 -122 -2 -279 4 -40 3 -63 -4 -63 -5 0 -12 7 -16 15 -9 24 -73 20 -81
-5 -3 -11 -4 -24 -1 -29 3 -5 0 -11 -7 -14 -8 -3 -19 4 -26 15 -7 12 -21 18
-35 16 -13 -1 -31 3 -40 11 -9 7 -25 11 -36 8 -25 -6 -25 -9 6 47 24 43 25 46
7 53 -10 3 -20 10 -23 13 -3 4 -14 12 -25 18 -11 6 -14 12 -7 12 14 0 16 32 3
45 -6 6 3 30 25 65 59 93 60 109 18 282 -62 261 -41 336 165 566 35 40 66 70
69 67 3 -2 -10 -35 -28 -71z m-1612 -168 c52 -8 96 -17 99 -20 3 -3 0 -13 -7
-21 -11 -14 -10 -19 7 -37 28 -27 57 -17 51 17 -6 30 -8 30 52 4 43 -19 47
-23 35 -36 -20 -20 -19 -34 4 -40 22 -6 17 -33 -5 -33 -9 0 -14 -11 -14 -30 0
-25 4 -30 25 -30 27 0 28 -1 19 -25 -6 -15 -8 -15 -25 1 -27 24 -52 11 -47
-25 3 -19 -1 -32 -13 -39 -18 -12 -24 -81 -10 -111 20 -39 30 -69 35 -108 l6
-42 -27 9 c-16 5 -80 27 -143 49 -63 22 -201 63 -307 91 -105 27 -210 57 -233
65 -55 20 -80 19 -80 -1 0 -20 19 -36 80 -68 59 -31 148 -58 333 -101 226 -52
327 -85 327 -105 0 -22 19 -40 36 -33 8 3 31 -12 53 -33 32 -33 37 -43 30 -62
-17 -44 14 -57 47 -21 19 21 19 22 -3 36 -28 19 -20 42 13 35 24 -4 50 -44 39
-61 -8 -13 26 -53 41 -47 16 6 19 -10 4 -19 -27 -16 -3 -69 33 -74 9 -1 10 -7
4 -31 -4 -14 -14 -20 -34 -20 -24 1 -25 2 -10 11 23 14 22 36 -4 49 -26 15
-49 6 -49 -18 0 -15 -6 -18 -29 -14 -34 5 -42 -5 -30 -35 6 -18 16 -23 41 -23
37 0 70 -33 43 -43 -7 -3 -16 1 -19 9 -7 18 -30 18 -46 -1 -11 -13 -9 -20 11
-41 13 -15 33 -30 44 -34 16 -7 17 -9 3 -9 -9 -1 -20 4 -23 9 -3 6 -19 10 -34
10 -20 0 -30 -7 -38 -27 l-11 -28 -13 33 c-9 20 -20 32 -33 32 -11 0 -16 3
-13 6 11 12 -13 44 -33 44 -24 0 -42 -31 -29 -51 16 -25 10 -46 -6 -22 -12 17
-25 22 -55 20 -25 -1 -46 5 -59 17 -23 21 -54 14 -49 -11 2 -10 14 -23 28 -30
21 -10 11 -12 -65 -7 -149 9 -214 23 -348 76 -244 97 -450 230 -598 385 -146
153 -227 316 -254 506 -5 41 -4 47 12 47 50 1 234 24 468 60 405 62 594 73
773 46z m331 -140 c18 -19 20 -24 7 -29 -10 -4 -13 -1 -9 9 4 10 -2 17 -16 21
-11 3 -18 9 -15 14 7 12 8 12 33 -15z m-19 -64 c0 -5 -7 -9 -15 -9 -8 0 -15 4
-15 9 0 4 7 8 15 8 8 0 15 -4 15 -8z m270 -13 c44 -13 64 -35 75 -81 8 -32 -3
-39 -95 -62 -87 -21 -185 -25 -202 -8 -11 11 2 27 72 93 47 43 90 77 96 75 7
-3 31 -10 54 -17z m1090 -129 c0 -5 -6 -10 -14 -10 -8 0 -18 5 -21 10 -3 6 3
10 14 10 12 0 21 -4 21 -10z m-1410 -25 c0 -17 -4 -23 -15 -19 -8 4 -17 -1
-21 -10 -12 -32 -21 -15 -10 19 13 42 46 50 46 10z m660 -75 c198 -100 325
-367 248 -520 -33 -63 -66 -83 -143 -88 -80 -5 -175 22 -295 84 -128 66 -126
65 -160 187 l-29 108 27 10 c15 6 45 8 67 4 39 -5 41 -7 75 -88 20 -47 34 -95
32 -112 -5 -58 24 -85 123 -116 117 -36 150 -36 207 0 115 73 77 166 -139 336
-55 43 -77 79 -94 153 -5 26 -18 55 -27 66 -16 18 -16 18 18 11 19 -4 60 -20
90 -35z m-202 -21 c61 -30 62 -31 62 -70 l0 -39 -132 0 c-109 0 -143 -4 -186
-20 -73 -28 -108 -26 -142 8 -21 22 -27 35 -23 55 8 40 21 42 31 5 5 -22 15
-34 29 -36 37 -5 118 37 169 89 46 47 51 50 89 44 22 -4 68 -20 103 -36z m611
-36 c1 -7 -8 -13 -19 -13 -23 0 -25 9 -8 46 l13 27 6 -24 c4 -13 7 -30 8 -36z
m5476 23 c342 -31 482 -57 613 -117 67 -30 161 -89 162 -100 0 -3 -24 0 -52 8
-29 7 -103 22 -165 33 -683 118 -1329 -156 -1885 -800 -191 -220 -328 -415
-533 -755 -408 -676 -770 -1079 -1444 -1604 -127 -99 -165 -122 -381 -230
-132 -66 -317 -154 -412 -195 -95 -41 -234 -101 -308 -134 -234 -104 -520
-198 -794 -262 -96 -22 -328 -62 -333 -57 -1 2 43 21 100 41 372 138 463 174
552 218 307 154 623 365 925 617 456 382 690 655 1175 1376 314 466 455 661
622 861 327 393 681 680 1083 880 249 124 410 182 595 215 175 31 188 31 480
5z m-5478 -102 c-3 -3 -12 -4 -19 -1 -8 3 -5 6 6 6 11 1 17 -2 13 -5z m-481
-90 c32 -15 112 -100 103 -108 -2 -2 -31 1 -64 6 -85 14 -119 50 -99 102 8 20
17 20 60 0z m-409 -76 c-3 -7 -5 -2 -5 12 0 14 2 19 5 13 2 -7 2 -19 0 -25z
m536 -118 c33 0 37 -3 37 -25 0 -21 -5 -25 -28 -25 -30 0 -132 46 -132 60 0 4
19 4 43 -1 23 -4 59 -8 80 -9z m-479 -5 c3 -9 0 -15 -9 -15 -8 0 -15 7 -15 15
0 8 4 15 9 15 5 0 11 -7 15 -15z m46 -95 c-1 -12 -4 -11 -15 4 -8 10 -12 23
-8 29 7 11 23 -12 23 -33z m845 -9 c3 -6 -4 -15 -15 -21 -19 -10 -20 -10 -8 9
15 24 15 24 23 12z m79 -17 c18 -7 12 -24 -10 -24 -8 0 -14 7 -14 15 0 17 2
18 24 9z m504 -66 c116 -79 218 -199 372 -436 70 -108 90 -145 81 -155 -29
-36 -45 -143 -46 -313 l0 -172 -55 -6 c-338 -37 -548 -23 -684 46 -51 26 -132
102 -161 153 -33 56 -71 160 -100 274 -27 105 -30 125 -15 116 17 -10 60 7 60
24 0 41 -53 56 -65 19 -6 -20 -8 -18 -15 17 -5 22 -9 69 -9 104 -1 52 1 61 12
52 10 -8 18 -7 32 3 25 18 13 46 -20 46 -20 0 -25 5 -25 24 0 44 12 86 25 86
10 0 11 -9 2 -41 -8 -33 -7 -43 4 -50 21 -13 26 -11 54 18 26 29 26 58 -3 79
-12 9 -8 14 22 32 38 23 46 21 21 -5 -12 -12 -13 -18 -4 -29 14 -17 49 -19 49
-2 0 6 8 29 18 50 17 39 17 39 65 33 29 -4 47 -2 47 5 0 24 41 50 79 50 31 0
41 4 46 20 5 16 10 18 25 10 27 -14 50 -12 50 5 0 12 8 11 45 -5 25 -11 67
-34 93 -52z m-1465 55 c-7 -2 -19 -2 -25 0 -7 3 -2 5 12 5 14 0 19 -2 13 -5z
m243 -179 c-5 -14 -9 -15 -19 -5 -9 9 -9 14 3 21 18 11 24 6 16 -16z m154 7
c0 -5 -17 -23 -39 -40 -38 -31 -39 -31 -44 -9 -8 30 19 58 55 58 15 0 28 -4
28 -9z m244 -25 c-13 -26 -21 -32 -37 -28 -18 5 -18 6 7 19 14 7 26 20 26 28
0 8 4 15 10 15 5 0 2 -15 -6 -34z m-170 9 c-4 -8 -8 -15 -10 -15 -2 0 -4 7 -4
15 0 8 4 15 10 15 5 0 7 -7 4 -15z m-459 -25 c-13 -15 -22 -17 -29 -10 -12 12
8 30 33 30 11 0 10 -5 -4 -20z m-165 6 c0 -2 -3 -12 -6 -20 -5 -13 -9 -14 -20
-5 -20 16 -17 29 6 29 11 0 20 -2 20 -4z m365 -12 c26 17 26 17 15 -4 -10 -18
-9 -25 4 -38 14 -14 21 -14 48 -4 23 8 34 9 39 1 4 -7 21 -9 48 -4 32 5 41 4
41 -8 0 -7 9 -22 20 -32 18 -16 20 -16 26 -1 3 9 3 24 -1 34 -8 16 -7 53 1 61
1 2 10 -4 20 -13 13 -14 14 -19 3 -32 -9 -11 -9 -18 -1 -26 8 -8 6 -17 -5 -34
-16 -26 -11 -44 14 -44 9 0 25 -7 35 -16 15 -14 20 -15 33 -4 22 18 15 55 -10
56 -11 1 -24 2 -29 3 -4 1 2 9 14 19 14 11 33 17 47 14 28 -5 28 -3 -6 -127
-10 -39 -25 -122 -32 -184 l-13 -114 -58 -62 c-103 -111 -294 -224 -468 -279
-251 -80 -528 -71 -735 23 l-68 31 69 42 c107 64 222 158 398 324 226 213 249
232 288 226 29 -4 31 -3 26 22 -4 21 1 31 22 46 17 12 30 16 36 10 14 -14 54
16 54 39 0 10 9 21 20 24 14 4 20 0 20 -12 0 -26 58 -65 75 -51 7 6 11 20 8
31 -6 20 -56 53 -66 42 -3 -3 -5 5 -4 18 2 31 18 42 33 21 11 -15 14 -14 39 2z
m-708 -12 c-21 -23 -21 -38 -1 -46 24 -9 46 14 41 41 -4 24 8 29 32 14 12 -8
11 -13 -10 -30 -23 -19 -23 -20 -6 -38 13 -14 21 -15 35 -7 9 6 17 17 17 25 0
17 36 38 50 30 27 -16 84 -31 116 -31 33 0 66 -20 54 -32 -3 -3 0 -10 8 -16 9
-8 20 -8 37 1 28 14 38 46 19 58 -7 4 -10 11 -7 14 9 9 26 -2 38 -25 8 -15 1
-26 -44 -63 -29 -25 -53 -40 -54 -34 -1 7 -3 23 -4 37 -3 26 -28 37 -85 39
-19 1 -42 10 -53 21 -16 16 -25 18 -40 10 -11 -6 -20 -17 -20 -24 0 -16 -44
-51 -121 -94 -31 -18 -85 -55 -119 -82 -85 -68 -385 -230 -616 -332 -63 -28
-141 -72 -161 -90 -10 -9 -29 -18 -43 -20 -17 -2 -26 -10 -28 -26 -2 -12 -12
-27 -22 -32 -15 -8 -23 -5 -39 16 -12 15 -21 31 -21 35 0 18 -30 9 -41 -12 -8
-15 -8 -24 0 -32 16 -16 -7 -41 -25 -26 -9 8 -10 17 -3 37 11 30 -1 47 -43 57
-21 5 -27 3 -33 -14 -3 -11 -1 -29 4 -40 16 -29 14 -48 -2 -26 -10 13 -22 16
-41 13 -25 -5 -27 -4 -21 21 21 87 161 246 320 364 114 84 272 175 405 232
112 49 122 52 114 31 -3 -7 1 -16 9 -19 20 -8 58 21 55 41 -4 20 74 44 118 36
18 -3 35 -1 38 5 5 7 15 7 32 1 29 -11 44 -6 44 16 0 11 15 14 67 14 63 0 65
-1 50 -18z m193 -116 c0 -11 11 -15 38 -13 27 1 44 -5 59 -20 l21 -21 -203
-192 c-112 -106 -217 -200 -233 -210 -27 -17 -29 -17 -28 -2 2 24 -62 30 -71
6 -3 -9 -1 -25 5 -34 9 -15 7 -21 -14 -35 -22 -14 -26 -14 -40 -1 -19 19 -34
13 -59 -26 -11 -18 -27 -34 -35 -36 -13 -5 -13 -3 -2 11 8 9 11 21 7 27 -9 15
-43 12 -52 -4 -4 -8 -17 -15 -28 -17 -10 -2 -26 -17 -35 -32 -14 -26 -14 -29
3 -38 12 -7 15 -17 11 -34 -4 -18 -1 -27 10 -31 9 -3 16 -10 16 -14 0 -15 -49
15 -54 33 -7 27 -40 17 -44 -12 -2 -13 2 -27 9 -32 7 -4 -7 -5 -31 -2 -53 7
-71 22 -63 52 4 17 0 22 -25 27 -17 4 -30 11 -29 18 1 6 -12 12 -30 14 -28 3
-32 0 -35 -25 -4 -36 -41 -40 -46 -5 -2 15 -10 22 -27 22 -35 0 -39 28 -10 67
34 44 130 91 280 138 142 43 210 80 325 172 115 91 306 218 353 233 20 6 37
16 37 21 0 5 5 9 10 9 6 0 10 -7 10 -14z m-1095 -626 c-3 -5 -10 -10 -16 -10
-5 0 -9 5 -9 10 0 6 7 10 16 10 8 0 12 -4 9 -10z m223 -77 c14 -11 13 -13 -6
-13 -18 0 -22 6 -21 28 0 15 3 20 6 12 3 -8 12 -21 21 -27z m-118 -52 c75 -26
104 -47 51 -37 -19 3 -129 9 -245 13 l-210 6 50 23 c44 22 60 23 169 20 90 -3
136 -9 185 -25z m2997 -176 c-12 -25 -37 -34 -37 -14 0 12 29 38 42 39 3 0 1
-11 -5 -25z m28 -55 c3 -5 1 -10 -4 -10 -6 0 -11 5 -11 10 0 6 2 10 4 10 3 0
8 -4 11 -10z m755 -54 c0 -3 -4 -8 -10 -11 -5 -3 -10 -1 -10 4 0 6 5 11 10 11
6 0 10 -2 10 -4z m-705 -195 c23 -128 19 -173 -41 -496 -54 -292 -57 -304
-112 -427 -39 -87 -61 -126 -70 -123 -21 8 -52 -13 -52 -35 0 -10 9 -21 19
-25 17 -5 18 -10 9 -37 l-11 -31 -12 24 c-7 12 -19 25 -27 28 -11 5 0 55 57
256 39 138 84 279 100 315 23 52 28 77 26 129 -3 80 15 188 43 266 12 33 20
68 18 79 -2 10 2 30 9 43 12 22 11 27 -3 37 -13 10 -15 15 -5 25 9 9 8 16 -2
33 -10 16 -10 23 -2 26 16 5 14 32 -3 38 -12 4 -11 10 2 37 l16 32 13 -55 c7
-30 20 -93 28 -139z m695 125 c-14 -14 -22 -2 -14 18 5 14 9 15 15 4 4 -7 4
-17 -1 -22z m56 -52 c-3 -9 -6 -19 -6 -24 0 -5 -12 -8 -27 -7 -28 2 -31 -5
-22 -42 3 -8 -5 -14 -19 -16 -21 -2 -23 1 -18 28 3 16 6 35 6 42 0 8 9 10 25
7 18 -3 25 0 25 12 0 10 8 16 21 16 15 0 19 -4 15 -16z m-62 -175 c5 -5 7 -11
5 -14 -7 -7 -59 18 -59 28 0 10 40 -1 54 -14z m-44 -81 c0 -5 -9 -3 -20 4 -11
7 -20 18 -20 25 0 9 6 7 20 -4 11 -10 20 -21 20 -25z m-915 -1023 c-3 -11 -8
-37 -11 -57 -4 -21 -10 -38 -15 -38 -5 0 -23 -13 -42 -29 -32 -29 -34 -29 -45
-10 -11 17 -9 19 12 19 31 0 41 27 19 54 -17 19 -17 20 0 7 14 -11 20 -11 32
-1 21 17 19 41 -4 47 -33 8 -13 32 25 30 30 -2 34 -5 29 -22z"/>
<path d="M3855 12301 c-9 -29 2 -252 15 -301 23 -89 81 -182 165 -266 66 -66
98 -90 178 -129 95 -47 127 -51 112 -14 -3 8 -79 71 -168 141 l-162 126 -45
164 c-24 89 -45 177 -47 193 -1 28 -8 80 -11 98 -4 15 -31 6 -37 -12z"/>
<path d="M4045 11550 c-7 -12 30 -50 50 -50 20 0 19 24 -1 44 -17 18 -40 21
-49 6z"/>
<path d="M7501 11941 c-7 -13 -6 -24 4 -37 13 -19 14 -18 36 3 25 25 20 53
-10 53 -11 0 -25 -8 -30 -19z"/>
<path d="M6787 11293 c-11 -10 -8 -41 4 -49 16 -9 41 20 33 39 -6 17 -25 22
-37 10z"/>
<path d="M6740 11189 c-16 -28 -5 -49 24 -49 33 0 41 16 22 45 -20 30 -32 31
-46 4z"/>
<path d="M7775 11570 c-9 -14 13 -50 30 -50 18 0 20 31 3 48 -15 15 -25 15
-33 2z"/>
<path d="M7231 11337 c-13 -17 -6 -43 14 -51 19 -7 47 22 43 43 -4 21 -41 26
-57 8z"/>
<path d="M7196 11275 c-14 -15 -12 -45 3 -45 4 0 17 7 29 16 18 13 21 19 11
30 -15 18 -24 18 -43 -1z"/>
<path d="M7917 11258 c-67 -48 -138 -114 -220 -202 -103 -112 -130 -148 -176
-236 -68 -133 -200 -301 -255 -327 -21 -9 -45 -23 -52 -30 -20 -21 -6 -43 28
-43 39 0 141 100 228 225 142 203 383 513 396 508 7 -2 20 7 29 21 10 14 50
44 90 66 78 43 101 63 90 80 -16 25 -64 6 -158 -62z"/>
<path d="M8397 10896 c-22 -46 -46 -82 -66 -97 -34 -25 -43 -72 -16 -83 25 -9
38 2 88 77 50 76 74 135 64 161 -13 34 -37 14 -70 -58z"/>
<path d="M8147 10797 c-9 -23 16 -87 34 -87 33 0 41 25 21 61 -20 36 -46 49
-55 26z"/>
<path d="M8090 10684 c-14 -35 -13 -41 7 -48 24 -10 42 14 36 47 -7 34 -30 35
-43 1z"/>
<path d="M8045 10570 c-11 -18 6 -50 25 -50 21 0 45 34 35 50 -8 13 -52 13
-60 0z"/>
<path d="M4828 9543 c-17 -4 -38 -57 -38 -98 0 -11 -14 -46 -29 -78 -29 -57
-29 -62 -30 -225 -1 -152 8 -331 25 -471 5 -39 4 -52 -5 -47 -6 4 -14 0 -17
-9 -8 -20 27 -55 55 -55 24 0 37 18 23 32 -8 8 -6 20 5 41 20 39 19 62 -15
375 -23 213 -26 265 -15 273 7 6 15 26 19 45 3 19 10 34 14 34 4 0 10 26 14
58 4 40 13 63 27 75 16 14 17 21 9 37 -11 20 -13 21 -42 13z"/>
<path d="M4617 9328 c-14 -18 -45 -74 -70 -124 -25 -49 -52 -96 -61 -103 -22
-18 -22 -99 0 -108 8 -3 20 -1 26 5 17 17 157 345 152 354 -10 15 -23 8 -47
-24z"/>
<path d="M4923 9293 c-18 -7 -16 -24 12 -105 14 -39 25 -85 25 -102 0 -17 5
-38 10 -46 9 -13 14 -11 31 10 18 21 20 34 16 82 -8 93 -57 174 -94 161z"/>
<path d="M5110 9278 c0 -7 18 -42 40 -78 22 -36 40 -75 40 -86 0 -12 6 -27 14
-33 11 -10 17 -7 30 11 9 12 16 29 16 38 0 24 -39 92 -73 128 -31 32 -67 43
-67 20z"/>
<path d="M4967 8763 c-14 -14 -6 -42 14 -48 27 -9 33 -2 25 30 -6 24 -25 33
-39 18z"/>
<path d="M5222 8748 c-17 -17 -15 -45 4 -52 27 -10 34 -7 34 18 0 31 -22 50
-38 34z"/>
<path d="M5077 8714 c-9 -10 12 -44 27 -44 8 0 16 -9 19 -20 6 -23 29 -26 47
-5 15 18 5 35 -20 35 -11 0 -24 9 -30 20 -11 20 -31 26 -43 14z"/>
<path d="M5250 8641 c0 -47 9 -55 38 -35 27 19 28 50 3 64 -33 17 -41 12 -41
-29z"/>
<path d="M5016 8663 c-3 -3 -6 -16 -6 -28 0 -12 3 -25 6 -28 10 -10 44 12 44
28 0 16 -34 38 -44 28z"/>
<path d="M4563 8644 c-3 -8 1 -22 9 -30 12 -12 17 -12 33 -1 23 17 14 47 -15
47 -11 0 -23 -7 -27 -16z"/>
<path d="M4860 8605 c-11 -13 -11 -19 4 -33 20 -20 51 -6 51 24 0 24 -37 30
-55 9z"/>
<path d="M6017 9013 c-2 -5 -7 -24 -11 -44 -10 -54 -71 -105 -214 -179 -91
-47 -134 -76 -172 -116 -27 -29 -50 -60 -50 -68 0 -9 -4 -16 -9 -16 -19 0 -22
-35 -5 -47 25 -18 31 -16 41 10 4 13 26 44 48 69 33 37 63 55 160 98 66 29
125 58 130 65 16 19 41 -4 37 -33 -3 -22 -1 -23 35 -20 37 3 38 2 35 -29 -2
-29 1 -33 22 -33 28 0 51 24 40 42 -5 7 -7 21 -5 31 1 10 -6 25 -16 33 -10 7
-13 14 -7 14 17 0 26 31 14 45 -8 10 -8 15 0 20 6 4 13 5 15 3 3 -2 8 -87 12
-189 20 -464 -30 -735 -158 -853 -57 -53 -68 -93 -21 -81 64 16 136 96 172
193 51 136 63 289 63 822 0 65 -22 130 -44 130 -7 0 -9 10 -5 26 7 25 -22 88
-48 106 -14 10 -54 10 -59 1z m-1 -181 c14 -9 24 -51 14 -57 -10 -6 -26 14
-33 43 -5 23 0 27 19 14z"/>
<path d="M6042 8623 c2 -22 9 -29 31 -31 26 -3 28 -1 25 25 -2 22 -9 29 -31
31 -26 3 -28 1 -25 -25z"/>
<path d="M5387 8453 c-13 -12 -7 -53 7 -53 17 0 28 24 20 45 -7 16 -17 19 -27
8z"/>
<path d="M5353 8384 c-9 -25 11 -50 38 -46 35 5 46 19 29 36 -26 24 -59 29
-67 10z"/>
<path d="M5410 8279 c0 -15 5 -20 22 -17 34 5 37 38 4 38 -20 0 -26 -5 -26
-21z"/>
<path d="M5400 8105 c-11 -13 -11 -19 3 -32 21 -21 49 -9 45 19 -4 28 -30 35
-48 13z"/>
<path d="M5475 8039 c-8 -26 16 -54 39 -46 10 4 16 18 16 37 0 25 -4 30 -24
30 -16 0 -27 -7 -31 -21z"/>
<path d="M3674 8525 c-4 -8 -1 -22 6 -30 18 -21 50 -19 50 3 0 36 -45 57 -56
27z"/>
<path d="M3761 8516 c-9 -11 -10 -20 -1 -35 13 -25 23 -26 44 -5 19 19 20 26
4 42 -16 16 -33 15 -47 -2z"/>
<path d="M3825 8486 c-20 -30 -9 -53 20 -43 23 10 30 37 12 54 -13 14 -17 13
-32 -11z"/>
<path d="M4352 8368 c-7 -7 -12 -20 -12 -31 0 -13 6 -18 23 -15 16 2 22 10 22
27 0 28 -15 37 -33 19z"/>
<path d="M4426 8314 c-7 -19 67 -99 83 -90 19 12 12 47 -16 77 -31 32 -58 37
-67 13z"/>
<path d="M4496 7989 c-20 -29 -11 -46 26 -51 46 -7 53 38 9 61 -16 9 -23 7
-35 -10z"/>
<path d="M4150 7975 c-26 -32 18 -63 48 -33 9 9 8 16 -5 30 -20 22 -27 22 -43
3z"/>
<path d="M6066 7544 c-9 -24 37 -61 100 -80 92 -26 268 -34 328 -14 27 9 51
21 54 28 6 20 -36 29 -188 41 -80 7 -176 19 -215 27 -38 8 -71 14 -71 14 -1 0
-5 -7 -8 -16z"/>
<path d="M5883 7433 c-13 -3 -23 -11 -23 -19 0 -8 1 -14 3 -14 27 0 265 -53
302 -68 28 -10 120 -48 205 -82 l155 -63 160 -3 c102 -1 185 -8 229 -18 51
-11 73 -13 83 -5 22 19 15 36 -24 55 -33 17 -59 19 -201 16 -193 -3 -213 1
-457 95 -218 83 -361 119 -432 106z"/>
<path d="M5740 7260 c0 -28 3 -30 34 -30 19 0 38 5 41 11 10 16 -25 49 -52 49
-19 0 -23 -5 -23 -30z"/>
<path d="M5784 7195 c-8 -20 2 -45 19 -45 19 0 50 36 42 49 -9 16 -55 13 -61
-4z"/>
<path d="M6644 7015 c-9 -23 3 -45 26 -45 25 0 37 25 20 45 -16 19 -39 19 -46
0z"/>
<path d="M4785 7220 c-13 -41 35 -68 54 -31 8 14 6 22 -8 35 -24 22 -38 20
-46 -4z"/>
<path d="M4914 7012 c-32 -22 -24 -72 12 -72 24 0 50 33 39 50 -10 16 -40 29
-51 22z"/>
<path d="M4823 6944 c-9 -25 11 -49 38 -46 33 4 43 17 30 41 -14 25 -59 28
-68 5z"/>
<path d="M4067 7293 c-10 -9 -9 -63 1 -63 23 0 44 28 38 48 -7 21 -26 29 -39
15z"/>
<path d="M4330 7165 c-16 -19 -8 -49 14 -53 25 -5 39 12 32 36 -9 26 -31 35
-46 17z"/>
<path d="M4270 7087 c0 -7 -10 -17 -22 -22 -27 -12 -36 -52 -14 -61 19 -7 56
13 56 31 0 8 6 12 14 9 18 -7 29 11 21 36 -7 22 -55 29 -55 7z"/>
<path d="M4172 7008 c-18 -18 -14 -35 10 -52 26 -19 38 -13 38 19 0 29 -31 50
-48 33z"/>
<path d="M4139 6929 c-10 -19 -9 -25 7 -36 26 -19 39 -11 39 23 0 36 -29 45
-46 13z"/>
<path d="M4073 6234 c-18 -47 68 -134 237 -238 60 -38 110 -72 110 -78 0 -5
11 -19 24 -31 13 -12 74 -104 135 -205 l111 -183 -27 -23 c-27 -23 -25 -46 4
-46 13 0 13 -3 3 -15 -16 -19 3 -45 31 -45 24 0 36 44 18 66 -11 14 -10 18 5
30 26 19 15 82 -33 180 -87 180 -300 403 -537 563 -69 46 -72 47 -81 25z"/>
<path d="M4095 5905 c3 -25 19 -85 36 -133 16 -48 29 -97 29 -110 0 -12 18
-58 39 -100 112 -223 200 -508 213 -687 2 -29 8 -41 21 -43 15 -3 17 7 17 108
l0 112 20 -23 c20 -24 20 -24 35 -5 26 34 19 49 -19 44 l-35 -4 -10 57 c-6 36
-40 117 -93 225 -93 187 -136 296 -166 424 -27 110 -57 180 -78 180 -14 0 -15
-7 -9 -45z"/>
<path d="M4469 5129 c-10 -19 -9 -25 7 -36 26 -19 39 -11 39 23 0 36 -29 45
-46 13z"/>
<path d="M3936 5104 c-10 -38 7 -51 39 -30 21 14 24 20 15 36 -16 29 -47 25
-54 -6z"/>
<path d="M4044 5105 c-8 -32 -2 -39 25 -30 25 8 28 40 5 49 -23 9 -23 8 -30
-19z"/>
<path d="M4025 5036 c-50 -36 30 -82 85 -49 17 9 30 23 30 30 0 20 -25 26 -49
13 -12 -6 -21 -7 -21 -1 0 16 -27 20 -45 7z"/>
<path d="M4182 5008 c-19 -19 -14 -38 12 -38 26 0 51 24 41 40 -8 14 -38 13
-53 -2z"/>
<path d="M4476 4981 c-4 -5 -2 -21 4 -36 12 -31 46 -32 64 -2 9 15 7 21 -8 33
-22 16 -52 19 -60 5z"/>
<path d="M4075 4940 c-14 -22 6 -50 36 -50 36 0 38 22 4 44 -29 19 -32 19 -40
6z"/>
<path d="M4227 4913 c-11 -10 -8 -41 4 -49 6 -3 20 3 31 14 11 11 17 25 14 31
-8 12 -39 15 -49 4z"/>
<path d="M4146 4894 c-7 -19 1 -34 18 -34 17 0 48 35 39 43 -12 13 -51 7 -57
-9z"/>
<path d="M4390 4785 c-15 -19 -6 -45 16 -45 9 0 22 -8 29 -17 12 -16 14 -16
39 1 32 20 30 40 -4 44 -13 2 -33 10 -45 18 -19 13 -24 13 -35 -1z"/>
<path d="M4312 4768 c-35 -35 3 -64 44 -33 19 15 19 15 0 30 -24 18 -29 18
-44 3z"/>
<path d="M5067 5103 c-14 -13 -6 -23 34 -43 50 -26 46 -36 -5 -15 -33 14 -37
14 -43 0 -3 -9 -1 -27 5 -41 10 -20 19 -24 54 -24 48 0 74 12 64 29 -4 7 -1 9
8 5 17 -6 90 -99 99 -126 8 -23 33 -23 45 -1 10 17 -31 86 -92 151 -39 42
-150 85 -169 65z"/>
<path d="M4668 4396 c-8 -41 8 -55 33 -29 19 18 20 24 9 37 -18 23 -37 19 -42
-8z"/>
<path d="M4633 4324 c-8 -22 10 -49 33 -49 22 0 31 30 14 50 -16 20 -39 19
-47 -1z"/>
<path d="M4701 4272 c-12 -22 3 -42 31 -42 20 0 23 12 8 41 -13 24 -26 24 -39
1z"/>
<path d="M4720 4201 c-12 -23 12 -54 38 -49 21 4 36 32 29 52 -9 22 -54 20
-67 -3z"/>
<path d="M3254 5036 c-8 -21 -1 -49 13 -53 6 -2 21 5 33 17 17 17 19 24 9 36
-15 18 -48 18 -55 0z"/>
<path d="M3399 4963 c-12 -33 -5 -53 19 -53 14 0 21 9 26 31 3 17 3 35 0 40
-11 18 -35 8 -45 -18z"/>
<path d="M2080 4939 c0 -18 50 -159 71 -201 27 -54 95 -125 139 -148 35 -18
37 -18 77 1 51 23 61 38 39 55 -16 11 -16 13 4 19 12 4 19 12 17 18 -6 19 -50
38 -74 32 -19 -4 -24 0 -31 27 -6 24 -5 37 5 47 8 7 12 20 9 28 -3 8 -6 17 -6
19 0 2 -13 4 -29 4 -23 0 -30 -5 -33 -22 -2 -12 -9 -23 -17 -26 -10 -3 -11 0
-5 9 24 39 10 129 -20 129 -21 0 -50 -50 -37 -63 13 -13 14 -27 2 -27 -5 0
-14 14 -20 32 -6 18 -21 42 -33 55 -22 24 -58 31 -58 12z m155 -169 c-8 -13
14 -52 26 -45 5 4 9 -3 9 -14 0 -11 5 -23 10 -26 6 -3 10 -13 10 -22 0 -24
-37 12 -61 59 -23 45 -24 58 -3 58 8 0 12 -4 9 -10z"/>
<path d="M3401 4871 c-7 -13 -6 -23 2 -35 12 -16 14 -16 31 3 20 22 15 51 -8
51 -9 0 -20 -8 -25 -19z"/>
<path d="M3270 4861 c-15 -28 -13 -31 19 -31 29 0 42 14 34 38 -7 19 -41 14
-53 -7z"/>
<path d="M2448 4825 c-12 -12 4 -44 26 -51 11 -4 23 -10 26 -14 3 -4 15 -10
26 -14 17 -5 23 -2 27 15 8 31 -9 59 -36 58 -12 0 -31 2 -42 6 -11 3 -23 3
-27 0z"/>
<path d="M2587 4793 c-12 -11 -8 -51 6 -55 18 -7 60 6 64 19 3 7 -9 19 -26 27
-34 18 -35 18 -44 9z"/>
<path d="M3280 4765 c-17 -21 -5 -45 24 -45 23 0 42 32 30 52 -8 13 -41 9 -54
-7z"/>
<path d="M3322 4702 c-17 -11 -4 -42 18 -42 21 0 44 25 35 40 -7 12 -35 13
-53 2z"/>
<path d="M3232 4688 c-17 -17 -15 -35 5 -42 21 -8 36 6 31 30 -4 22 -20 28
-36 12z"/>
<path d="M3337 4607 c-8 -21 17 -45 56 -52 35 -7 37 -6 37 19 0 19 -7 29 -26
36 -35 14 -61 12 -67 -3z"/>
<path d="M2904 4085 c-9 -23 3 -45 24 -45 20 0 52 29 52 48 0 18 -69 15 -76
-3z"/>
<path d="M3004 4056 c-11 -28 0 -61 21 -61 22 0 37 43 22 63 -13 16 -36 15
-43 -2z"/>
<path d="M3102 4033 c-13 -26 -4 -43 24 -43 26 0 30 11 14 41 -13 24 -27 24
-38 2z"/>
<path d="M5033 4044 c-3 -8 -1 -20 5 -26 16 -16 47 -5 50 20 3 18 -1 22 -23
22 -14 0 -28 -7 -32 -16z"/>
<path d="M4920 4025 c-11 -13 -8 -21 16 -46 28 -30 142 -99 163 -99 6 0 11 9
11 19 0 23 -53 72 -98 90 -20 8 -32 21 -32 32 0 24 -42 26 -60 4z"/>
<path d="M5107 3983 c-11 -10 -8 -51 4 -58 12 -8 49 22 49 40 0 19 -39 32 -53
18z"/>
<path d="M4881 3970 c-7 -4 -11 -20 -9 -36 2 -23 9 -30 29 -32 30 -4 44 19 29
48 -12 22 -33 31 -49 20z"/>
<path d="M4802 3961 c-19 -12 -11 -45 12 -49 24 -5 37 17 25 40 -11 20 -18 22
-37 9z"/>
<path d="M4766 3854 c-11 -28 -6 -44 12 -44 23 0 56 35 47 49 -10 17 -52 13
-59 -5z"/>
<path d="M5260 3844 c0 -28 37 -78 90 -123 27 -23 53 -53 56 -67 9 -34 42 -51
61 -31 24 23 9 58 -49 123 -85 93 -158 138 -158 98z"/>
<path d="M4670 3825 c-10 -12 -10 -18 0 -30 25 -30 53 -15 43 23 -6 26 -25 28
-43 7z"/>
<path d="M4877 3783 c-4 -3 -7 -10 -7 -15 0 -16 77 -92 152 -150 87 -66 122
-107 135 -158 7 -28 15 -36 37 -38 29 -4 29 -3 22 39 -16 103 -129 240 -245
297 -65 33 -82 37 -94 25z"/>
<path d="M4609 3724 c-16 -19 -1 -48 27 -52 21 -3 46 29 36 45 -13 20 -49 24
-63 7z"/>
<path d="M4714 3732 c-7 -4 -14 -18 -15 -32 -3 -20 1 -26 18 -28 29 -4 56 44
32 59 -17 11 -21 11 -35 1z"/>
<path d="M5472 3382 c-38 -55 -44 -86 -38 -196 6 -122 21 -106 -125 -127 -80
-11 -104 -10 -196 7 -31 6 -33 5 -33 -25 0 -42 19 -45 219 -37 128 5 169 10
181 22 12 12 15 43 15 147 0 110 3 137 18 160 22 34 22 54 -2 67 -16 8 -23 5
-39 -18z"/>
<path d="M4205 3627 c-11 -6 -47 -12 -80 -12 -50 0 -60 -3 -63 -18 -2 -10 4
-27 13 -37 15 -17 14 -18 -13 -22 -22 -3 -29 0 -28 11 1 21 -41 27 -62 8 -9
-8 -27 -18 -39 -21 -29 -9 -29 -30 -1 -50 l22 -16 -27 0 c-23 0 -27 -4 -27
-29 0 -33 22 -46 52 -30 19 10 19 9 -2 -19 -22 -29 -22 -30 -41 -11 -11 11
-24 17 -29 14 -16 -10 -12 -43 6 -53 14 -8 12 -12 -12 -31 -15 -12 -30 -19
-33 -16 -3 4 0 9 6 13 6 4 10 21 10 37 0 17 4 40 7 51 6 15 3 23 -10 28 -19 7
-44 -11 -47 -35 -2 -8 -6 -20 -11 -27 -12 -20 -15 -66 -4 -79 7 -9 2 -11 -19
-10 -22 2 -29 -3 -31 -20 -3 -22 -33 -46 -75 -62 -20 -8 -23 -6 -23 12 1 13
-6 23 -18 25 -22 5 -38 -16 -30 -40 5 -18 -7 -21 -164 -38 -77 -9 -97 -8 -114
4 -23 17 -48 11 -48 -11 0 -13 -8 -14 -40 -9 -50 8 -64 -14 -31 -47 25 -25 41
-26 276 -10 147 10 202 23 265 62 68 42 145 111 239 216 104 115 197 196 259
222 36 15 40 29 15 49 -22 16 -23 16 -48 1z m-184 -129 c-9 -25 -32 -31 -39
-10 -3 9 16 23 45 31 1 1 -1 -9 -6 -21z"/>
<path d="M3660 3260 c0 -25 4 -30 25 -30 17 0 28 7 34 23 11 29 6 37 -30 37
-26 0 -29 -3 -29 -30z"/>
<path d="M3170 3830 c0 -25 25 -36 45 -20 25 21 18 40 -15 40 -23 0 -30 -4
-30 -20z"/>
<path d="M2967 3813 c-4 -3 -7 -17 -7 -31 0 -21 3 -23 27 -17 33 8 46 25 31
42 -11 14 -40 17 -51 6z"/>
<path d="M3232 3758 c-19 -19 -15 -48 7 -48 20 0 37 32 26 50 -8 13 -18 13
-33 -2z"/>
<path d="M2174 3345 c-19 -29 -12 -45 21 -45 26 0 50 32 41 56 -9 22 -44 16
-62 -11z"/>
<path d="M2110 3250 c-24 -24 -25 -36 -4 -44 22 -8 54 11 54 33 0 28 -28 33
-50 11z"/>
<path d="M3417 3703 c-4 -3 -7 -17 -7 -30 0 -27 25 -41 49 -26 26 16 24 38 -4
51 -30 14 -30 14 -38 5z"/>
<path d="M3331 3612 c-12 -23 4 -42 35 -42 23 0 41 31 29 50 -10 17 -54 11
-64 -8z"/>
<path d="M3292 3528 c-15 -15 -16 -45 -1 -54 19 -11 60 18 57 40 -3 24 -37 33
-56 14z"/>
<path d="M2537 3219 c-27 -22 -37 -38 -37 -60 0 -40 16 -37 74 14 35 31 48 48
43 60 -10 25 -38 20 -80 -14z"/>
</g>
</svg>
