<?xml version="1.0"?>
<svg xmlns:rdf="http://www.w3.org/1999/02/22-rdf-syntax-ns#" xmlns="http://www.w3.org/2000/svg" xmlns:cc="http://creativecommons.org/ns#" xmlns:dc="http://purl.org/dc/elements/1.1/" xmlns:svg="http://www.w3.org/2000/svg" id="svg2" viewBox="0 0 499.51 496.37" version="1.0">
  <path id="path2315" d="m54.218 490.09c-1.009-3.46-1.869-9.8-1.91-14.08-0.047-4.8-0.724-7.78-1.77-7.78-2.024 0-3.524-3.47-3.416-7.9l0.077-3.22 2.327 3.34c2.717 3.89 5.266 4.45 3.884 0.85-0.738-1.92-0.358-2.25 1.694-1.46 2.23 0.85 2.499 0.43 1.711-2.71-0.539-2.15-0.296-3.72 0.577-3.72 0.83 0 1.51-1.2 1.51-2.67s0.585-3.3 1.299-4.08c0.714-0.77 2.779-6.08 4.587-11.78 1.809-5.71 6.288-15.64 9.954-22.07 5.118-8.97 6.214-11.96 4.719-12.89-1.503-0.92-1.33-1.44 0.755-2.24 5.469-2.09 5.417 2.73-0.138 12.72-2.954 5.31-5.887 10.66-6.517 11.88s-3.243 8.89-5.806 17.04c-2.564 8.16-5.727 17.16-7.03 20.01-1.303 2.86-2.412 5.64-2.466 6.18s-0.598 1.49-1.21 2.1c-1.795 1.8-1.278 12.94 0.943 20.32 1.13 3.75 1.686 7.19 1.236 7.64-1.926 1.93-3.288 0.44-5.01-5.48zm-25.598 0c-3.427-21.42-5.181-34.75-5.947-45.2-0.989-13.49-5.58-27.52-15.404-47.07-7.4222-14.77-8.895-20.01-5.6235-20.01 1.3386 0 2.7892 1.76 3.3593 4.08 0.5519 2.24 3.8214 10.08 7.2652 17.41 10.114 21.55 12.638 30.69 14.292 51.77 2.073 26.42 3.904 29.59 4.343 7.52l0.354-17.78 0.968 20.75c0.532 11.41 1.529 22.03 2.215 23.59 0.881 2 0.745 2.52-0.464 1.78-1.218-0.76-1.451 0.24-0.808 3.46 0.702 3.51 0.382 4.52-1.438 4.52-1.495 0-2.62-1.74-3.112-4.82zm11.754-1.62c-1.243-2.98-2.556-10.58-2.916-16.9l-0.655-11.49 1.5 10.99c0.825 6.05 2.471 13.33 3.658 16.17 1.186 2.84 1.824 5.49 1.416 5.9-0.407 0.41-1.759-1.69-3.003-4.67zm-10.945-50.81c-0.095-1.73-1.18-6.01-2.412-9.5-1.231-3.49-1.966-6.62-1.633-6.95 1.124-1.12 5.586 14.34 4.898 16.98-0.548 2.11-0.715 2-0.853-0.53zm23.544-11.31c0-6 21.066-30.14 40.022-45.86 4.483-3.71 19.155-14.28 32.605-23.47 27.25-18.63 37.27-25.84 48.18-34.68 4.08-3.3 7.69-6.18 8.03-6.4 0.34-0.21 0.24-0.76-0.23-1.23-0.84-0.84-15.87 9.83-24.11 17.13-5.09 4.52-24.55 16.72-25.36 15.91-0.3-0.3 3.62-3.3 8.7-6.67 5.09-3.38 15.92-11.15 24.08-17.29 8.15-6.13 16.15-11.94 17.78-12.9 2.67-1.57 2.76-1.5 0.93 0.72-3.63 4.39 0.4 2.52 6.24-2.9 5.53-5.15 9.68-13.12 7.8-14.99-0.51-0.52-3.09 1.08-5.73 3.55-2.63 2.46-8.13 6.75-12.2 9.53-4.08 2.78-7.75 5.41-8.15 5.86-3.33 3.63-19.52 14.72-21.05 14.41-1.06-0.22-1.76 0.43-1.56 1.45s-0.13 1.72-0.74 1.56c-2.88-0.76-11.48 3.7-19.16 9.93-1.01 0.82-6.25 4.15-11.65 7.41-35.599 21.51-54.441 37.22-66.631 55.56-8.263 12.43-10.419 13.51-13.284 6.65-1.181-2.82-3.8-7.31-5.819-9.96-4.059-5.32-12.782-23.02-12.784-25.94-0.003-4.39 2.863-1.19 6.554 7.32 2.188 5.05 6.277 12.31 9.087 16.14 2.81 3.82 5.11 7.76 5.11 8.73 0 3.03 2.036 1.24 14.632-12.84 13.657-15.28 32.445-30.74 49.105-40.43 13.85-8.05 61.92-38.62 71.89-45.72 11.67-8.31 25.94-21.08 25.94-23.22 0-1.38-3.9-0.49-13.44 3.05-7.39 2.75-16.74 5.44-20.77 5.97-4.15 0.56-10.28 2.85-14.16 5.32-8.51 5.39-11.5 4.78-9.18-1.87 1.25-3.58 3.43-5.49 9.21-8.08 6.44-2.89 24.36-18.5 21.23-18.5-0.58 0-13.89 6.74-29.59 14.98-33.04 17.34-44.897 21.85-60.694 23.09-18.287 1.44-34.897-5-50.147-19.44-11.63-11.01-13.907-16.58-13.978-34.19-0.051-12.82 0.433-15.82 3.587-22.23 4.191-8.52 11.988-17.44 24.073-27.53 13.727-11.47 40.785-18.66 65.119-17.33 11.96 0.66 13.01 0.51 11.31-1.66-3.02-3.85-4.56-5.27-9.63-8.84-4.91-3.44-16.901-18.16-18.618-22.84-1.654-4.5 3.269-2.98 10.838 3.36 7.22 6.05 16.38 10.71 24.43 12.43 3.97 0.86 3.42 0.05-5.19-7.52-16.57-14.57-36.097-35.02-43.32-45.35-11.565-16.546-14.292-29.945-8.733-42.914 3.233-7.541 6.063-10.533 26.973-28.523 8.5-7.308 16.6-14.433 18.01-15.834 6.52-6.494 22.06-16.119 30.79-19.072 11.48-3.8805 22.5-3.351 30.68 1.473 3.73 2.204 6.59 2.855 9.61 2.191 2.85-0.625 5.56-0.118 8.03 1.502 3.35 2.195 3.7 3.311 3.39 10.877-0.27 6.406 0.4 9.679 2.79 13.62 6.22 10.285 24.07 56.728 24.06 62.59-0.01 3.42 6.34 23.38 7.44 23.38 2.53 0 4.79-13.72 3.82-23.18-1.59-15.545 4.6-30.085 9.26-21.754 2.09 3.735 3.76-24.128 1.83-30.527-0.84-2.78-2.95-6.568-4.68-8.417-2.59-2.75-2.91-4.124-1.78-7.545 2.07-6.257 7.86-6.333 16.16-0.212 13.53 9.983 15.38 11.838 15.38 15.432 0 3.611-0.99 4.122-7.04 3.631-1.84-0.149-3.64 0.611-4 1.689-0.36 1.077-1.76 13.184-3.11 26.904l-2.46 24.949 4.86 6.04c2.67 3.32 5.65 8.38 6.64 11.24 1.61 4.68 1.94 4.91 3.28 2.37 2.59-4.92 10.59-31.189 14.38-47.238 11.17-47.249 20.26-63.335 42.06-74.379 8.06-4.0877 9.34-4.2717 32.65-4.7259 29.78-0.58 35.42 1.1041 48.02 14.315 32.41 33.983 30.91 72.232-4.46 114.38-11.57 13.78-22.05 24.2-30.82 30.64l-4.39 3.21 14.38-0.63c11.15-0.49 15.57-1.33 19.66-3.74 6.17-3.64 10.11-2.8 9.42 2.01-0.36 2.53-3.63 4.96-13.46 10.01-7.14 3.67-14.72 8-16.83 9.64l-3.85 2.96 22.76-1c53.72-2.36 75.83 1.77 89.74 16.78 4.61 4.98 6.65 11.16 6.77 20.56 0.08 6.42-0.75 9.53-3.84 14.43-2.17 3.43-3.94 6.66-3.94 7.18 0 0.51-2.84 4.78-6.3 9.48-3.47 4.69-7.64 10.45-9.27 12.79-5.77 8.3-17.88 20.34-25.2 25.05-4.37 2.82-12.69 6.11-20.22 7.99-12.34 3.09-13.19 3.12-23.71 0.82-20.07-4.41-40.35-13.16-62.21-26.87-17.96-11.25-29.1-16.51-25.3-11.93 0.87 1.04 2.27 6.21 3.12 11.48 1.18 7.33 2.96 11.61 7.58 18.17 4.6 6.53 5.94 9.71 5.59 13.32-0.5 5.12-4.22 7.14-6.92 3.75-8.06-10.11-13.58-14.99-21.66-19.18-5.22-2.71-9.98-4.44-10.57-3.85-2.26 2.26 14.56 31.47 28.13 48.88 7.48 9.59 10.56 20.25 9.51 32.89-0.71 8.66-6.82 18.3-15.49 24.47-5.23 3.71-5.88 3.79-31.46 3.88-14.5 0.04-31.39 0.96-37.97 2.07-6.53 1.09-18.87 2.05-27.43 2.14-17.6 0.17-24.74-2.14-36.59-11.86-15.36-12.59-15.67-27.05-1.18-55.61 4.5-8.87 7.58-16.13 6.85-16.13s-5.91 4.22-11.51 9.37c-12.86 11.83-59.2 45.47-62.64 45.47-0.77 0-1.63 0.56-1.9 1.24s-4.16 3.56-8.64 6.41c-18.535 11.78-43.491 37.25-46.975 47.94-1.479 4.54-6.392 7.09-6.392 3.33zm195.68-35.33c17.21-2.18 28.61-2.85 38.52-2.26l14.08 0.84-10.37-3.8c-5.71-2.09-13.05-4.38-16.31-5.09-10.51-2.29-33.97-1.57-49.97 1.54-18.2 3.54-26.28 3.74-30.16 0.76-2.62-2.01-2.16-2.13 5.28-1.34 5.72 0.61 14.1-0.28 28.12-2.98 28.36-5.46 40.25-4.91 63.29 2.92 19.48 6.62 30.14 4.05 36.67-8.85 6.99-13.81 4.1-27.32-9.52-44.48-10.97-13.82-17.75-25.75-29.09-51.13-5.68-12.74-17.65-25.33-24.06-25.33-5.41 0-5.92-1.46-1.47-4.23 2.35-1.47 3.43-1.54 4.22-0.26 1.85 2.99 10-5.44 14.74-15.25 4.24-8.77 4.38-9.65 3.12-20.29-0.72-6.11-3.08-16.01-5.25-21.99-2.16-5.98-3.63-11.17-3.27-11.53 0.8-0.81 6.98 13.3 7.01 16.01 0.02 1.44 0.42 1.36 1.53-0.27 1.12-1.66 1.27-1.21 0.58 1.77-1.12 4.82 0.55 8.47 2.48 5.43 0.91-1.44 1.29-0.96 1.32 1.69 0.02 2.04 0.75 4.71 1.61 5.93 2.81 3.98-0.06-9.04-3.76-17.05-1.88-4.07-8.27-13.34-14.19-20.59-5.92-7.26-12.33-15.93-14.24-19.27-1.91-3.35-3.49-5.02-3.5-3.72-0.01 1.31 2.04 5.21 4.54 8.67 2.51 3.45 4.25 6.59 3.89 6.96-0.37 0.37-2.77-2.18-5.34-5.67-5.76-7.83-8.48-16.84-5.99-19.84 0.96-1.15 1.43-4.26 1.04-6.9-1.76-11.98 5.62-82.676 8.63-82.676 1.45 0 3.59-3.066 3.59-5.13 0-0.242-2-1.269-4.45-2.282-2.44-1.013-4.44-2.506-4.44-3.317s-1.34-1.126-2.97-0.7c-2.2 0.575-2.96 0.045-2.96-2.051 0-3.344-2.69-3.775-3.9-0.624-0.47 1.212 0.89 4.263 3.01 6.784 3.69 4.39 3.85 5.346 3.85 22.74 0 20.553-2.06 44.676-5.39 62.906-1.86 10.25-3.66 14.68-10.5 25.94-4.53 7.47-9.87 16.4-11.86 19.86s-4.23 6.67-4.98 7.13-1.36 1.93-1.36 3.25c0 1.33-1.33 5.16-2.96 8.52-1.67 3.46-3.37 10.96-3.9 17.29-0.79 9.28-0.39 12.83 2.34 21.03 1.8 5.43 3.73 9.88 4.27 9.9 0.55 0.02 3.57 2.36 6.71 5.19 3.15 2.83 6.41 5.15 7.24 5.15s-1.87-2.69-5.99-5.97c-4.7-3.74-8.03-7.76-8.91-10.75-0.77-2.62-2.23-7.54-3.25-10.93-2.06-6.83-0.97-16.32 1.88-16.32 1.27 0 1.89 3.43 2.04 11.28 0.12 6.58 1.21 13.67 2.61 17.02 2.83 6.78 4.95 6.13 2.54-0.78-1.88-5.4-2.04-21.35-0.26-25.79 0.78-1.93 1.18 0.39 1.14 6.67-0.07 12.06 2.77 24.17 6.44 27.5 1.55 1.4 2.46 3.11 2.03 3.81-0.43 0.69 0.25 0.87 1.52 0.38 1.55-0.59 2.34 0.01 2.41 1.87 0.07 1.52 0.44 1.97 0.84 1 0.39-0.96-0.28-3.67-1.5-6.02-1.21-2.35-2.57-8.57-3.02-13.81-0.55-6.4-0.39-8.32 0.49-5.84 0.71 2.04 1.38 6.04 1.47 8.9 0.09 2.85 0.82 6.18 1.61 7.41 1.03 1.6 1.5-0.06 1.68-5.93 0.23-7.69 0.33-7.43 1.81 4.45l1.56 12.59 2.47-12.59 2.48-12.6-0.76 12.6c-0.42 6.93-0.94 12.81-1.16 13.07-0.21 0.26-5.44 0.96-11.62 1.55-9.45 0.9-11.91 1.73-15.53 5.19-6.48 6.21-11.28 16.24-16.42 34.29-2.64 9.27-8.46 23.99-13.49 34.11-10.36 20.88-13 31.09-10.44 40.39 3.94 14.33 22.05 26.02 41.65 26.87 2.05 0.09 14.72-1.23 28.16-2.93zm0.8-142.4c0.55-1.75 2.21-9.58 3.68-17.41l2.67-14.23-0.85 13.21c-0.64 9.81-0.42 12.93 0.86 12.14 0.94-0.59 1.75-3.86 1.78-7.28 0.04-3.41 0.97-10.21 2.07-15.1 2.34-10.34 2.94-7.94 0.96 3.8-2.26 13.39-3.02 23.62-1.76 23.62 2.47 0 6.45-31.55 5.6-44.47l-0.82-12.6 1.86 9.16c1.83 9.04 1.39 18.41-1.79 37.25-0.72 4.33-0.82 7.33-0.21 6.67 0.62-0.66 2.49-9.54 4.15-19.73l3.03-18.53-3.48-10.37c-1.91-5.71-3.3-10.56-3.07-10.79 0.22-0.23 1.85 2.93 3.61 7.03 3.43 7.98 6.18 20.27 5.94 26.57l-0.14 3.87-1.1-3.71c-0.84-2.84-1.73-0.16-3.82 11.52-2.54 14.18-3.06 15.47-7.75 19.04-4.84 3.7-5.1 3.74-7.26 1.09-1.23-1.51-1.85-1.98-1.39-1.04 0.46 0.93-0.2 2.09-1.47 2.58-1.81 0.69-2.09 0.2-1.3-2.29zm18.45-4.47c0-0.81 1.61-5.58 3.58-10.61 5.9-15.08 6.73-21.66 3.86-30.81-2.85-9.11-8.2-19.79-14.76-29.47-6.28-9.27-5.71-12.35 0.64-3.5 6.75 9.4 11.82 19.01 14.16 26.84 1.04 3.47 2.49 6.3 3.23 6.3 2.04 0 0.14-5.44-6.34-18.15-6.77-13.29-7.46-16.04-2.01-8.01 5.12 7.54 10.33 19.61 11.59 26.9 0.57 3.26 1.41 7.27 1.86 8.9 0.57 2.01 0.34 2.48-0.69 1.48-0.84-0.82-1.82-3.15-2.19-5.19-0.63-3.53-0.67-3.51-0.87 0.49-0.11 2.31-1.55 9.51-3.21 16s-2.66 12.38-2.22 13.09c1.32 2.14-0.73 5.66-3.76 6.45-1.58 0.41-2.87 0.09-2.87-0.71zm7.41-6.15c0-1.64 5.83-11.75 5.87-10.2 0.07 2.15-4.06 10.68-5.16 10.68-0.39 0-0.71-0.22-0.71-0.48zm-44.35-4.59c-0.06-1.56 0.29-2.44 0.78-1.94 0.49 0.49 0.55 1.77 0.12 2.84-0.47 1.18-0.83 0.83-0.9-0.9zm50.4-13.34c-0.06-1.56 0.29-2.44 0.78-1.95 0.49 0.5 0.54 1.78 0.12 2.85-0.48 1.18-0.83 0.83-0.9-0.9zm-62.14-20.13c0-2.04 0.34-2.88 0.75-1.86s0.41 2.69 0 3.71-0.75 0.18-0.75-1.85zm39.79 0c0-0.82 0.67-1.49 1.48-1.49 0.82 0 1.48 0.67 1.48 1.49 0 0.81-0.66 1.48-1.48 1.48-0.81 0-1.48-0.67-1.48-1.48zm-13.45-5.56c-0.07-1.43-0.36-3.9-0.66-5.49-0.3-1.6 0.02-5.27 0.71-8.16 1.06-4.48 1.27-3.68 1.39 5.5 0.08 5.91-0.18 10.74-0.59 10.74s-0.79-1.17-0.85-2.59zm-6.45-4.82l0.8-6.67-3.15 3.71c-2.74 3.22-2.94 3.28-1.57 0.46 2.52-5.14 1.93-5.32-3.58-1.12l-5.17 3.94 5.24-9.42c2.89-5.19 6.59-11.1 8.24-13.13l2.98-3.71-1.82 3.71c-1 2.03-3.2 5.57-4.88 7.85-2.57 3.49-2.72 4.37-0.94 5.46 1.16 0.72 2.65 0.98 3.3 0.58s1.19 0.14 1.2 1.21c0.02 1.42 0.43 1.34 1.53-0.28s1.23-1.01 0.48 2.22c-2.19 9.49-3.46 11.97-2.66 5.19zm13.36 3.52c-0.53-1.39-1.26-6.59-1.63-11.55l-0.65-9.02 1.99 11.12c2.01 11.17 2.1 14.16 0.29 9.45zm-28.92-2.66c-0.06-1.56 0.29-2.43 0.78-1.94s0.55 1.77 0.12 2.84c-0.48 1.18-0.83 0.83-0.9-0.9zm32.6-7.54c-1.69-5.47-2.99-11.37-2.9-13.12 0.16-2.98 0.22-2.99 0.84-0.21 0.36 1.63 2.02 7.18 3.68 12.32 1.67 5.15 2.67 9.72 2.24 10.15-0.44 0.44-2.17-3.68-3.86-9.14zm-29.01-5.19c6.92-10.3 8.09-11.36 3.65-3.29-1.92 3.49-4.76 7.48-6.3 8.88-1.55 1.4-0.36-1.12 2.65-5.59zm21.73-8.88c0-2.04 0.33-2.87 0.75-1.85 0.41 1.01 0.41 2.68 0 3.7-0.42 1.02-0.75 0.19-0.75-1.85zm-11.95-7.04c5.26-8.73 7.27-11.51 7.27-10.1 0 1.59-8.91 15.66-9.91 15.66-0.39 0 0.8-2.51 2.64-5.56zm8.87-3.42c-0.07-1.28 0.92-3.61 2.18-5.19 2.27-2.83 2.29-2.83 0.95 0.08-0.75 1.63-1.74 3.97-2.19 5.19-0.71 1.92-0.84 1.91-0.94-0.08zm4.33-0.57c0-1.18 0.66-2.55 1.48-3.05 0.81-0.51 1.48 0.45 1.48 2.13s-0.67 3.05-1.48 3.05c-0.82 0-1.48-0.96-1.48-2.13zm-0.74-9.72c-0.51-0.82-0.21-1.49 0.65-1.49s1.57 0.67 1.57 1.49c0 0.81-0.3 1.48-0.66 1.48-0.35 0-1.06-0.67-1.56-1.48zm11.11-103.76c0-0.815 0.3-1.482 0.66-1.482s1.06 0.667 1.57 1.482c0.5 0.815 0.21 1.482-0.66 1.482-0.86 0-1.57-0.667-1.57-1.482zm-154.32 255.75c5.69-1.94 20.56-9.01 33.05-15.73 12.48-6.71 27.37-14.7 33.08-17.75 5.7-3.05 15.71-7.39 22.23-9.64s12.49-4.66 13.27-5.35c3.39-3.01-37.78 0.67-50.33 4.5-11.47 3.5-26.7 12.77-51.13 31.14-7.75 5.82-17.422 12.3-21.498 14.41l-7.411 3.84 9.199-0.95c5.06-0.53 13.85-2.54 19.54-4.47zm-23.06-0.68c3.399-1.65 12.182-7.55 19.52-13.12 16.35-12.4 32-22.58 44.07-28.68 10.68-5.39 34.23-10.1 52.47-10.49l12.12-0.26-5.83-6.92c-3.97-4.7-7.76-7.49-11.86-8.72-7.89-2.36-17.68-11.54-27.01-25.31-4.15-6.12-7.69-11.79-7.88-12.6-0.19-0.82-2.64-7.16-5.44-14.09-2.81-6.93-5.84-16.26-6.73-20.75-5.36-26.78-6.34-33.55-7.16-49.45-0.81-15.811-1.25-17.935-4.38-21.056-4.46-4.469-5.22-14.495-1.75-23.265 3-7.571 14.55-6.777 17.58 1.209 2.83 7.429 1.54 13.868-5.11 25.58-3.74 6.578 0.65 48.032 7.58 71.572 3.55 12.06 4.21 13.12 12.4 20.01 4.76 4 11.53 9.37 15.04 11.94 11.93 8.73 23.83 14.08 13.86 6.23-5.98-4.69-12.26-19.81-14.89-35.81-4.92-29.91-2.99-92.005 3.57-114.72 1.03-3.576 0.85-5.163-0.73-6.477-2.49-2.064-2.86-15.506-0.59-21.473 2.32-6.084-0.14-8.061-7.85-6.336-8.05 1.797-11.42 4.037-24.05 15.992-16.87 15.966-23.46 20.538-42.77 29.664-31.023 14.663-37.754 23.981-29.48 40.81 8.163 16.6 42.99 53.38 62.53 66.05 4.12 2.67 7.5 5.76 7.5 6.86s1.99 6.4 4.43 11.78c4.36 9.62 4.38 9.75 1.11 8.8-10.66-3.11-24.72-5.19-40.37-5.98-18.061-0.91-24.782 0.04-48.382 6.85-11.396 3.29-32.776 22.68-38.752 35.15-4.646 9.69-4.562 30.67 0.16 39.8 4.809 9.29 11.296 16 21.39 22.13 16.707 10.15 23.283 11.09 35.684 5.08zm248.61-0.07c-1.49-0.93-2.4-3.31-2.93-7.66-0.06-0.52-1.64-1.95-3.52-3.17-3.13-2.05-3.42-2.01-3.61 0.57-0.12 1.54 0.41 2.8 1.16 2.8 0.76 0 3.16 2.83 5.35 6.29 2.44 3.87 4.23 5.52 4.64 4.28 0.37-1.11-0.12-2.51-1.09-3.11zm-6.89-7.83l-2.82-3.34 3.33 2.83c3.14 2.65 4.01 3.84 2.83 3.84-0.29 0-1.79-1.5-3.34-3.33zm108.85 0.52c8.08-2.15 15.99-6.26 21.73-11.31 3.15-2.76 3.58-3.59 1.48-2.83-23.68 8.53-47.25 6.69-75.52-5.89-25.33-11.28-44.67-18.66-48.88-18.66-1.99 0-5.16-0.58-7.05-1.28s-6.1-1.74-9.36-2.31l-5.93-1.03 5.87 3.05c3.23 1.68 6.83 3.05 8.01 3.05 2.05 0 11.66 5.24 27.62 15.06 19.49 11.99 38.45 20.34 53.36 23.5 7.28 1.54 20.07 0.94 28.67-1.35zm-267.53-8.26c1.21-3.16 0.53-2.86-3.6 1.64-3.31 3.59-3.34 3.77-0.43 2.26 1.74-0.9 3.55-2.66 4.03-3.9zm152.48 3.4c-1.15-1.15-1.25-2.34-0.3-3.48 0.98-1.19 0.5-2.59-1.52-4.42-1.68-1.52-2.96-1.93-2.96-0.96 0 0.94 0.56 1.71 1.24 1.71s1.23 1 1.23 2.22c0 2.92 0.32 3.02-9.11-3.01-4.5-2.88-8.16-4.71-8.13-4.07 0.03 0.63 4.53 3.92 10.01 7.31 10.79 6.67 12.21 7.37 9.54 4.7zm-127.58-14.93c5.03-6.98 2.05-4.49-6.2 5.19-5.89 6.9-6.48 7.94-2.32 4.07 3.08-2.85 6.91-7.02 8.52-9.26zm-3.19-3.45c5.03-5.4 5.05-5.47 0.74-2.49-2.44 1.7-6.78 5.59-9.63 8.65-5.03 5.39-5.06 5.47-0.74 2.48 2.44-1.7 6.78-5.59 9.63-8.64zm256.69 9.47c14.92-3.32 24.83-11.52 39.98-33.07 14.97-21.29 14.83-35.61-0.47-48.44-6.81-5.72-9.62-6.99-20.37-9.24-15.89-3.32-69.39-3.42-94.14-0.18-9.05 1.19-20.51 2.28-25.45 2.43l-8.99 0.27-6.27 12.2c-6.37 12.37-8.08 15.01-15.35 23.66-3.61 4.3-15.1 11.15-22.24 13.25-4.62 1.36-3.04 5.28 2.22 5.52 2.65 0.12 8.16 0.35 12.23 0.52 4.08 0.17 11.08 1.35 15.57 2.62 4.48 1.27 11.13 2.79 14.78 3.37 3.64 0.58 12.98 3.73 20.75 7 37.59 15.83 46.64 19.15 55.24 20.27 14.02 1.82 23.78 1.77 32.51-0.18zm-126.46-8.75c-2.85-1.76-3.47-0.31-1.11 2.6 1.84 2.26 1.75 2.42-0.82 1.45-2.85-1.07-2.85-1.05 0 2.12l2.88 3.21 0.49-4.09c0.27-2.25-0.38-4.63-1.44-5.29zm-136.16-0.71c0-0.41-1.33-0.03-2.96 0.84-1.63 0.88-2.97 1.92-2.97 2.33s1.34 0.03 2.97-0.84c1.63-0.88 2.96-1.92 2.96-2.33zm21.07-4.33c1.61-3.15 1.12-2.69-4.79 4.42-3.55 4.28-3.56 4.33-0.21 1.5 1.91-1.62 4.16-4.28 5-5.92zm4.08 2.95c0-0.82-0.64-0.48-1.43 0.74s-1.44 2.89-1.44 3.71c0 0.81 0.65 0.48 1.44-0.74 0.79-1.23 1.43-2.89 1.43-3.71zm92.95 4.21c-0.53-0.53-0.28-1.81 0.57-2.83 1.08-1.3 1.01-2.19-0.24-2.96-1.09-0.67-1.4-0.48-0.79 0.51 1.51 2.45-1.86 3.79-4.35 1.73-1.2-1-2.57-1.45-3.03-0.99s1.06 1.87 3.38 3.12c4.59 2.49 5.97 2.93 4.46 1.42zm15.37-7.1c-0.98-1.18-4.76-3.28-8.4-4.67-3.83-1.47-6.07-3.08-5.31-3.84 0.75-0.76 2.97-0.68 5.25 0.19 5.4 2.05 4.98 0.7-0.7-2.24-3.79-1.96-5.37-2.08-8.51-0.65-3.54 1.62-3.65 1.92-1.3 3.63 1.41 1.03 2.17 2.25 1.7 2.73-0.47 0.47 1.37 1.93 4.1 3.26 4.2 2.03 4.52 2.05 2.08 0.1-1.59-1.26-3.53-2.29-4.33-2.29-0.79 0-1.1-0.35-0.67-0.77 0.43-0.43 4.37 0.9 8.77 2.95 9.37 4.36 9.66 4.42 7.32 1.6zm-17.85-9.71c2.9-1.88 4.86-1.88 3.7 0-0.5 0.82-2.04 1.47-3.42 1.46-2.16-0.02-2.2-0.22-0.28-1.46zm-1.21-3.98c-1.07-0.42-2.34-0.37-2.84 0.12-0.49 0.49 0.39 0.84 1.95 0.78 1.73-0.07 2.08-0.42 0.89-0.9zm-5.92-1.48c-1.07-0.43-2.35-0.37-2.85 0.12-0.49 0.49 0.39 0.84 1.95 0.78 1.73-0.07 2.08-0.43 0.9-0.9zm-68.77-4.54c-11.49-12.27-15.08-33.22-8.57-50.03 0.95-2.45 1.98-5.72 2.29-7.28 0.32-1.56 2.43-5.46 4.69-8.66 7.15-10.12 15.05-22.55 15.14-23.84 0.05-0.67-3.58 3.25-8.06 8.72s-8.17 10.69-8.2 11.61c-0.02 0.91-1.09 2.99-2.38 4.63-2.26 2.88-2.3 2.86-1.31-0.75 0.99-3.58 0.9-3.56-2.74 0.75-2.35 2.77-3.45 5.49-2.93 7.22 0.57 1.9 0.27 2.44-0.92 1.7-1.18-0.73-1.11-0.07 0.2 2.04 1.56 2.5 1.58 3.7 0.11 6.06-3.28 5.26-1.1 28.23 3.62 38.19 2.47 5.19 9.75 13.71 11.72 13.71 0.64 0-0.56-1.83-2.66-4.07zm-10.88-57.67c0.03-2.18 0.86-4.24 1.83-4.56 1.14-0.38 1.6 0.86 1.32 3.51-0.57 5.34-3.24 6.23-3.15 1.05zm77.38 46.17c3.01-5.66 3.41-7.91 2.56-14.47-1.71-13.24-3.38-14.59-3.18-2.57 0.15 8.96-0.48 12.42-3.24 17.79-1.89 3.67-4.35 7.2-5.46 7.85-1.12 0.66-2.03 1.87-2.03 2.71 0 3.05 7.88-4.8 11.35-11.31zm-74.71 7.79c-6.32-7.99-10.12-31.27-7.31-44.84 0.8-3.84 0.72-5.41-0.21-4.45-2.6 2.69-4.58 16.31-3.67 25.29 0.87 8.54 4.53 17.94 9.06 23.26 2.5 2.93 4.39 3.59 2.13 0.74zm92.59-14.7c17.93-12.28 42.42-77.16 48-127.16 0.86-7.741 1.85-14.542 2.2-15.111 0.36-0.569-0.68-3.279-2.3-6.022-6.13-10.386 1.64-29.739 10.84-27.014 4.73 1.402 6.89 4.971 6.89 11.386 0 6.406-4.98 18.637-8.08 19.825-1.28 0.492-2.64 5.461-3.73 13.638-3.49 26.218-8.22 48.108-14.14 65.518-2.03 5.97-3.42 11.11-3.1 11.43 0.85 0.85 12.91-5.75 28-15.31 9.94-6.3 16.44-12.06 27.42-24.26 28.55-31.73 38.24-59.205 29.63-83.956-6.73-19.325-20.59-36.358-35.25-43.325-6.94-3.3019-10.63-3.9599-24.94-4.4501-19.44-0.66614-30.77 1.7414-42.15 8.9531-15.66 9.924-23.35 24.07-31.68 58.242-9.73 39.906-15.36 57.226-24.44 75.226l-4.34 8.6 4.86 6.26c15.48 19.92 18.33 23.29 19.68 23.24 2.03-0.08 11.66-15.19 16.03-25.13 6.68-15.24 14.78-46.58 16.49-63.864 2.75-27.875 2.77-35.423 0.11-41.334-2.95-6.536-2.27-16.045 1.57-21.907 2.61-3.993 8.83-4.424 12.74-0.882 5.07 4.586 2.81 20.094-3.72 25.509-2.05 1.709-2.7 5.982-4.82 32.07-2.79 34.428-15.36 73.488-31.32 97.368-2.8 4.18-3.42 6.53-2.66 10.01 1.31 5.93 3.94 5.85 18.7-0.54 7.05-3.06 11.71-4.38 11.7-3.34-0.02 2.03-15.56 9.34-22.69 10.68l-4.9 0.92 0.56 8.41c0.32 4.85-0.37 11.42-1.64 15.51-2.18 7.05-2.17 7.1 1.01 6.1 1.77-0.55 6.03-2.93 9.47-5.29zm-108.47-10.93c-0.88-5.93-1.39-6.47-9.39-10-4.66-2.05-10.68-4.19-13.39-4.76l-4.93-1.03 2.22 4.22c2.35 4.46 15.46 17.64 21.72 21.83 3.57 2.4 3.72 2.37 4.21-0.75 0.28-1.79 0.08-6.06-0.44-9.51zm16.59-42.48c3.77-4.32 10.49-11.64 14.94-16.25 6.36-6.61 7.91-9.13 7.29-11.86-2.02-8.83-12.36-44.02-18.44-62.755-6.67-20.562-17.04-43.727-19.57-43.727-0.72 0-3.26 2.226-5.65 4.947-3.63 4.131-4.82 7.615-7.2 21.123-2.34 13.309-2.82 22.741-2.69 53.232 0.1 21.72 0.89 40.74 1.91 45.95 2.03 10.32 8.65 28.51 11.71 32.16 1.91 2.28 2.51 1.7 6.47-6.23 2.4-4.81 7.46-12.27 11.23-16.59zm-74.83 14.14c-1.02-0.41-2.69-0.41-3.71 0s-0.19 0.74 1.85 0.74 2.87-0.33 1.86-0.74zm226.41-13.14c0-0.41-4.67 1.61-10.37 4.48-5.71 2.88-10.38 5.56-10.38 5.97s4.67-1.61 10.38-4.48c5.7-2.88 10.37-5.56 10.37-5.97zm-228.39 9.14c-1.55-1.33-11.72-2.13-10.94-0.86 0.47 0.76 3.27 1.39 6.21 1.39s5.07-0.24 4.73-0.53zm242.67-4.04c2.75-1.69 4.99-3.38 4.99-3.74 0-0.68-6.45 2.6-10.37 5.27-4.2 2.86 0.39 1.56 5.38-1.53zm9.44-12.96c-1.46-0.5-24.77 10.8-27.38 13.27-0.79 0.75 5.37-1.82 13.69-5.71s14.48-7.29 13.69-7.56zm-249.02 7.81c0-0.36-1.04-0.65-2.31-0.65s-1.9 0.67-1.38 1.5c0.84 1.37 3.69 0.71 3.69-0.85zm232.95-7.74c-0.76-0.26-3.73 0.86-6.6 2.47s-6.54 2.58-8.15 2.16c-1.62-0.42-3.39-0.04-3.93 0.84-0.55 0.89-0.25 1.62 0.66 1.62s1.23 0.68 0.71 1.52 3.48-0.65 8.87-3.31c5.4-2.67 9.19-5.05 8.44-5.3zm-252.96 7.09c-4.08-1.76-6.42-1.76-3.71 0 1.22 0.79 3.23 1.4 4.45 1.35 1.46-0.05 1.21-0.51-0.74-1.35zm-6.67-5.93c-1.23-0.79-2.89-1.44-3.71-1.44-0.81 0-0.48 0.65 0.74 1.44s2.89 1.43 3.71 1.43c0.81 0 0.48-0.64-0.74-1.43zm284.37-0.85c2.57-1.29 4.67-2.59 4.67-2.89 0-1.02-8.89 2.53-9.72 3.88-1.15 1.85-0.34 1.69 5.05-0.99zm-158.59-37.69c0-1.4-0.47-1.13-1.27 0.74-0.7 1.63-1.28 3.96-1.28 5.19 0 1.4 0.47 1.12 1.28-0.75 0.7-1.63 1.27-3.96 1.27-5.18zm3.13 2.22c0-0.82-0.65-0.48-1.44 0.74s-1.43 2.89-1.43 3.71c0 0.81 0.64 0.48 1.43-0.74 0.79-1.23 1.44-2.89 1.44-3.71zm24.76-4.68c-1.44-1.44-2.02-0.42-3.06 5.42l-0.92 5.19 2.49-4.8c1.37-2.64 2.05-5.26 1.49-5.81zm-7.03-8.38c0.06-3.1-0.48-5.29-1.19-4.85-0.7 0.44-1.32 4.32-1.36 8.61-0.06 5.59 0.28 6.97 1.18 4.85 0.69-1.63 1.31-5.5 1.37-8.61zm3.64 5.65c0.73-3.25 0.59-3.85-0.51-2.22-0.82 1.22-1.51 3.5-1.52 5.06-0.03 3.79 0.82 2.61 2.03-2.84zm-20.35-18.93c-0.41-1-0.72 0.18-0.69 2.62 0.03 2.45 0.37 3.27 0.74 1.83 0.38-1.44 0.35-3.44-0.05-4.45zm4.37 2.28c-0.5-0.49-0.85 0.39-0.78 1.95 0.07 1.73 0.42 2.08 0.89 0.9 0.43-1.07 0.38-2.35-0.11-2.85zm-3.89-18.643c-0.01-2.64-0.29-2.832-1.46-1.024-1.88 2.92-1.88 6.354 0 5.188 0.82-0.504 1.48-2.378 1.46-4.164zm5.45-1.423c-0.41-1.003-0.72 0.177-0.69 2.622 0.03 2.446 0.37 3.267 0.74 1.825 0.38-1.442 0.35-3.443-0.05-4.447zm-144.18-27.195c21.69-10.905 29.34-16.096 40.19-27.25 8.92-9.185 19.14-16.841 25.19-18.871 4.44-1.49 4.44-1.494-2.67-2.609-5.53-0.866-9.3-0.405-16.79 2.056-12.91 4.237-22.26 10.443-40.74 27.042-8.5 7.631-18.968 16.798-23.272 20.371-7.468 6.201-13.613 15.27-13.613 20.093 0 1.301 2.586-0.556 6.134-4.406 4.511-4.894 11.278-9.241 25.571-16.426zm34.85 15.787c1.55-7.247 1.01-11.909-1.39-11.909-2.17 0-3.23 6.048-2.22 12.745 0.53 3.588 1.21 6.524 1.5 6.524s1.24-3.312 2.11-7.36zm220.86-9.771c2.98-5.048 4.05-9.55 2.27-9.55-0.46 0-2.13 0.691-3.7 1.535-2.1 1.121-2.87 3.118-2.87 7.411 0 3.232 0.27 5.877 0.59 5.877 0.33 0 2-2.373 3.71-5.273zm-30.23-33.248c-1.63-2.635-4.9 0.22-5.61 4.899-1.09 7.16 0.54 8.017 3.66 1.929 1.54-3.001 2.42-6.073 1.95-6.828zm-143.02-1.959c0.02-0.971 1.34-3.433 2.94-5.471 3.7-4.73 3.73-7.411 0.09-7.411-3.04 0-4.38 2.782-5.43 11.283-0.41 3.316-0.1 4.889 0.86 4.298 0.83-0.514 1.53-1.728 1.54-2.699zm-131.94 379.66c-0.013-3.38 5.683-9.88 16.697-19.04 9.204-7.66 9.199-7.65-1.467 2.47-5.886 5.59-11.718 12.16-12.961 14.61-1.338 2.63-2.264 3.43-2.269 1.96zm-40.031-18.27c0-1.22 0.262-2.22 0.583-2.22 0.32 0 0.966 1 1.435 2.22 0.47 1.22 0.208 2.22-0.582 2.22s-1.436-1-1.436-2.22zm66.703-8.57c0-0.86 24.831-20.49 31.131-24.61l5.18-3.39-4.12 3.46c-16.561 13.89-32.191 25.81-32.191 24.54zm37.711-29.09c0.56-0.9 3.14-2.67 5.74-3.92 4.38-2.13 4.51-2.12 1.76 0.11-4.5 3.65-8.73 5.8-7.5 3.81z"/>
  <metadata>
    <rdf:RDF>
      <cc:Work>
        <dc:format>image/svg+xml</dc:format>
        <dc:type rdf:resource="http://purl.org/dc/dcmitype/StillImage"/>
        <cc:license rdf:resource="http://creativecommons.org/licenses/publicdomain/"/>
        <dc:publisher>
          <cc:Agent rdf:about="http://openclipart.org/">
            <dc:title>Openclipart</dc:title>
          </cc:Agent>
        </dc:publisher>
        <dc:title>Corolla 2</dc:title>
        <dc:date>2009-04-05T14:01:21</dc:date>
        <dc:description>Corolla of a flower.&#xD;\n&#xD;\nSource: http://commons.wikimedia.org/wiki/File:Corolla_2_(PSF).png&#xD;\n&#xD;\nInfo: http://en.wikipedia.org/wiki/Corolla_(flower)#Corolla</dc:description>
        <dc:source>http://openclipart.org/detail/24103/corolla-2-by-warszawianka-24103</dc:source>
        <dc:creator>
          <cc:Agent>
            <dc:title>warszawianka</dc:title>
          </cc:Agent>
        </dc:creator>
        <dc:subject>
          <rdf:Bag>
            <rdf:li>biology</rdf:li>
            <rdf:li>black and white</rdf:li>
            <rdf:li>botany</rdf:li>
            <rdf:li>clip art</rdf:li>
            <rdf:li>clipart</rdf:li>
            <rdf:li>contour</rdf:li>
            <rdf:li>corolla</rdf:li>
            <rdf:li>externalsource</rdf:li>
            <rdf:li>flower</rdf:li>
            <rdf:li>image</rdf:li>
            <rdf:li>line art</rdf:li>
            <rdf:li>media</rdf:li>
            <rdf:li>nature</rdf:li>
            <rdf:li>outline</rdf:li>
            <rdf:li>plant</rdf:li>
            <rdf:li>png</rdf:li>
            <rdf:li>psf</rdf:li>
            <rdf:li>public domain</rdf:li>
            <rdf:li>season</rdf:li>
            <rdf:li>spring</rdf:li>
            <rdf:li>summer</rdf:li>
            <rdf:li>svg</rdf:li>
            <rdf:li>wikimedia commons</rdf:li>
          </rdf:Bag>
        </dc:subject>
      </cc:Work>
      <cc:License rdf:about="http://creativecommons.org/licenses/publicdomain/">
        <cc:permits rdf:resource="http://creativecommons.org/ns#Reproduction"/>
        <cc:permits rdf:resource="http://creativecommons.org/ns#Distribution"/>
        <cc:permits rdf:resource="http://creativecommons.org/ns#DerivativeWorks"/>
      </cc:License>
    </rdf:RDF>
  </metadata>
</svg>
